<?xml version="1.0" encoding="UTF-8"?>
<!-- Created with Inkscape (http://www.inkscape.org/) -->
<svg width="354.01mm" height="354.05mm" version="1.1" viewBox="0 0 354.01 354.05" xmlns="http://www.w3.org/2000/svg" xmlns:cc="http://creativecommons.org/ns#" xmlns:dc="http://purl.org/dc/elements/1.1/" xmlns:rdf="http://www.w3.org/1999/02/22-rdf-syntax-ns#">
 <defs>
  <filter id="filter1442" x="-.019201" y="-.019199" width="1.0384" height="1.0384" color-interpolation-filters="sRGB">
   <feGaussianBlur stdDeviation="2.7274945"/>
  </filter>
 </defs>
 <metadata>
  <rdf:RDF>
   <cc:Work rdf:about="">
    <dc:format>image/svg+xml</dc:format>
    <dc:type rdf:resource="http://purl.org/dc/dcmitype/StillImage"/>
    <dc:title/>
   </cc:Work>
  </rdf:RDF>
 </metadata>
 <g transform="translate(448.06 39.955)">
  <g shape-rendering="auto">
   <path d="m-270.15-33.408c-1.0421-0.0035-2.0841 0.0024-3.1259 0.0186-53.422 0.18831-106.07 27.883-136.8 71.795-34.073 47.216-41.012 111.56-18.047 164.97 21.587 52.115 71.105 91.952 126.89 101.45 49.327 9.1988 102.87-5.2036 140.88-38.243 39.202-32.978 61.996-85.008 59.582-136.11-1.5505-54.308-31.704-107.14-77.598-136.44-27.141-17.745-59.477-27.326-91.781-27.436z" color="#000000" color-rendering="auto" dominant-baseline="auto" filter="url(#filter1442)" image-rendering="auto" solid-color="#000000" stroke-miterlimit="0" stroke-width="0" style="font-feature-settings:normal;font-variant-alternates:normal;font-variant-caps:normal;font-variant-ligatures:normal;font-variant-numeric:normal;font-variant-position:normal;isolation:auto;mix-blend-mode:normal;shape-padding:0;text-decoration-color:#000000;text-decoration-line:none;text-decoration-style:solid;text-indent:0;text-orientation:mixed;text-transform:none;white-space:normal"/>
   <path transform="scale(.26458)" d="m-1025-130.27c-3.9386-0.0134-7.8769 9e-3 -11.814 0.0703-201.91 0.71171-400.88 105.38-517.05 271.35-128.78 178.45-155.01 421.65-68.209 623.5 81.587 196.97 268.74 347.54 479.59 383.42 186.43 34.767 388.8-19.667 532.47-144.54 148.17-124.64 234.32-321.29 225.19-514.44-5.8602-205.26-119.82-404.94-293.29-515.67-102.58-67.069-224.8-103.28-346.89-103.69z" color="#000000" color-rendering="auto" dominant-baseline="auto" fill="#9797ff" image-rendering="auto" solid-color="#000000" stroke-miterlimit="0" stroke-width="0" style="font-feature-settings:normal;font-variant-alternates:normal;font-variant-caps:normal;font-variant-ligatures:normal;font-variant-numeric:normal;font-variant-position:normal;isolation:auto;mix-blend-mode:normal;shape-padding:0;text-decoration-color:#000000;text-decoration-line:none;text-decoration-style:solid;text-indent:0;text-orientation:mixed;text-transform:none;white-space:normal"/>
   <path transform="scale(.26458)" d="m-1029 110.6-0.1406 806.37h0.502l446.39 61.742c131.09-125.01 206-308.84 197.46-489.6-3.0228-105.88-34.806-210.27-88.68-301.74l-554.53-76.697v-0.0703h-0.5019z" color="#000000" color-rendering="auto" dominant-baseline="auto" image-rendering="auto" opacity=".285" solid-color="#000000" style="font-feature-settings:normal;font-variant-alternates:normal;font-variant-caps:normal;font-variant-ligatures:normal;font-variant-numeric:normal;font-variant-position:normal;isolation:auto;mix-blend-mode:normal;shape-padding:0;text-decoration-color:#000000;text-decoration-line:none;text-decoration-style:solid;text-indent:0;text-orientation:mixed;text-transform:none;white-space:normal"/>
  </g>
  <g>
   <path transform="scale(.26458)" d="m-1028.6 111.09a402.86 402.86 0 0 0-402.86 402.86 402.86 402.86 0 0 0 402.86 402.86 402.86 402.86 0 0 0 402.86-402.86 402.86 402.86 0 0 0-402.86-402.86zm142.43 444.86a100.43 100.43 0 0 1 10.027 0.50196 100.43 100.43 0 0 1 9.9258 1.5 100.43 100.43 0 0 1 9.7246 2.4844 100.43 100.43 0 0 1 9.4297 3.4414 100.43 100.43 0 0 1 9.0391 4.3672 100.43 100.43 0 0 1 8.5586 5.2461 100.43 100.43 0 0 1 7.9922 6.0762 100.43 100.43 0 0 1 7.3438 6.8418 100.43 100.43 0 0 1 6.625 7.541 100.43 100.43 0 0 1 5.8398 8.166 100.43 100.43 0 0 1 4.9942 8.707 100.43 100.43 0 0 1 4.1016 9.1641 100.43 100.43 0 0 1 3.166 9.5254 100.43 100.43 0 0 1 2.1973 9.7949 100.43 100.43 0 0 1 1.2109 9.9648 100.43 100.43 0 0 1 0.25 7.1035 100.43 100.43 0 0 1-0.50196 10.027 100.43 100.43 0 0 1-1.5 9.9258 100.43 100.43 0 0 1-2.4824 9.7246 100.43 100.43 0 0 1-3.4434 9.4316 100.43 100.43 0 0 1-4.3652 9.0371 100.43 100.43 0 0 1-5.248 8.5586 100.43 100.43 0 0 1-6.0742 7.9922 100.43 100.43 0 0 1-6.8418 7.3438 100.43 100.43 0 0 1-7.543 6.625 100.43 100.43 0 0 1-8.1641 5.8398 100.43 100.43 0 0 1-8.709 4.9941 100.43 100.43 0 0 1-9.1621 4.1016 100.43 100.43 0 0 1-9.5254 3.166 100.43 100.43 0 0 1-9.7949 2.1973 100.43 100.43 0 0 1-9.9648 1.2109 100.43 100.43 0 0 1-7.1055 0.25 100.43 100.43 0 0 1-10.025-0.50196 100.43 100.43 0 0 1-9.9258-1.5 100.43 100.43 0 0 1-9.7266-2.4824 100.43 100.43 0 0 1-9.4297-3.4434 100.43 100.43 0 0 1-9.0391-4.3652 100.43 100.43 0 0 1-8.5566-5.248 100.43 100.43 0 0 1-7.9922-6.0742 100.43 100.43 0 0 1-7.3457-6.8418 100.43 100.43 0 0 1-6.625-7.543 100.43 100.43 0 0 1-5.8379-8.1641 100.43 100.43 0 0 1-4.9961-8.709 100.43 100.43 0 0 1-4.0996-9.1621 100.43 100.43 0 0 1-3.166-9.5254 100.43 100.43 0 0 1-2.1973-9.7949 100.43 100.43 0 0 1-1.2109-9.9648 100.43 100.43 0 0 1-0.25196-7.1055 100.43 100.43 0 0 1 0.50196-10.025 100.43 100.43 0 0 1 1.5-9.9258 100.43 100.43 0 0 1 2.4844-9.7266 100.43 100.43 0 0 1 3.4414-9.4297 100.43 100.43 0 0 1 4.3672-9.0391 100.43 100.43 0 0 1 5.2461-8.5566 100.43 100.43 0 0 1 6.0762-7.9922 100.43 100.43 0 0 1 6.8418-7.3457 100.43 100.43 0 0 1 7.541-6.625 100.43 100.43 0 0 1 8.166-5.8379 100.43 100.43 0 0 1 8.707-4.9961 100.43 100.43 0 0 1 9.1641-4.0996 100.43 100.43 0 0 1 9.5254-3.166 100.43 100.43 0 0 1 9.7949-2.1973 100.43 100.43 0 0 1 9.9648-1.2109 100.43 100.43 0 0 1 7.1035-0.25196z" fill="#025"/>
   <path transform="scale(.26458)" d="m-707.77 801.65a431.43 431.43 0 0 1-20.965 21.871l92.318 88.732c14.249 14.841 36.218-7.13 21.377-21.379z" fill="#001c48"/>
   <path transform="scale(.26458)" d="m-1349.4 801.68-92.695 89.189c-14.49 14.256 7.1333 35.874 21.385 21.379l92.008-88.434a431.43 431.43 0 0 1-20.697-22.135z" fill="#001c48"/>
  </g>
  <path transform="scale(.26458)" d="m-1028.6 195.42c-175.47-1e-5 -318.53 143.06-318.53 318.53h75.592c1e-3 -134.62 108.32-242.94 242.94-242.94z" color="#000000" color-rendering="auto" dominant-baseline="auto" fill="#003f9e" fill-opacity=".72566" image-rendering="auto" opacity=".515" shape-rendering="auto" solid-color="#000000" style="font-feature-settings:normal;font-variant-alternates:normal;font-variant-caps:normal;font-variant-ligatures:normal;font-variant-numeric:normal;font-variant-position:normal;isolation:auto;mix-blend-mode:normal;shape-padding:0;text-decoration-color:#000000;text-decoration-line:none;text-decoration-style:solid;text-indent:0;text-orientation:mixed;text-transform:none;white-space:normal"/>
 </g>
</svg>
