<?xml version="1.0" encoding="UTF-8"?>
<!-- Created with Inkscape (http://www.inkscape.org/) -->
<svg width="722.86" height="722.86" version="1.1" viewBox="0 0 191.26 191.26" xmlns="http://www.w3.org/2000/svg" xmlns:cc="http://creativecommons.org/ns#" xmlns:dc="http://purl.org/dc/elements/1.1/" xmlns:rdf="http://www.w3.org/1999/02/22-rdf-syntax-ns#">
 <metadata>
  <rdf:RDF>
   <cc:Work rdf:about="">
    <dc:format>image/svg+xml</dc:format>
    <dc:type rdf:resource="http://purl.org/dc/dcmitype/StillImage"/>
    <dc:title/>
   </cc:Work>
  </rdf:RDF>
 </metadata>
 <g transform="translate(254.38 -20.699)">
  <rect x="-254.38" y="20.699" width="191.26" height="191.26" ry="37.168" fill="#2e2e2e" stroke-width=".2452"/>
  <g transform="matrix(3.9024 0 0 3.9024 -341.65 -517.59)">
   <g fill="#fff" shape-rendering="auto">
    <path d="m50.402 151.03c-1.8258 7e-3 -2.0117 3.1754-1.9451 4.2276 0.0698 1.1036 0.60855 1.2112 0.6134 1.5562l-1.2624 24.777c-2e-3 0.16405 0.01 0.31855 0.0315 0.46612 1.7173-0.0836 3.3757-0.3891 4.9496-0.88625l-1.0919-24.357c5e-3 -0.35226 0.58823-0.61444 0.65009-1.6709 0.0618-1.0553-0.15494-4.1197-1.9451-4.1129z" color="#000000" color-rendering="auto" dominant-baseline="auto" image-rendering="auto" solid-color="#000000" style="font-feature-settings:normal;font-variant-alternates:normal;font-variant-caps:normal;font-variant-ligatures:normal;font-variant-numeric:normal;font-variant-position:normal;isolation:auto;mix-blend-mode:normal;shape-padding:0;text-decoration-color:#000000;text-decoration-line:none;text-decoration-style:solid;text-indent:0;text-orientation:mixed;text-transform:none;white-space:normal"/>
    <path d="m43.392 151.03c-1.3799 0.0205-2.4823 0.77495-2.4629 2.1549v27.98c1.5794 0.50066 3.2446 0.80848 4.9687 0.89245 0.0215-0.14757 0.0338-0.30207 0.0315-0.46612v-9.2609c0-3.1026 4e-3 -19.115 0-19.145 0.0198-1.409-1.1283-2.1758-2.5373-2.1549z" color="#000000" color-rendering="auto" dominant-baseline="auto" image-rendering="auto" solid-color="#000000" style="font-feature-settings:normal;font-variant-alternates:normal;font-variant-caps:normal;font-variant-ligatures:normal;font-variant-numeric:normal;font-variant-position:normal;isolation:auto;mix-blend-mode:normal;shape-padding:0;text-decoration-color:#000000;text-decoration-line:none;text-decoration-style:solid;text-indent:0;text-orientation:mixed;text-transform:none;white-space:normal"/>
    <path d="m46.869 142.78c-10.857 1e-5 -19.662 8.8054-19.662 19.662 0 10.857 8.8054 19.662 19.662 19.662 10.857 0 19.662-8.8054 19.662-19.662 0-10.857-8.8054-19.662-19.662-19.662zm0 0.41016c10.635 0 19.252 8.6168 19.252 19.252s-8.6168 19.252-19.252 19.252c-10.635 0-19.252-8.6168-19.252-19.252s8.6168-19.252 19.252-19.252z" color="#000000" color-rendering="auto" dominant-baseline="auto" image-rendering="auto" solid-color="#000000" style="font-feature-settings:normal;font-variant-alternates:normal;font-variant-caps:normal;font-variant-ligatures:normal;font-variant-numeric:normal;font-variant-position:normal;isolation:auto;mix-blend-mode:normal;shape-padding:0;text-decoration-color:#000000;text-decoration-line:none;text-decoration-style:solid;text-indent:0;text-orientation:mixed;text-transform:none;white-space:normal"/>
   </g>
  </g>
 </g>
</svg>
