<?xml version="1.0" encoding="UTF-8" standalone="no"?>
<!-- Created with Inkscape (http://www.inkscape.org/) -->

<svg
   xmlns:dc="http://purl.org/dc/elements/1.1/"
   xmlns:cc="http://creativecommons.org/ns#"
   xmlns:rdf="http://www.w3.org/1999/02/22-rdf-syntax-ns#"
   xmlns:svg="http://www.w3.org/2000/svg"
   xmlns="http://www.w3.org/2000/svg"
   xmlns:sodipodi="http://sodipodi.sourceforge.net/DTD/sodipodi-0.dtd"
   xmlns:inkscape="http://www.inkscape.org/namespaces/inkscape"
   width="102.71719mm"
   height="29.532831mm"
   viewBox="0 0 102.71719 29.532831"
   version="1.1"
   id="svg926"
   sodipodi:docname="LasseKrarup_logo.svg"
   inkscape:version="0.92.4 (5da689c313, 2019-01-14)">
  <defs
     id="defs920" />
  <sodipodi:namedview
     id="base"
     pagecolor="#ffffff"
     bordercolor="#666666"
     borderopacity="1.0"
     inkscape:pageopacity="0.61568627"
     inkscape:pageshadow="2"
     inkscape:zoom="0.90509668"
     inkscape:cx="124.90053"
     inkscape:cy="74.017928"
     inkscape:document-units="mm"
     inkscape:current-layer="layer1"
     showgrid="false"
     inkscape:pagecheckerboard="true"
     showborder="true"
     inkscape:window-width="1366"
     inkscape:window-height="715"
     inkscape:window-x="0"
     inkscape:window-y="32"
     inkscape:window-maximized="1"
     fit-margin-top="0"
     fit-margin-left="0"
     fit-margin-right="0"
     fit-margin-bottom="0" />
  <metadata
     id="metadata923">
    <rdf:RDF>
      <cc:Work
         rdf:about="">
        <dc:format>image/svg+xml</dc:format>
        <dc:type
           rdf:resource="http://purl.org/dc/dcmitype/StillImage" />
        <dc:title></dc:title>
      </cc:Work>
    </rdf:RDF>
  </metadata>
  <g
     inkscape:label="Layer 1"
     inkscape:groupmode="layer"
     id="layer1"
     transform="translate(-58.089493,-116.92864)">
    <path
       inkscape:connector-curvature="0"
       style="color:#000000;font-style:normal;font-variant:normal;font-weight:normal;font-stretch:normal;font-size:medium;line-height:normal;font-family:sans-serif;font-variant-ligatures:normal;font-variant-position:normal;font-variant-caps:normal;font-variant-numeric:normal;font-variant-alternates:normal;font-feature-settings:normal;text-indent:0;text-align:start;text-decoration:none;text-decoration-line:none;text-decoration-style:solid;text-decoration-color:#000000;letter-spacing:normal;word-spacing:normal;text-transform:none;writing-mode:lr-tb;direction:ltr;text-orientation:mixed;dominant-baseline:auto;baseline-shift:baseline;text-anchor:start;white-space:normal;shape-padding:0;clip-rule:nonzero;display:inline;overflow:visible;visibility:visible;opacity:1;isolation:auto;mix-blend-mode:normal;color-interpolation:sRGB;color-interpolation-filters:linearRGB;solid-color:#000000;solid-opacity:1;vector-effect:none;fill:#000000;fill-opacity:1;fill-rule:nonzero;stroke:none;stroke-width:3.75502157;stroke-linecap:round;stroke-linejoin:bevel;stroke-miterlimit:4;stroke-dasharray:none;stroke-dashoffset:0;stroke-opacity:1;color-rendering:auto;image-rendering:auto;shape-rendering:auto;text-rendering:auto;enable-background:accumulate"
       d="m 75.509379,123.12626 c -1.37123,0.004 -2.07828,2.62128 -1.46077,3.84561 0.0716,0.1424 0.45705,-0.12968 0.46067,0.12928 l -0.94811,18.97657 c -0.002,0.12331 0.008,0.23907 0.0239,0.35005 1.28968,-0.0628 2.53517,-0.29237 3.71713,-0.66557 l -0.82002,-18.66105 c 0.004,-0.26453 0.42021,-0.0509 0.48819,-0.2152 0.51409,-1.24231 -0.11655,-3.76458 -1.46076,-3.75949 z"
       id="path867" />
    <path
       style="color:#000000;font-style:normal;font-variant:normal;font-weight:normal;font-stretch:normal;font-size:medium;line-height:normal;font-family:sans-serif;font-variant-ligatures:normal;font-variant-position:normal;font-variant-caps:normal;font-variant-numeric:normal;font-variant-alternates:normal;font-feature-settings:normal;text-indent:0;text-align:start;text-decoration:none;text-decoration-line:none;text-decoration-style:solid;text-decoration-color:#000000;letter-spacing:normal;word-spacing:normal;text-transform:none;writing-mode:lr-tb;direction:ltr;text-orientation:mixed;dominant-baseline:auto;baseline-shift:baseline;text-anchor:start;white-space:normal;shape-padding:0;clip-rule:nonzero;display:inline;overflow:visible;visibility:visible;opacity:1;isolation:auto;mix-blend-mode:normal;color-interpolation:sRGB;color-interpolation-filters:linearRGB;solid-color:#000000;solid-opacity:1;vector-effect:none;fill:#000000;fill-opacity:1;fill-rule:nonzero;stroke:none;stroke-width:3.75502157;stroke-linecap:round;stroke-linejoin:bevel;stroke-miterlimit:4;stroke-dasharray:none;stroke-dashoffset:0;stroke-opacity:1;color-rendering:auto;image-rendering:auto;shape-rendering:auto;text-rendering:auto;enable-background:accumulate"
       d="m 70.244529,123.12626 c -1.03633,0.0159 -1.86423,0.58199 -1.84963,1.61836 v 14.32837 6.68452 c 1.18617,0.3759 2.43671,0.60717 3.73148,0.67022 0.0159,-0.11098 0.0239,-0.22674 0.0239,-0.35005 v -6.95501 c 0,-2.33011 0.003,-14.35541 0,-14.37805 0.0159,-1.05817 -0.84735,-1.63403 -1.90552,-1.61836 z"
       id="path2536"
       inkscape:connector-curvature="0"
       sodipodi:nodetypes="ccccccscc" />
    <path
       inkscape:connector-curvature="0"
       style="opacity:1;fill:none;fill-opacity:1;stroke:#000000;stroke-width:0.30791181;stroke-linecap:round;stroke-linejoin:bevel;stroke-miterlimit:4;stroke-dasharray:none"
       d="m 87.468369,131.69506 a 14.612457,14.612457 0 0 1 -14.61246,14.61246 14.612457,14.612457 0 0 1 -14.61246,-14.61246 14.612457,14.612457 0 0 1 14.61246,-14.61246 14.612457,14.612457 0 0 1 14.61246,14.61246 z"
       id="path2497" />
    <g
       id="g1073"
       transform="matrix(0.75100435,0,0,0.75100435,208.27459,-14.466082)"
       style="opacity:0.8">
      <path
         d="m -154.82591,187.564 h -0.71385 v 13.90985 h 6.46543 l 0.12237,-0.67306 h -5.87395 z"
         style="font-style:normal;font-variant:normal;font-weight:200;font-stretch:normal;font-size:20.39567375px;line-height:1.25;font-family:'Fira Sans';-inkscape-font-specification:'Fira Sans Ultra-Light';letter-spacing:0px;word-spacing:0px;fill:#000000;fill-opacity:1;stroke:none;stroke-width:0.50989187"
         id="path948"
         inkscape:connector-curvature="0" />
      <path
         d="m -140.61909,199.20993 v -5.30288 c 0,-2.14154 -0.97899,-3.26331 -3.2837,-3.26331 -1.08097,0 -2.05996,0.26515 -3.12054,0.71385 l 0.18356,0.57108 c 1.04018,-0.40791 1.97838,-0.65266 2.89619,-0.65266 1.97838,0 2.63104,0.89741 2.63104,2.69223 v 1.18295 h -2.32511 c -2.52906,0 -4.2015,1.18295 -4.2015,3.38568 0,1.8968 1.20334,3.14093 3.22251,3.14093 1.50928,0 2.63104,-0.65266 3.38568,-1.89679 0.0612,1.16255 0.5099,1.67244 1.34612,1.89679 l 0.16316,-0.48949 c -0.61187,-0.24475 -0.89741,-0.61187 -0.89741,-1.97838 z m -3.95676,1.83561 c -1.55007,0 -2.52906,-0.91781 -2.52906,-2.52907 0,-1.856 1.36651,-2.77381 3.61003,-2.77381 h 2.18234 v 3.24291 c -0.69345,1.28493 -1.73363,2.05997 -3.26331,2.05997 z"
         style="font-style:normal;font-variant:normal;font-weight:200;font-stretch:normal;font-size:20.39567375px;line-height:1.25;font-family:'Fira Sans';-inkscape-font-specification:'Fira Sans Ultra-Light';letter-spacing:0px;word-spacing:0px;fill:#000000;fill-opacity:1;stroke:none;stroke-width:0.50989187"
         id="path950"
         inkscape:connector-curvature="0" />
      <path
         d="m -134.87646,190.64374 c -1.8764,0 -3.3245,1.10137 -3.3245,2.67184 0,1.48888 0.91781,2.20273 3.16133,2.7942 2.30471,0.63227 2.95738,1.16256 2.95738,2.61065 0,1.50928 -1.22375,2.32511 -2.8554,2.32511 -1.4277,0 -2.30471,-0.42831 -3.26331,-1.16256 l -0.40791,0.44871 c 0.9178,0.75464 1.97838,1.34611 3.67122,1.34611 2.08036,0 3.56924,-1.18295 3.56924,-2.97777 0,-1.77442 -0.9382,-2.48827 -3.34489,-3.14093 -2.01917,-0.53029 -2.77381,-1.04018 -2.77381,-2.22313 0,-1.26453 1.10137,-2.05996 2.65144,-2.05996 1.12176,0 1.8764,0.32633 2.8146,1.01978 l 0.38752,-0.4691 c -0.99939,-0.79543 -1.97838,-1.18295 -3.24291,-1.18295 z"
         style="font-style:normal;font-variant:normal;font-weight:200;font-stretch:normal;font-size:20.39567375px;line-height:1.25;font-family:'Fira Sans';-inkscape-font-specification:'Fira Sans Ultra-Light';letter-spacing:0px;word-spacing:0px;fill:#000000;fill-opacity:1;stroke:none;stroke-width:0.50989187"
         id="path952"
         inkscape:connector-curvature="0" />
      <path
         d="m -126.52319,190.64374 c -1.87641,0 -3.3245,1.10137 -3.3245,2.67184 0,1.48888 0.91781,2.20273 3.16133,2.7942 2.30471,0.63227 2.95737,1.16256 2.95737,2.61065 0,1.50928 -1.22374,2.32511 -2.85539,2.32511 -1.4277,0 -2.30471,-0.42831 -3.26331,-1.16256 l -0.40791,0.44871 c 0.9178,0.75464 1.97838,1.34611 3.67122,1.34611 2.08036,0 3.56924,-1.18295 3.56924,-2.97777 0,-1.77442 -0.9382,-2.48827 -3.34489,-3.14093 -2.01917,-0.53029 -2.77381,-1.04018 -2.77381,-2.22313 0,-1.26453 1.10137,-2.05996 2.65144,-2.05996 1.12176,0 1.8764,0.32633 2.8146,1.01978 l 0.38752,-0.4691 c -0.99939,-0.79543 -1.97838,-1.18295 -3.24291,-1.18295 z"
         style="font-style:normal;font-variant:normal;font-weight:200;font-stretch:normal;font-size:20.39567375px;line-height:1.25;font-family:'Fira Sans';-inkscape-font-specification:'Fira Sans Ultra-Light';letter-spacing:0px;word-spacing:0px;fill:#000000;fill-opacity:1;stroke:none;stroke-width:0.50989187"
         id="path954"
         inkscape:connector-curvature="0" />
      <path
         d="m -113.80525,195.70187 c 0,-3.03895 -1.30532,-5.05813 -3.97716,-5.05813 -2.48827,0 -4.11992,2.14155 -4.11992,5.60881 0,3.42648 1.69284,5.42525 4.36467,5.42525 1.36651,0 2.3659,-0.4691 3.3041,-1.26453 l -0.36712,-0.48949 c -0.9382,0.71384 -1.71324,1.12176 -2.93698,1.12176 -2.01917,0 -3.50806,-1.38691 -3.65082,-4.52784 h 7.34244 c 0.0204,-0.18356 0.0408,-0.50989 0.0408,-0.81583 z m -0.69345,0.22435 h -6.68978 c 0.10197,-3.24291 1.63165,-4.65021 3.44686,-4.65021 2.24353,0 3.24292,1.71324 3.24292,4.18111 z"
         style="font-style:normal;font-variant:normal;font-weight:200;font-stretch:normal;font-size:20.39567375px;line-height:1.25;font-family:'Fira Sans';-inkscape-font-specification:'Fira Sans Ultra-Light';letter-spacing:0px;word-spacing:0px;fill:#000000;fill-opacity:1;stroke:none;stroke-width:0.50989187"
         id="path956"
         inkscape:connector-curvature="0" />
    </g>
    <g
       style="opacity:1"
       id="g1092"
       transform="matrix(0.75100435,0,0,0.75100435,206.52746,-14.466082)">
      <path
         d="m -105.80021,187.564 h -0.71385 v 13.90985 h 0.71385 z m 7.097694,0 h -0.856619 l -6.179885,6.42463 6.48582,7.48522 h 0.877014 l -6.465424,-7.48522 z"
         style="font-style:normal;font-variant:normal;font-weight:200;font-stretch:normal;font-size:20.39567375px;line-height:1.25;font-family:'Fira Sans';-inkscape-font-specification:'Fira Sans Ultra-Light';letter-spacing:0px;word-spacing:0px;opacity:1;fill:#000000;fill-opacity:1;stroke:none;stroke-width:0.50989187"
         id="path958"
         inkscape:connector-curvature="0" />
      <path
         d="m -93.514044,190.64374 c -1.590863,0 -2.549459,0.91781 -3.120538,2.75342 l -0.04079,-2.52906 h -0.591474 v 10.60575 h 0.693453 v -6.77137 c 0.632266,-2.28431 1.468488,-3.42647 3.038955,-3.42647 0.346727,0 0.673057,0.0408 0.938201,0.12237 l 0.14277,-0.63226 c -0.244748,-0.0612 -0.591475,-0.12238 -1.060575,-0.12238 z"
         style="font-style:normal;font-variant:normal;font-weight:200;font-stretch:normal;font-size:20.39567375px;line-height:1.25;font-family:'Fira Sans';-inkscape-font-specification:'Fira Sans Ultra-Light';letter-spacing:0px;word-spacing:0px;opacity:1;fill:#000000;fill-opacity:1;stroke:none;stroke-width:0.50989187"
         id="path960"
         inkscape:connector-curvature="0" />
      <path
         d="m -84.919938,199.20993 v -5.30288 c 0,-2.14154 -0.978992,-3.26331 -3.283703,-3.26331 -1.080971,0 -2.059963,0.26515 -3.120538,0.71385 l 0.183561,0.57108 c 1.040179,-0.40791 1.97838,-0.65266 2.896185,-0.65266 1.978381,0 2.631042,0.89741 2.631042,2.69223 v 1.18295 h -2.325107 c -2.529063,0 -4.201508,1.18295 -4.201508,3.38568 0,1.8968 1.203344,3.14093 3.222516,3.14093 1.50928,0 2.631042,-0.65266 3.385682,-1.89679 0.06119,1.16255 0.509892,1.67244 1.346114,1.89679 l 0.163166,-0.48949 c -0.61187,-0.24475 -0.89741,-0.61187 -0.89741,-1.97838 z m -3.956761,1.83561 c -1.550071,0 -2.529063,-0.91781 -2.529063,-2.52907 0,-1.856 1.36651,-2.77381 3.610034,-2.77381 h 2.182337 v 3.24291 c -0.693453,1.28493 -1.733632,2.05997 -3.263308,2.05997 z"
         style="font-style:normal;font-variant:normal;font-weight:200;font-stretch:normal;font-size:20.39567375px;line-height:1.25;font-family:'Fira Sans';-inkscape-font-specification:'Fira Sans Ultra-Light';letter-spacing:0px;word-spacing:0px;opacity:1;fill:#000000;fill-opacity:1;stroke:none;stroke-width:0.50989187"
         id="path962"
         inkscape:connector-curvature="0" />
      <path
         d="m -79.21112,190.64374 c -1.590862,0 -2.549459,0.91781 -3.120538,2.75342 l -0.04079,-2.52906 h -0.591475 v 10.60575 h 0.693453 v -6.77137 c 0.632266,-2.28431 1.468489,-3.42647 3.038956,-3.42647 0.346726,0 0.673057,0.0408 0.938201,0.12237 l 0.142769,-0.63226 c -0.244748,-0.0612 -0.591474,-0.12238 -1.060575,-0.12238 z"
         style="font-style:normal;font-variant:normal;font-weight:200;font-stretch:normal;font-size:20.39567375px;line-height:1.25;font-family:'Fira Sans';-inkscape-font-specification:'Fira Sans Ultra-Light';letter-spacing:0px;word-spacing:0px;opacity:1;fill:#000000;fill-opacity:1;stroke:none;stroke-width:0.50989187"
         id="path964"
         inkscape:connector-curvature="0" />
      <path
         d="m -69.807439,190.8681 h -0.693453 v 7.77075 c -0.815827,1.4073 -1.856006,2.40669 -3.426473,2.40669 -1.570467,0 -2.427085,-0.81583 -2.427085,-2.67184 v -7.5056 h -0.693453 v 7.56679 c 0,2.10076 1.101366,3.24291 3.01856,3.24291 1.733632,0 2.896185,-1.01978 3.589638,-2.26392 l 0.0204,2.05997 h 0.61187 z"
         style="font-style:normal;font-variant:normal;font-weight:200;font-stretch:normal;font-size:20.39567375px;line-height:1.25;font-family:'Fira Sans';-inkscape-font-specification:'Fira Sans Ultra-Light';letter-spacing:0px;word-spacing:0px;opacity:1;fill:#000000;fill-opacity:1;stroke:none;stroke-width:0.50989187"
         id="path966"
         inkscape:connector-curvature="0" />
      <path
         d="m -64.673093,190.64374 c -1.468488,0 -2.590251,0.77504 -3.365286,1.81522 l -0.06119,-1.59086 h -0.591475 v 14.68488 l 0.693453,-0.12237 v -5.40486 c 0.632266,0.89741 1.713237,1.65205 3.181725,1.65205 2.569855,0 3.936365,-2.14154 3.936365,-5.58841 0,-3.50806 -1.325718,-5.44565 -3.793595,-5.44565 z m -0.183561,10.4018 c -1.386906,0 -2.40669,-0.75464 -3.140934,-1.83561 v -5.97594 c 0.856619,-1.16255 1.774424,-1.95798 3.283704,-1.95798 2.039567,0 3.120538,1.61126 3.120538,4.81338 0,3.22252 -1.142158,4.95615 -3.263308,4.95615 z"
         style="font-style:normal;font-variant:normal;font-weight:200;font-stretch:normal;font-size:20.39567375px;line-height:1.25;font-family:'Fira Sans';-inkscape-font-specification:'Fira Sans Ultra-Light';letter-spacing:0px;word-spacing:0px;opacity:1;fill:#000000;fill-opacity:1;stroke:none;stroke-width:0.50989187"
         id="path968"
         inkscape:connector-curvature="0" />
    </g>
  </g>
</svg>
