<?xml version="1.0" encoding="UTF-8"?>
<!-- Created with Inkscape (http://www.inkscape.org/) -->
<svg width="39.324mm" height="39.324mm" version="1.1" viewBox="0 0 39.324 39.324" xmlns="http://www.w3.org/2000/svg" xmlns:cc="http://creativecommons.org/ns#" xmlns:dc="http://purl.org/dc/elements/1.1/" xmlns:rdf="http://www.w3.org/1999/02/22-rdf-syntax-ns#">
 <metadata>
  <rdf:RDF>
   <cc:Work rdf:about="">
    <dc:format>image/svg+xml</dc:format>
    <dc:type rdf:resource="http://purl.org/dc/dcmitype/StillImage"/>
    <dc:title/>
   </cc:Work>
  </rdf:RDF>
 </metadata>
 <g transform="translate(236.62 -77.766)">
  <path d="m-213.43 86.019c-1.8258 7e-3 -2.7673 3.4904-1.9451 5.1206 0.0956 0.18961 0.60855-0.17287 0.6134 0.17208l-1.2624 25.268c-2e-3 0.16405 0.01 0.31855 0.0315 0.46612 1.7173-0.0836 3.3757-0.3891 4.9496-0.88625l-1.0919-24.848c5e-3 -0.35226 0.55953-0.0679 0.65009-0.2868 0.68449-1.6541-0.15494-5.0127-1.9451-5.0059z" color="#000000" color-rendering="auto" dominant-baseline="auto" image-rendering="auto" opacity=".7" shape-rendering="auto" solid-color="#000000" style="font-feature-settings:normal;font-variant-alternates:normal;font-variant-caps:normal;font-variant-ligatures:normal;font-variant-numeric:normal;font-variant-position:normal;isolation:auto;mix-blend-mode:normal;shape-padding:0;text-decoration-color:#000000;text-decoration-line:none;text-decoration-style:solid;text-indent:0;text-orientation:mixed;text-transform:none;white-space:normal"/>
  <path d="m-220.44 86.019c-1.3799 0.0205-2.4823 0.77495-2.4629 2.1549v27.98c1.5794 0.50066 3.2446 0.80848 4.9687 0.89245 0.0215-0.14757 0.0338-0.30207 0.0315-0.46612v-9.2609c0-3.1026 4e-3 -19.115 0-19.145 0.0198-1.409-1.1283-2.1758-2.5373-2.1549z" color="#000000" color-rendering="auto" dominant-baseline="auto" image-rendering="auto" opacity=".7" shape-rendering="auto" solid-color="#000000" style="font-feature-settings:normal;font-variant-alternates:normal;font-variant-caps:normal;font-variant-ligatures:normal;font-variant-numeric:normal;font-variant-position:normal;isolation:auto;mix-blend-mode:normal;shape-padding:0;text-decoration-color:#000000;text-decoration-line:none;text-decoration-style:solid;text-indent:0;text-orientation:mixed;text-transform:none;white-space:normal"/>
  <path d="m-197.5 97.429a19.457 19.457 0 0 1-19.457 19.457 19.457 19.457 0 0 1-19.457-19.457 19.457 19.457 0 0 1 19.457-19.457 19.457 19.457 0 0 1 19.457 19.457z" fill="none" opacity=".7" stroke="#000" stroke-linecap="round" stroke-linejoin="bevel" stroke-width=".41"/>
 </g>
</svg>
