<?xml version="1.0" encoding="UTF-8"?>
<!-- Created with Inkscape (http://www.inkscape.org/) -->
<svg width="102.72mm" height="29.533mm" version="1.1" viewBox="0 0 102.72 29.533" xmlns="http://www.w3.org/2000/svg" xmlns:cc="http://creativecommons.org/ns#" xmlns:dc="http://purl.org/dc/elements/1.1/" xmlns:rdf="http://www.w3.org/1999/02/22-rdf-syntax-ns#">
 <metadata>
  <rdf:RDF>
   <cc:Work rdf:about="">
    <dc:format>image/svg+xml</dc:format>
    <dc:type rdf:resource="http://purl.org/dc/dcmitype/StillImage"/>
    <dc:title/>
   </cc:Work>
  </rdf:RDF>
 </metadata>
 <g transform="translate(-58.089 -116.93)" fill="#fff">
  <g shape-rendering="auto">
   <path d="m75.509 123.13c-1.3712 4e-3 -2.0783 2.6213-1.4608 3.8456 0.0716 0.1424 0.45705-0.12968 0.46067 0.12928l-0.94811 18.977c-2e-3 0.12331 8e-3 0.23907 0.0239 0.35005 1.2897-0.0628 2.5352-0.29237 3.7171-0.66557l-0.82002-18.661c4e-3 -0.26453 0.42021-0.0509 0.48819-0.2152 0.51409-1.2423-0.11655-3.7646-1.4608-3.7595z" color="#000000" color-rendering="auto" dominant-baseline="auto" image-rendering="auto" solid-color="#000000" style="font-feature-settings:normal;font-variant-alternates:normal;font-variant-caps:normal;font-variant-ligatures:normal;font-variant-numeric:normal;font-variant-position:normal;isolation:auto;mix-blend-mode:normal;shape-padding:0;text-decoration-color:#000000;text-decoration-line:none;text-decoration-style:solid;text-indent:0;text-orientation:mixed;text-transform:none;white-space:normal"/>
   <path d="m70.245 123.13c-1.0363 0.0159-1.8642 0.58199-1.8496 1.6184v21.013c1.1862 0.3759 2.4367 0.60717 3.7315 0.67022 0.0159-0.11098 0.0239-0.22674 0.0239-0.35005v-6.955c0-2.3301 3e-3 -14.355 0-14.378 0.0159-1.0582-0.84735-1.634-1.9055-1.6184z" color="#000000" color-rendering="auto" dominant-baseline="auto" image-rendering="auto" solid-color="#000000" style="font-feature-settings:normal;font-variant-alternates:normal;font-variant-caps:normal;font-variant-ligatures:normal;font-variant-numeric:normal;font-variant-position:normal;isolation:auto;mix-blend-mode:normal;shape-padding:0;text-decoration-color:#000000;text-decoration-line:none;text-decoration-style:solid;text-indent:0;text-orientation:mixed;text-transform:none;white-space:normal"/>
   <path d="m72.855 116.93c-8.1534 0-14.766 6.6141-14.766 14.768-2e-6 8.1534 6.6122 14.766 14.766 14.766 8.1534 0 14.768-6.6122 14.768-14.766 2e-6 -8.1534-6.6141-14.768-14.768-14.768zm0 0.3086c7.987 0 14.459 6.472 14.459 14.459 2e-6 7.987-6.4719 14.459-14.459 14.459-7.987 0-14.459-6.472-14.459-14.459-1e-6 -7.987 6.4719-14.459 14.459-14.459z" color="#000000" color-rendering="auto" dominant-baseline="auto" image-rendering="auto" solid-color="#000000" style="font-feature-settings:normal;font-variant-alternates:normal;font-variant-caps:normal;font-variant-ligatures:normal;font-variant-numeric:normal;font-variant-position:normal;isolation:auto;mix-blend-mode:normal;shape-padding:0;text-decoration-color:#000000;text-decoration-line:none;text-decoration-style:solid;text-indent:0;text-orientation:mixed;text-transform:none;white-space:normal"/>
  </g>
  <g transform="matrix(.751 0 0 .751 208.27 -14.466)" opacity=".8">
   <path d="m-154.83 187.56h-0.71385v13.91h6.4654l0.12237-0.67306h-5.874z"/>
   <path d="m-140.62 199.21v-5.3029c0-2.1415-0.97899-3.2633-3.2837-3.2633-1.081 0-2.06 0.26515-3.1205 0.71385l0.18356 0.57108c1.0402-0.40791 1.9784-0.65266 2.8962-0.65266 1.9784 0 2.631 0.89741 2.631 2.6922v1.183h-2.3251c-2.5291 0-4.2015 1.183-4.2015 3.3857 0 1.8968 1.2033 3.1409 3.2225 3.1409 1.5093 0 2.631-0.65266 3.3857-1.8968 0.0612 1.1626 0.5099 1.6724 1.3461 1.8968l0.16316-0.48949c-0.61187-0.24475-0.89741-0.61187-0.89741-1.9784zm-3.9568 1.8356c-1.5501 0-2.5291-0.91781-2.5291-2.5291 0-1.856 1.3665-2.7738 3.61-2.7738h2.1823v3.2429c-0.69345 1.2849-1.7336 2.06-3.2633 2.06z"/>
   <path d="m-134.88 190.64c-1.8764 0-3.3245 1.1014-3.3245 2.6718 0 1.4889 0.91781 2.2027 3.1613 2.7942 2.3047 0.63227 2.9574 1.1626 2.9574 2.6106 0 1.5093-1.2238 2.3251-2.8554 2.3251-1.4277 0-2.3047-0.42831-3.2633-1.1626l-0.40791 0.44871c0.9178 0.75464 1.9784 1.3461 3.6712 1.3461 2.0804 0 3.5692-1.183 3.5692-2.9778 0-1.7744-0.9382-2.4883-3.3449-3.1409-2.0192-0.53029-2.7738-1.0402-2.7738-2.2231 0-1.2645 1.1014-2.06 2.6514-2.06 1.1218 0 1.8764 0.32633 2.8146 1.0198l0.38752-0.4691c-0.99939-0.79543-1.9784-1.183-3.2429-1.183z"/>
   <path d="m-126.52 190.64c-1.8764 0-3.3245 1.1014-3.3245 2.6718 0 1.4889 0.91781 2.2027 3.1613 2.7942 2.3047 0.63227 2.9574 1.1626 2.9574 2.6106 0 1.5093-1.2237 2.3251-2.8554 2.3251-1.4277 0-2.3047-0.42831-3.2633-1.1626l-0.40791 0.44871c0.9178 0.75464 1.9784 1.3461 3.6712 1.3461 2.0804 0 3.5692-1.183 3.5692-2.9778 0-1.7744-0.9382-2.4883-3.3449-3.1409-2.0192-0.53029-2.7738-1.0402-2.7738-2.2231 0-1.2645 1.1014-2.06 2.6514-2.06 1.1218 0 1.8764 0.32633 2.8146 1.0198l0.38752-0.4691c-0.99939-0.79543-1.9784-1.183-3.2429-1.183z"/>
   <path d="m-113.81 195.7c0-3.039-1.3053-5.0581-3.9772-5.0581-2.4883 0-4.1199 2.1416-4.1199 5.6088 0 3.4265 1.6928 5.4252 4.3647 5.4252 1.3665 0 2.3659-0.4691 3.3041-1.2645l-0.36712-0.48949c-0.9382 0.71384-1.7132 1.1218-2.937 1.1218-2.0192 0-3.5081-1.3869-3.6508-4.5278h7.3424c0.0204-0.18356 0.0408-0.50989 0.0408-0.81583zm-0.69345 0.22435h-6.6898c0.10197-3.2429 1.6316-4.6502 3.4469-4.6502 2.2435 0 3.2429 1.7132 3.2429 4.1811z"/>
  </g>
  <g transform="matrix(.751 0 0 .751 206.53 -14.466)">
   <path d="m-105.8 187.56h-0.71385v13.91h0.71385zm7.0977 0h-0.85662l-6.1799 6.4246 6.4858 7.4852h0.87701l-6.4654-7.4852z"/>
   <path d="m-93.514 190.64c-1.5909 0-2.5495 0.91781-3.1205 2.7534l-0.04079-2.5291h-0.59147v10.606h0.69345v-6.7714c0.63227-2.2843 1.4685-3.4265 3.039-3.4265 0.34673 0 0.67306 0.0408 0.9382 0.12237l0.14277-0.63226c-0.24475-0.0612-0.59148-0.12238-1.0606-0.12238z"/>
   <path d="m-84.92 199.21v-5.3029c0-2.1415-0.97899-3.2633-3.2837-3.2633-1.081 0-2.06 0.26515-3.1205 0.71385l0.18356 0.57108c1.0402-0.40791 1.9784-0.65266 2.8962-0.65266 1.9784 0 2.631 0.89741 2.631 2.6922v1.183h-2.3251c-2.5291 0-4.2015 1.183-4.2015 3.3857 0 1.8968 1.2033 3.1409 3.2225 3.1409 1.5093 0 2.631-0.65266 3.3857-1.8968 0.06119 1.1626 0.50989 1.6724 1.3461 1.8968l0.16317-0.48949c-0.61187-0.24475-0.89741-0.61187-0.89741-1.9784zm-3.9568 1.8356c-1.5501 0-2.5291-0.91781-2.5291-2.5291 0-1.856 1.3665-2.7738 3.61-2.7738h2.1823v3.2429c-0.69345 1.2849-1.7336 2.06-3.2633 2.06z"/>
   <path d="m-79.211 190.64c-1.5909 0-2.5495 0.91781-3.1205 2.7534l-0.04079-2.5291h-0.59148v10.606h0.69345v-6.7714c0.63227-2.2843 1.4685-3.4265 3.039-3.4265 0.34673 0 0.67306 0.0408 0.9382 0.12237l0.14277-0.63226c-0.24475-0.0612-0.59147-0.12238-1.0606-0.12238z"/>
   <path d="m-69.807 190.87h-0.69345v7.7708c-0.81583 1.4073-1.856 2.4067-3.4265 2.4067s-2.4271-0.81583-2.4271-2.6718v-7.5056h-0.69345v7.5668c0 2.1008 1.1014 3.2429 3.0186 3.2429 1.7336 0 2.8962-1.0198 3.5896-2.2639l0.0204 2.06h0.61187z"/>
   <path d="m-64.673 190.64c-1.4685 0-2.5903 0.77504-3.3653 1.8152l-0.06119-1.5909h-0.59148v14.685l0.69345-0.12237v-5.4049c0.63227 0.89741 1.7132 1.652 3.1817 1.652 2.5699 0 3.9364-2.1415 3.9364-5.5884 0-3.5081-1.3257-5.4456-3.7936-5.4456zm-0.18356 10.402c-1.3869 0-2.4067-0.75464-3.1409-1.8356v-5.9759c0.85662-1.1626 1.7744-1.958 3.2837-1.958 2.0396 0 3.1205 1.6113 3.1205 4.8134 0 3.2225-1.1422 4.9562-3.2633 4.9562z"/>
  </g>
 </g>
</svg>
