<?xml version="1.0" encoding="UTF-8" standalone="no"?>
<!-- Created with Inkscape (http://www.inkscape.org/) -->

<svg
   xmlns:dc="http://purl.org/dc/elements/1.1/"
   xmlns:cc="http://creativecommons.org/ns#"
   xmlns:rdf="http://www.w3.org/1999/02/22-rdf-syntax-ns#"
   xmlns:svg="http://www.w3.org/2000/svg"
   xmlns="http://www.w3.org/2000/svg"
   xmlns:sodipodi="http://sodipodi.sourceforge.net/DTD/sodipodi-0.dtd"
   xmlns:inkscape="http://www.inkscape.org/namespaces/inkscape"
   width="60.481mm"
   height="45.535mm"
   version="1.1"
   viewBox="0 0 60.481 45.535"
   id="svg3187"
   sodipodi:docname="logo-process-2.svg"
   inkscape:version="0.92.4 5da689c313, 2019-01-14">
  <defs
     id="defs3191" />
  <sodipodi:namedview
     pagecolor="#ffffff"
     bordercolor="#666666"
     borderopacity="1"
     objecttolerance="10"
     gridtolerance="10"
     guidetolerance="10"
     inkscape:pageopacity="0"
     inkscape:pageshadow="2"
     inkscape:window-width="1920"
     inkscape:window-height="1023"
     id="namedview3189"
     showgrid="false"
     inkscape:pagecheckerboard="true"
     inkscape:zoom="2.729783"
     inkscape:cx="106.31072"
     inkscape:cy="71.076045"
     inkscape:window-x="0"
     inkscape:window-y="36"
     inkscape:window-maximized="1"
     inkscape:current-layer="svg3187" />
  <metadata
     id="metadata3133">
    <rdf:RDF>
      <cc:Work
         rdf:about="">
        <dc:format>image/svg+xml</dc:format>
        <dc:type
           rdf:resource="http://purl.org/dc/dcmitype/StillImage" />
        <dc:title></dc:title>
      </cc:Work>
    </rdf:RDF>
  </metadata>
  <g
     transform="translate(138.87 -20.705)"
     id="g3185"
     style="fill:#ffffff">
    <g
       transform="matrix(.76261 0 0 .76261 -35.993 -18.289)"
       id="g3183"
       style="fill:#ffffff">
      <path
         d="m-92.369 84.485-0.67162-0.67162-1.8126 1.7078 0.042-5.5868h-1.0031l0.0105 5.6077-1.6553-1.7288-0.67154 0.67162 2.8733 2.8733v0.01508l8e-3 -0.0075 7e-3 0.0075v-0.01508z"
         color="#000000"
         color-rendering="auto"
         dominant-baseline="auto"
         image-rendering="auto"
         opacity=".582"
         shape-rendering="auto"
         solid-color="#000000"
         style="font-feature-settings:normal;font-variant-alternates:normal;font-variant-caps:normal;font-variant-ligatures:normal;font-variant-numeric:normal;font-variant-position:normal;isolation:auto;mix-blend-mode:normal;shape-padding:0;text-decoration-color:#000000;text-decoration-line:none;text-decoration-style:solid;text-indent:0;text-orientation:mixed;text-transform:none;white-space:normal;fill:#ffffff"
         id="path3135" />
      <g
         transform="matrix(.035898 0 0 .035898 7.1828 4.3141)"
         id="g3169"
         style="fill:#ffffff">
        <g
           shape-rendering="auto"
           id="g3143"
           style="fill:#ffffff">
          <path
             d="m-3449.3 1529.8-18.709 18.709 47.573 50.494-155.63-1.1694v27.942l156.21-0.2925-48.157 46.111 18.709 18.707 80.041-80.041h0.4202l-0.2104-0.2098 0.2104-0.2103h-0.4202z"
             color="#000000"
             color-rendering="auto"
             dominant-baseline="auto"
             image-rendering="auto"
             opacity=".582"
             solid-color="#000000"
             style="font-feature-settings:normal;font-variant-alternates:normal;font-variant-caps:normal;font-variant-ligatures:normal;font-variant-numeric:normal;font-variant-position:normal;isolation:auto;mix-blend-mode:normal;shape-padding:0;text-decoration-color:#000000;text-decoration-line:none;text-decoration-style:solid;text-indent:0;text-orientation:mixed;text-transform:none;white-space:normal;fill:#ffffff"
             id="path3137" />
          <path
             d="m-2733.5 1529.8-18.709 18.709 47.573 50.494-155.63-1.1694v27.942l156.21-0.2925-48.157 46.111 18.709 18.707 80.041-80.041h0.4202l-0.2104-0.2098 0.2104-0.2103h-0.4202z"
             color="#000000"
             color-rendering="auto"
             dominant-baseline="auto"
             image-rendering="auto"
             opacity=".582"
             solid-color="#000000"
             style="font-feature-settings:normal;font-variant-alternates:normal;font-variant-caps:normal;font-variant-ligatures:normal;font-variant-numeric:normal;font-variant-position:normal;isolation:auto;mix-blend-mode:normal;shape-padding:0;text-decoration-color:#000000;text-decoration-line:none;text-decoration-style:solid;text-indent:0;text-orientation:mixed;text-transform:none;white-space:normal;fill:#ffffff"
             id="path3139" />
          <path
             d="m-3830.6 1304.3c-0.06 0.055-0.1127 0.5485-0.161 1.2936l-3.6724 5.6124c-1.6412 4.2996-1.8765 39.855-2.7237 78.698-0.8475 38.843-1.6287 74.754-2.4464 75.611-1.6352 1.7135-3.3934 3.817-5.2232 5.9697-3.66 4.3057-8.6199 8.7626-10.438 9.7118-20.179 10.535-32.428 11.663-46.764 25.413-9.0091 8.642-18.145 19.999-22.612 35.192-6.4366 21.894-7.9092 49.163-2.0819 70.792 1.998 7.4152 5.2 14.946 7.7705 22.222 2.5709 7.2756 4.3702 14.215 4.259 19.187-0.1513 6.7619-1.3354 14.159-3.7428 20.257-2.4074 6.098-5.8877 10.897-11.088 13.426l-0.1631 0.08-0.1576 0.099c-14.796 9.1677-22.516 29.121-25.2 48.504v0.046c-4.7894 36.192-4.6125 75.162 5.7485 110.44 8.4045 29.508 29.866 49.855 53.382 52.602h0.063c20.948 2.0192 41.756 0.6281 62.256 1.0325l0.5654 0.012v15.325h4.8809v-15.311l1.2477-0.024c20.5-0.4044 41.309 0.9866 62.257-1.0326h0.063c23.516-2.7473 44.977-23.094 53.382-52.602 10.361-35.278 10.538-74.248 5.7482-110.44v-0.046c-2.6834-19.383-10.404-39.337-25.199-48.504l-0.1583-0.099-0.1624-0.08c-5.2008-2.529-8.6818-7.3277-11.089-13.426-2.4063-6.0976-3.5911-13.495-3.7428-20.257-0.1114-4.972 1.6892-11.911 4.2601-19.187 2.5706-7.276 5.7713-14.807 7.7694-22.222 5.8278-21.629 4.3557-48.898-2.081-70.792-4.4666-15.193-13.603-26.55-22.613-35.192-14.335-13.75-26.585-14.878-46.764-25.413-1.8188-0.9492-6.779-5.4063-10.439-9.7119-1.8298-2.1527-3.5885-4.2562-5.2235-5.9695-0.8173-0.857-1.5986-36.768-2.4461-75.611-0.8475-38.842-1.0828-74.398-2.7241-78.698l-3.6714-5.6125c-0.048-0.7449-0.1016-1.2384-0.1619-1.2936v0.014c-0.018-0.016-0.035 6e-4 -0.055 0.05l-0.2956 0.4525-0.296-0.4525c-0.02-0.05-0.039-0.065-0.058-0.05zm-9.5867 170.16h3.0764v341.57h2.3131v-341.57h3.076v341.57h2.261v-341.57h3.0767v341.57h2.4163v-341.57h3.076v341.57h4.6813s0.6425 6.3249-0.3443 11.542c-0.6932 3.6639-10.352 17.834-5.6605 42.638h-16.566c4.6146-24.396-4.968-38.974-5.6609-42.638-0.987-5.2176-0.3439-11.542-0.3439-11.542h4.5992zm31.806 191.18v0.012c0.077 0 0.1528-2e-4 0.2294 0.014v-0.014c1.0706 0.049 2.1334 0.5724 3.0561 1.5331 7.5368 10.114 14.24 24.571 14.766 41.833 0.6142 10.777-1.8806 21.272-1.2877 32.064 0.8935 10.8 6.0213 18.398 10.68 24.638 2.2127 2.5966 4.9633 5.6118 5.0609 10.867 0.4314 8.2605-5.3749 13.943-9.2934 9.8693-7.7196-9.0905-15.498-20.765-18.065-37.106-1.9549-11.582-0.023-23.386 0.5309-35.02 0.5125-8.7377-1.8791-17.159-5.3428-23.2-1.834-4.0713-4.876-6.3692-6.0303-11.318-1.5908-6.4749 1.5463-14.108 5.4658-14.15 0.076-0.015 0.1528-0.014 0.2294-0.014zm-43.736 0.012c0.077 0 0.1529-2e-4 0.2294 0.014 3.9192 0.042 7.0564 7.6751 5.4658 14.15-1.1545 4.9491-4.1963 7.2469-6.0301 11.318-3.4641 6.0412-5.8554 14.463-5.3428 23.2 0.554 11.634 2.4858 23.439 0.5305 35.02-2.5665 16.341-10.345 28.016-18.064 37.106-3.9184 4.0731-9.7248-1.6089-9.2932-9.8694 0.097-5.2555 2.8481-8.2707 5.0609-10.867 4.6587-6.2399 9.7865-13.838 10.68-24.638 0.5924-10.792-1.9023-21.287-1.2879-32.064 0.525-17.262 7.2293-31.719 14.766-41.833 0.9219-0.9608 1.9852-1.4845 3.0563-1.5332v0.015c0.076-0.015 0.1527-0.015 0.2292-0.015zm25.733 157.49v2.3579h-3.0767v-2.1464a2.0704 2.9329 0 0 0-0.061 0.1139 2.0704 2.9329 0 0 0-0.059 0.1176 2.0704 2.9329 0 0 0-0.057 0.1302 2.0704 2.9329 0 0 0-0.048 0.12 2.0704 2.9329 0 0 0-0.047 0.1366 2.0704 2.9329 0 0 0-0.042 0.133 2.0704 2.9329 0 0 0-0.034 0.1338 2.0704 2.9329 0 0 0-0.033 0.1423 2.0704 2.9329 0 0 0-0.024 0.141 2.0704 2.9329 0 0 0-0.022 0.1424 2.0704 2.9329 0 0 0-0.017 0.1495 2.0704 2.9329 0 0 0-0.014 0.1395 2.0704 2.9329 0 0 0-0.013 0.2517 2.0704 2.9329 0 0 0 0 0.021 2.0704 2.9329 0 0 0 0.013 0.2307 2.0704 2.9329 0 0 0 0.014 0.1425 2.0704 2.9329 0 0 0 0.017 0.1474 2.0704 2.9329 0 0 0 0.023 0.1445 2.0704 2.9329 0 0 0 0.024 0.1395 2.0704 2.9329 0 0 0 0.033 0.1423 2.0704 2.9329 0 0 0 0.035 0.1338 2.0704 2.9329 0 0 0 0.043 0.1374 2.0704 2.9329 0 0 0 0.044 0.1272 2.0704 2.9329 0 0 0 0.053 0.1317 2.0704 2.9329 0 0 0 0.053 0.1212 2.0704 2.9329 0 0 0 0.061 0.1225 2.0704 2.9329 0 0 0 0.06 0.1114 2.0704 2.9329 0 0 0 0.072 0.1151 2.0704 2.9329 0 0 0 0.068 0.1029 2.0704 2.9329 0 0 0 0.076 0.099 2.0704 2.9329 0 0 0 0.08 0.098 2.0704 2.9329 0 0 0 0.083 0.089 2.0704 2.9329 0 0 0 0.083 0.085 2.0704 2.9329 0 0 0 0.088 0.076 2.0704 2.9329 0 0 0 0.092 0.073 2.0704 2.9329 0 0 0 0.092 0.062 2.0704 2.9329 0 0 0 0.097 0.06 2.0704 2.9329 0 0 0 0.097 0.05 2.0704 2.9329 0 0 0 0.097 0.047 2.0704 2.9329 0 0 0 0.1078 0.039 2.0704 2.9329 0 0 0 0.094 0.031 2.0704 2.9329 0 0 0 0.1053 0.023 2.0704 2.9329 0 0 0 0.098 0.016 2.0704 2.9329 0 0 0 0.1776 0.014 2.0704 2.9329 0 0 0 0.1771-0.014 2.0704 2.9329 0 0 0 0.1004-0.016 2.0704 2.9329 0 0 0 0.1041-0.022 2.0704 2.9329 0 0 0 0.097-0.031 2.0704 2.9329 0 0 0 0.1041-0.037 2.0704 2.9329 0 0 0 0.099-0.047 2.0704 2.9329 0 0 0 0.093-0.049 2.0704 2.9329 0 0 0 0.1004-0.064 2.0704 2.9329 0 0 0 0.086-0.059 2.0704 2.9329 0 0 0 0.095-0.077 2.0704 2.9329 0 0 0 0.083-0.071 2.0704 2.9329 0 0 0 0.088-0.091 2.0704 2.9329 0 0 0 0.077-0.083 2.0704 2.9329 0 0 0 0.084-0.1053 2.0704 2.9329 0 0 0 0.069-0.091 2.0704 2.9329 0 0 0 0.073-0.1126 2.0704 2.9329 0 0 0 0.067-0.1066 2.0704 2.9329 0 0 0 0.065-0.1229 2.0704 2.9329 0 0 0 0.055-0.1102 2.0704 2.9329 0 0 0 0.059-0.1339 2.0704 2.9329 0 0 0 0.048-0.1212 2.0704 2.9329 0 0 0 0.048-0.136 2.0704 2.9329 0 0 0 0.04-0.1294 2.0704 2.9329 0 0 0 0.037-0.1431 2.0704 2.9329 0 0 0 0.031-0.1337 2.0704 2.9329 0 0 0 0.027-0.1438 2.0704 2.9329 0 0 0 0.022-0.1424 2.0704 2.9329 0 0 0 0.015-0.1432 2.0704 2.9329 0 0 0 0.015-0.1495 2.0704 2.9329 0 0 0 0.013-0.2481 2.0704 2.9329 0 0 0-0.013-0.2467 2.0704 2.9329 0 0 0-0.015-0.1581 2.0704 2.9329 0 0 0-0.014-0.1309 2.0704 2.9329 0 0 0-0.023-0.1503 2.0704 2.9329 0 0 0-0.026-0.1394 2.0704 2.9329 0 0 0-0.031-0.131 2.0704 2.9329 0 0 0-0.039-0.1458 2.0704 2.9329 0 0 0-0.04-0.1309 2.0704 2.9329 0 0 0-0.044-0.1309 2.0704 2.9329 0 0 0-0.053-0.1295 2.0704 2.9329 0 0 0-0.054-0.1237 2.0704 2.9329 0 0 0-0.061-0.12 2.0704 2.9329 0 0 0-0.06-0.1139 2.0704 2.9329 0 0 0-0.071-0.1151 2.0704 2.9329 0 0 0-0.061-0.094zm2.4163 0.05a2.0704 2.9329 0 0 0-0.037 0.056 2.0704 2.9329 0 0 0-0.067 0.1102 2.0704 2.9329 0 0 0-0.062 0.1164 2.0704 2.9329 0 0 0-0.059 0.1175 2.0704 2.9329 0 0 0-0.056 0.1296 2.0704 2.9329 0 0 0-0.05 0.1225 2.0704 2.9329 0 0 0-0.047 0.1365 2.0704 2.9329 0 0 0-0.04 0.1295 2.0704 2.9329 0 0 0-0.035 0.1424 2.0704 2.9329 0 0 0-0.031 0.1337 2.0704 2.9329 0 0 0-0.026 0.141 2.0704 2.9329 0 0 0-0.023 0.1495 2.0704 2.9329 0 0 0-0.015 0.1324 2.0704 2.9329 0 0 0-0.014 0.1576 2.0704 2.9329 0 0 0-0.013 0.2464 2.0704 2.9329 0 0 0 0.013 0.2475 2.0704 2.9329 0 0 0 0.014 0.1574 2.0704 2.9329 0 0 0 0.015 0.1322 2.0704 2.9329 0 0 0 0.023 0.1518 2.0704 2.9329 0 0 0 0.023 0.1353 2.0704 2.9329 0 0 0 0.034 0.1394 2.0704 2.9329 0 0 0 0.037 0.1403 2.0704 2.9329 0 0 0 0.042 0.1315 2.0704 2.9329 0 0 0 0.044 0.1311 2.0704 2.9329 0 0 0 0.054 0.1293 2.0704 2.9329 0 0 0 0.053 0.1243 2.0704 2.9329 0 0 0 0.06 0.1189 2.0704 2.9329 0 0 0 0.062 0.1162 2.0704 2.9329 0 0 0 0.067 0.1066 2.0704 2.9329 0 0 0 0.075 0.1115 2.0704 2.9329 0 0 0 0.071 0.094 2.0704 2.9329 0 0 0 0.081 0.1005 2.0704 2.9329 0 0 0 0.081 0.088 2.0704 2.9329 0 0 0 0.085 0.084 2.0704 2.9329 0 0 0 0.088 0.077 2.0704 2.9329 0 0 0 0.091 0.072 2.0704 2.9329 0 0 0 0.092 0.062 2.0704 2.9329 0 0 0 0.096 0.06 2.0704 2.9329 0 0 0 0.098 0.05 2.0704 2.9329 0 0 0 0.095 0.047 2.0704 2.9329 0 0 0 0.1066 0.039 2.0704 2.9329 0 0 0 0.095 0.031 2.0704 2.9329 0 0 0 0.1053 0.024 2.0704 2.9329 0 0 0 0.098 0.016 2.0704 2.9329 0 0 0 0.1776 0.014 2.0704 2.9329 0 0 0 0.1747-0.014 2.0704 2.9329 0 0 0 0.1102-0.02 2.0704 2.9329 0 0 0 0.093-0.02 2.0704 2.9329 0 0 0 0.1078-0.035 2.0704 2.9329 0 0 0 0.094-0.033 2.0704 2.9329 0 0 0 0.1029-0.049 2.0704 2.9329 0 0 0 0.092-0.048 2.0704 2.9329 0 0 0 0.098-0.062 2.0704 2.9329 0 0 0 0.089-0.059 2.0704 2.9329 0 0 0 0.095-0.077 2.0704 2.9329 0 0 0 0.081-0.071 2.0704 2.9329 0 0 0 0.092-0.093 2.0704 2.9329 0 0 0 0.076-0.081 2.0704 2.9329 0 0 0 0.083-0.1029 2.0704 2.9329 0 0 0 0.072-0.097 2.0704 2.9329 0 0 0 0.072-0.109 2.0704 2.9329 0 0 0 0.065-0.1066 2.0704 2.9329 0 0 0 0.067-0.1237 2.0704 2.9329 0 0 0 0.056-0.1115 2.0704 2.9329 0 0 0 0.059-0.1344 2.0704 2.9329 0 0 0 0.046-0.1176 2.0704 2.9329 0 0 0 0.046-0.1358 2.0704 2.9329 0 0 0 0.042-0.1338 2.0704 2.9329 0 0 0 0.037-0.138 2.0704 2.9329 0 0 0 0.032-0.1347 2.0704 2.9329 0 0 0 0.027-0.1517 2.0704 2.9329 0 0 0 0.021-0.135 2.0704 2.9329 0 0 0 0.015-0.1504 2.0704 2.9329 0 0 0 0.015-0.1402 2.0704 2.9329 0 0 0 0.014-0.2516 2.0704 2.9329 0 0 0-0.014-0.2511 2.0704 2.9329 0 0 0-0.015-0.1423 2.0704 2.9329 0 0 0-0.015-0.1466 2.0704 2.9329 0 0 0-0.023-0.1468 2.0704 2.9329 0 0 0-0.023-0.1367 2.0704 2.9329 0 0 0-0.033-0.1452 2.0704 2.9329 0 0 0-0.034-0.1338 2.0704 2.9329 0 0 0-0.043-0.1372 2.0704 2.9329 0 0 0-0.043-0.1274 2.0704 2.9329 0 0 0-0.055-0.1359 2.0704 2.9329 0 0 0-0.05-0.1162 2.0704 2.9329 0 0 0-0.064-0.1266 2.0704 2.9329 0 0 0-0.058-0.109 2.0704 2.9329 0 0 0-0.026-0.039v2.1824h-3.076zm-13.143 0.156v2.1515h-3.0764v-2.0717a2.0704 2.9329 0 0 0-0.037 0.058 2.0704 2.9329 0 0 0-0.064 0.12 2.0704 2.9329 0 0 0-0.059 0.1163 2.0704 2.9329 0 0 0-0.058 0.1308 2.0704 2.9329 0 0 0-0.048 0.1201 2.0704 2.9329 0 0 0-0.047 0.1366 2.0704 2.9329 0 0 0-0.042 0.1338 2.0704 2.9329 0 0 0-0.035 0.1337 2.0704 2.9329 0 0 0-0.033 0.1424 2.0704 2.9329 0 0 0-0.026 0.1402 2.0704 2.9329 0 0 0-0.022 0.1424 2.0704 2.9329 0 0 0-0.016 0.1495 2.0704 2.9329 0 0 0-0.013 0.1402 2.0704 2.9329 0 0 0-0.015 0.2525 2.0704 2.9329 0 0 0 0.015 0.2502 2.0704 2.9329 0 0 0 0.013 0.1431 2.0704 2.9329 0 0 0 0.016 0.1474 2.0704 2.9329 0 0 0 0.022 0.1388 2.0704 2.9329 0 0 0 0.027 0.1467 2.0704 2.9329 0 0 0 0.032 0.138 2.0704 2.9329 0 0 0 0.035 0.1359 2.0704 2.9329 0 0 0 0.043 0.1353 2.0704 2.9329 0 0 0 0.047 0.1337 2.0704 2.9329 0 0 0 0.051 0.128 2.0704 2.9329 0 0 0 0.053 0.1224 2.0704 2.9329 0 0 0 0.06 0.1213 2.0704 2.9329 0 0 0 0.062 0.1175 2.0704 2.9329 0 0 0 0.067 0.109 2.0704 2.9329 0 0 0 0.07 0.1054 2.0704 2.9329 0 0 0 0.077 0.104 2.0704 2.9329 0 0 0 0.076 0.094 2.0704 2.9329 0 0 0 0.086 0.093 2.0704 2.9329 0 0 0 0.077 0.08 2.0704 2.9329 0 0 0 0.092 0.081 2.0704 2.9329 0 0 0 0.089 0.075 2.0704 2.9329 0 0 0 0.088 0.061 2.0704 2.9329 0 0 0 0.097 0.06 2.0704 2.9329 0 0 0 0.1004 0.053 2.0704 2.9329 0 0 0 0.094 0.044 2.0704 2.9329 0 0 0 0.099 0.037 2.0704 2.9329 0 0 0 0.1053 0.033 2.0704 2.9329 0 0 0 0.093 0.019 2.0704 2.9329 0 0 0 0.1114 0.02 2.0704 2.9329 0 0 0 0.1738 0.015 2.0704 2.9329 0 0 0 0.1778-0.015 2.0704 2.9329 0 0 0 0.1017-0.016 2.0704 2.9329 0 0 0 0.1041-0.022 2.0704 2.9329 0 0 0 0.099-0.031 2.0704 2.9329 0 0 0 0.1028-0.038 2.0704 2.9329 0 0 0 0.096-0.046 2.0704 2.9329 0 0 0 0.1004-0.052 2.0704 2.9329 0 0 0 0.097-0.06 2.0704 2.9329 0 0 0 0.089-0.061 2.0704 2.9329 0 0 0 0.091-0.075 2.0704 2.9329 0 0 0 0.088-0.076 2.0704 2.9329 0 0 0 0.081-0.083 2.0704 2.9329 0 0 0 0.084-0.089 2.0704 2.9329 0 0 0 0.077-0.098 2.0704 2.9329 0 0 0 0.076-0.098 2.0704 2.9329 0 0 0 0.071-0.109 2.0704 2.9329 0 0 0 0.069-0.1102 2.0704 2.9329 0 0 0 0.064-0.1176 2.0704 2.9329 0 0 0 0.058-0.1163 2.0704 2.9329 0 0 0 0.055-0.1293 2.0704 2.9329 0 0 0 0.05-0.1225 2.0704 2.9329 0 0 0 0.047-0.1365 2.0704 2.9329 0 0 0 0.04-0.1295 2.0704 2.9329 0 0 0 0.037-0.143 2.0704 2.9329 0 0 0 0.031-0.1338 2.0704 2.9329 0 0 0 0.027-0.1439 2.0704 2.9329 0 0 0 0.022-0.1409 2.0704 2.9329 0 0 0 0.016-0.1518 2.0704 2.9329 0 0 0 0.015-0.138 2.0704 2.9329 0 0 0 0.014-0.2509 2.0704 2.9329 0 0 0-0.014-0.2474 2.0704 2.9329 0 0 0-0.015-0.1575 2.0704 2.9329 0 0 0-0.013-0.1322 2.0704 2.9329 0 0 0-0.023-0.1525 2.0704 2.9329 0 0 0-0.023-0.1352 2.0704 2.9329 0 0 0-0.033-0.1438 2.0704 2.9329 0 0 0-0.034-0.1309 2.0704 2.9329 0 0 0-0.047-0.1453 2.0704 2.9329 0 0 0-0.04-0.1212 2.0704 2.9329 0 0 0-0.053-0.1309 2.0704 2.9329 0 0 0-0.053-0.1237 2.0704 2.9329 0 0 0-0.06-0.1176 2.0704 2.9329 0 0 0-0.062-0.1175 2.0704 2.9329 0 0 0-0.069-0.1103 2.0704 2.9329 0 0 0-0.026-0.038zm5.3891 0.012v2.1465h-3.076v-2.0566a2.0704 2.9329 0 0 0-0.035 0.058 2.0704 2.9329 0 0 0-0.062 0.1175 2.0704 2.9329 0 0 0-0.057 0.1176 2.0704 2.9329 0 0 0-0.055 0.1295 2.0704 2.9329 0 0 0-0.05 0.1224 2.0704 2.9329 0 0 0-0.046 0.1366 2.0704 2.9329 0 0 0-0.04 0.1295 2.0704 2.9329 0 0 0-0.035 0.1423 2.0704 2.9329 0 0 0-0.032 0.1338 2.0704 2.9329 0 0 0-0.026 0.141 2.0704 2.9329 0 0 0-0.024 0.1495 2.0704 2.9329 0 0 0-0.013 0.1324 2.0704 2.9329 0 0 0-0.014 0.1574 2.0704 2.9329 0 0 0-0.015 0.2474 2.0704 2.9329 0 0 0 0.015 0.2473 2.0704 2.9329 0 0 0 0.014 0.1504 2.0704 2.9329 0 0 0 0.015 0.1423 2.0704 2.9329 0 0 0 0.022 0.1423 2.0704 2.9329 0 0 0 0.027 0.1439 2.0704 2.9329 0 0 0 0.031 0.1323 2.0704 2.9329 0 0 0 0.037 0.1468 2.0704 2.9329 0 0 0 0.039 0.1236 2.0704 2.9329 0 0 0 0.048 0.1394 2.0704 2.9329 0 0 0 0.049 0.1245 2.0704 2.9329 0 0 0 0.056 0.1279 2.0704 2.9329 0 0 0 0.056 0.1127 2.0704 2.9329 0 0 0 0.065 0.1244 2.0704 2.9329 0 0 0 0.065 0.1054 2.0704 2.9329 0 0 0 0.073 0.109 2.0704 2.9329 0 0 0 0.076 0.1004 2.0704 2.9329 0 0 0 0.078 0.095 2.0704 2.9329 0 0 0 0.082 0.089 2.0704 2.9329 0 0 0 0.083 0.083 2.0704 2.9329 0 0 0 0.089 0.078 2.0704 2.9329 0 0 0 0.089 0.073 2.0704 2.9329 0 0 0 0.091 0.061 2.0704 2.9329 0 0 0 0.097 0.06 2.0704 2.9329 0 0 0 0.1004 0.053 2.0704 2.9329 0 0 0 0.094 0.044 2.0704 2.9329 0 0 0 0.097 0.035 2.0704 2.9329 0 0 0 0.1077 0.034 2.0704 2.9329 0 0 0 0.092 0.02 2.0704 2.9329 0 0 0 0.1127 0.02 2.0704 2.9329 0 0 0 0.1737 0.013 2.0704 2.9329 0 0 0 0.1771-0.013 2.0704 2.9329 0 0 0 0.1005-0.016 2.0704 2.9329 0 0 0 0.104-0.022 2.0704 2.9329 0 0 0 0.097-0.031 2.0704 2.9329 0 0 0 0.1053-0.039 2.0704 2.9329 0 0 0 0.091-0.043 2.0704 2.9329 0 0 0 0.1041-0.054 2.0704 2.9329 0 0 0 0.093-0.06 2.0704 2.9329 0 0 0 0.092-0.062 2.0704 2.9329 0 0 0 0.089-0.072 2.0704 2.9329 0 0 0 0.092-0.081 2.0704 2.9329 0 0 0 0.077-0.077 2.0704 2.9329 0 0 0 0.087-0.095 2.0704 2.9329 0 0 0 0.073-0.092 2.0704 2.9329 0 0 0 0.078-0.1029 2.0704 2.9329 0 0 0 0.071-0.109 2.0704 2.9329 0 0 0 0.069-0.1102 2.0704 2.9329 0 0 0 0.061-0.1126 2.0704 2.9329 0 0 0 0.062-0.1237 2.0704 2.9329 0 0 0 0.051-0.1214 2.0704 2.9329 0 0 0 0.053-0.1315 2.0704 2.9329 0 0 0 0.04-0.1212 2.0704 2.9329 0 0 0 0.046-0.1453 2.0704 2.9329 0 0 0 0.033-0.128 2.0704 2.9329 0 0 0 0.036-0.1482 2.0704 2.9329 0 0 0 0.023-0.1331 2.0704 2.9329 0 0 0 0.023-0.1538 2.0704 2.9329 0 0 0 0.014-0.1315 2.0704 2.9329 0 0 0 0.015-0.1581 2.0704 2.9329 0 0 0 0.014-0.2468 2.0704 2.9329 0 0 0-0.014-0.2559 2.0704 2.9329 0 0 0-0.015-0.1295 2.0704 2.9329 0 0 0-0.016-0.1553 2.0704 2.9329 0 0 0-0.022-0.1403 2.0704 2.9329 0 0 0-0.027-0.1466 2.0704 2.9329 0 0 0-0.031-0.1308 2.0704 2.9329 0 0 0-0.038-0.1453 2.0704 2.9329 0 0 0-0.04-0.1281 2.0704 2.9329 0 0 0-0.046-0.1365 2.0704 2.9329 0 0 0-0.048-0.1213 2.0704 2.9329 0 0 0-0.059-0.1337 2.0704 2.9329 0 0 0-0.055-0.1114 2.0704 2.9329 0 0 0-0.065-0.1225 2.0704 2.9329 0 0 0-0.067-0.1078 2.0704 2.9329 0 0 0-0.023-0.035z"
             color="#000000"
             color-rendering="auto"
             dominant-baseline="auto"
             image-rendering="auto"
             opacity=".394"
             solid-color="#000000"
             style="font-feature-settings:normal;font-variant-alternates:normal;font-variant-caps:normal;font-variant-ligatures:normal;font-variant-numeric:normal;font-variant-position:normal;isolation:auto;mix-blend-mode:normal;shape-padding:0;text-decoration-color:#000000;text-decoration-line:none;text-decoration-style:solid;text-indent:0;text-orientation:mixed;text-transform:none;white-space:normal;fill:#ffffff"
             id="path3141" />
        </g>
        <g
           transform="translate(55.203 -.066058)"
           id="g3149"
           style="fill:#ffffff">
          <path
             d="m-3170.2 1304.2c-0.06 0.055-0.1127 0.5485-0.161 1.2936l-3.6724 5.6124c-1.6412 4.2996-1.8765 39.855-2.7237 78.698-0.8475 38.843-1.6287 74.754-2.4464 75.611-1.6352 1.7135-3.3934 3.817-5.2232 5.9697-3.66 4.3057-8.6199 8.7626-10.438 9.7118-20.179 10.535-32.428 11.663-46.764 25.413-9.0091 8.642-18.145 19.999-22.612 35.192-6.4366 21.894-7.9092 49.163-2.0819 70.792 1.998 7.4152 5.2 14.946 7.7705 22.222 2.5709 7.2756 4.3702 14.215 4.259 19.187-0.1513 6.7619-1.3354 14.159-3.7428 20.257-2.4074 6.098-5.8877 10.897-11.088 13.426l-0.1631 0.08-0.1576 0.099c-14.796 9.1677-22.516 29.121-25.2 48.504v0.046c-4.7894 36.192-4.6125 75.162 5.7485 110.44 8.4045 29.508 29.866 49.855 53.382 52.602h0.063c20.948 2.0192 41.756 0.6281 62.256 1.0325l0.5654 0.012v15.325h4.8809v-15.311l1.2477-0.024c20.5-0.4044 41.309 0.9866 62.257-1.0326h0.063c23.516-2.7473 44.977-23.094 53.382-52.602 10.361-35.278 10.538-74.248 5.7482-110.44v-0.046c-2.6834-19.383-10.404-39.337-25.199-48.504l-0.1583-0.099-0.1624-0.08c-5.2008-2.529-8.6818-7.3277-11.089-13.426-2.4063-6.0976-3.5911-13.495-3.7428-20.257-0.1114-4.972 1.6892-11.911 4.2601-19.187 2.5706-7.276 5.7713-14.807 7.7694-22.222 5.8278-21.629 4.3557-48.898-2.081-70.792-4.4666-15.193-13.603-26.55-22.613-35.192-14.335-13.75-26.585-14.878-46.764-25.413-1.8188-0.9492-6.779-5.4063-10.439-9.7119-1.8298-2.1527-3.5885-4.2562-5.2235-5.9695-0.8173-0.857-1.5986-36.768-2.4461-75.611-0.8475-38.842-1.0828-74.398-2.7241-78.698l-3.6714-5.6125c-0.048-0.7449-0.1016-1.2384-0.1619-1.2936v0.014c-0.018-0.016-0.035 6e-4 -0.055 0.05l-0.2956 0.4525-0.296-0.4525c-0.02-0.05-0.039-0.065-0.058-0.05zm-9.5867 170.16h3.0764v341.57h2.3131v-341.57h3.076v341.57h2.261v-341.57h3.0767v341.57h2.4163v-341.57h3.076v341.57h4.6813s0.6425 6.3249-0.3443 11.542c-0.6932 3.6639-10.352 17.834-5.6605 42.638h-16.566c4.6146-24.396-4.968-38.974-5.6609-42.638-0.987-5.2176-0.3439-11.542-0.3439-11.542h4.5992zm31.806 191.18v0.012c0.077 0 0.1528-2e-4 0.2294 0.014v-0.014c1.0706 0.049 2.1334 0.5724 3.0561 1.5331 7.5368 10.114 14.24 24.571 14.766 41.833 0.6142 10.777-1.8806 21.272-1.2877 32.064 0.8935 10.8 6.0213 18.398 10.68 24.638 2.2127 2.5966 4.9633 5.6118 5.0609 10.867 0.4314 8.2605-5.3749 13.943-9.2934 9.8693-7.7196-9.0905-15.498-20.765-18.065-37.106-1.9549-11.582-0.023-23.386 0.5309-35.02 0.5125-8.7377-1.8791-17.159-5.3428-23.2-1.834-4.0713-4.876-6.3692-6.0303-11.318-1.5908-6.4749 1.5463-14.108 5.4658-14.15 0.076-0.015 0.1528-0.014 0.2294-0.014zm-43.736 0.012c0.077 0 0.1529-2e-4 0.2294 0.014 3.9192 0.042 7.0564 7.6751 5.4658 14.15-1.1545 4.9491-4.1963 7.2469-6.0301 11.318-3.4641 6.0412-5.8554 14.463-5.3428 23.2 0.554 11.634 2.4858 23.439 0.5305 35.02-2.5665 16.341-10.345 28.016-18.064 37.106-3.9184 4.0731-9.7248-1.6089-9.2932-9.8694 0.097-5.2555 2.8481-8.2707 5.0609-10.867 4.6587-6.2399 9.7865-13.838 10.68-24.638 0.5924-10.792-1.9023-21.287-1.2879-32.064 0.525-17.262 7.2293-31.719 14.766-41.833 0.9219-0.9608 1.9852-1.4845 3.0563-1.5332v0.015c0.076-0.015 0.1527-0.015 0.2292-0.015zm25.733 157.49v2.3579h-3.0767v-2.1464a2.0704 2.9329 0 0 0-0.061 0.1139 2.0704 2.9329 0 0 0-0.059 0.1176 2.0704 2.9329 0 0 0-0.057 0.1302 2.0704 2.9329 0 0 0-0.048 0.12 2.0704 2.9329 0 0 0-0.047 0.1366 2.0704 2.9329 0 0 0-0.042 0.133 2.0704 2.9329 0 0 0-0.034 0.1338 2.0704 2.9329 0 0 0-0.033 0.1423 2.0704 2.9329 0 0 0-0.024 0.141 2.0704 2.9329 0 0 0-0.022 0.1424 2.0704 2.9329 0 0 0-0.017 0.1495 2.0704 2.9329 0 0 0-0.014 0.1395 2.0704 2.9329 0 0 0-0.013 0.2517 2.0704 2.9329 0 0 0 0 0.021 2.0704 2.9329 0 0 0 0.013 0.2307 2.0704 2.9329 0 0 0 0.014 0.1425 2.0704 2.9329 0 0 0 0.017 0.1474 2.0704 2.9329 0 0 0 0.023 0.1445 2.0704 2.9329 0 0 0 0.024 0.1395 2.0704 2.9329 0 0 0 0.033 0.1423 2.0704 2.9329 0 0 0 0.035 0.1338 2.0704 2.9329 0 0 0 0.043 0.1374 2.0704 2.9329 0 0 0 0.044 0.1272 2.0704 2.9329 0 0 0 0.053 0.1317 2.0704 2.9329 0 0 0 0.053 0.1212 2.0704 2.9329 0 0 0 0.061 0.1225 2.0704 2.9329 0 0 0 0.06 0.1114 2.0704 2.9329 0 0 0 0.072 0.1151 2.0704 2.9329 0 0 0 0.068 0.1029 2.0704 2.9329 0 0 0 0.076 0.099 2.0704 2.9329 0 0 0 0.08 0.098 2.0704 2.9329 0 0 0 0.083 0.089 2.0704 2.9329 0 0 0 0.083 0.085 2.0704 2.9329 0 0 0 0.088 0.076 2.0704 2.9329 0 0 0 0.092 0.073 2.0704 2.9329 0 0 0 0.092 0.062 2.0704 2.9329 0 0 0 0.097 0.06 2.0704 2.9329 0 0 0 0.097 0.05 2.0704 2.9329 0 0 0 0.097 0.047 2.0704 2.9329 0 0 0 0.1078 0.039 2.0704 2.9329 0 0 0 0.094 0.031 2.0704 2.9329 0 0 0 0.1053 0.023 2.0704 2.9329 0 0 0 0.098 0.016 2.0704 2.9329 0 0 0 0.1776 0.014 2.0704 2.9329 0 0 0 0.1771-0.014 2.0704 2.9329 0 0 0 0.1004-0.016 2.0704 2.9329 0 0 0 0.1041-0.022 2.0704 2.9329 0 0 0 0.097-0.031 2.0704 2.9329 0 0 0 0.1041-0.037 2.0704 2.9329 0 0 0 0.099-0.047 2.0704 2.9329 0 0 0 0.093-0.049 2.0704 2.9329 0 0 0 0.1004-0.064 2.0704 2.9329 0 0 0 0.086-0.059 2.0704 2.9329 0 0 0 0.095-0.077 2.0704 2.9329 0 0 0 0.083-0.071 2.0704 2.9329 0 0 0 0.088-0.091 2.0704 2.9329 0 0 0 0.077-0.083 2.0704 2.9329 0 0 0 0.084-0.1053 2.0704 2.9329 0 0 0 0.069-0.091 2.0704 2.9329 0 0 0 0.073-0.1126 2.0704 2.9329 0 0 0 0.067-0.1066 2.0704 2.9329 0 0 0 0.065-0.1229 2.0704 2.9329 0 0 0 0.055-0.1102 2.0704 2.9329 0 0 0 0.059-0.1339 2.0704 2.9329 0 0 0 0.048-0.1212 2.0704 2.9329 0 0 0 0.048-0.136 2.0704 2.9329 0 0 0 0.04-0.1294 2.0704 2.9329 0 0 0 0.037-0.1431 2.0704 2.9329 0 0 0 0.031-0.1337 2.0704 2.9329 0 0 0 0.027-0.1438 2.0704 2.9329 0 0 0 0.022-0.1424 2.0704 2.9329 0 0 0 0.015-0.1432 2.0704 2.9329 0 0 0 0.015-0.1495 2.0704 2.9329 0 0 0 0.013-0.2481 2.0704 2.9329 0 0 0-0.013-0.2467 2.0704 2.9329 0 0 0-0.015-0.1581 2.0704 2.9329 0 0 0-0.014-0.1309 2.0704 2.9329 0 0 0-0.023-0.1503 2.0704 2.9329 0 0 0-0.026-0.1394 2.0704 2.9329 0 0 0-0.031-0.131 2.0704 2.9329 0 0 0-0.039-0.1458 2.0704 2.9329 0 0 0-0.04-0.1309 2.0704 2.9329 0 0 0-0.044-0.1309 2.0704 2.9329 0 0 0-0.053-0.1295 2.0704 2.9329 0 0 0-0.054-0.1237 2.0704 2.9329 0 0 0-0.061-0.12 2.0704 2.9329 0 0 0-0.06-0.1139 2.0704 2.9329 0 0 0-0.071-0.1151 2.0704 2.9329 0 0 0-0.061-0.094zm2.4163 0.05a2.0704 2.9329 0 0 0-0.037 0.056 2.0704 2.9329 0 0 0-0.067 0.1102 2.0704 2.9329 0 0 0-0.062 0.1164 2.0704 2.9329 0 0 0-0.059 0.1175 2.0704 2.9329 0 0 0-0.056 0.1296 2.0704 2.9329 0 0 0-0.05 0.1225 2.0704 2.9329 0 0 0-0.047 0.1365 2.0704 2.9329 0 0 0-0.04 0.1295 2.0704 2.9329 0 0 0-0.035 0.1424 2.0704 2.9329 0 0 0-0.031 0.1337 2.0704 2.9329 0 0 0-0.026 0.141 2.0704 2.9329 0 0 0-0.023 0.1495 2.0704 2.9329 0 0 0-0.015 0.1324 2.0704 2.9329 0 0 0-0.014 0.1576 2.0704 2.9329 0 0 0-0.013 0.2464 2.0704 2.9329 0 0 0 0.013 0.2475 2.0704 2.9329 0 0 0 0.014 0.1574 2.0704 2.9329 0 0 0 0.015 0.1322 2.0704 2.9329 0 0 0 0.023 0.1518 2.0704 2.9329 0 0 0 0.023 0.1353 2.0704 2.9329 0 0 0 0.034 0.1394 2.0704 2.9329 0 0 0 0.037 0.1403 2.0704 2.9329 0 0 0 0.042 0.1315 2.0704 2.9329 0 0 0 0.044 0.1311 2.0704 2.9329 0 0 0 0.054 0.1293 2.0704 2.9329 0 0 0 0.053 0.1243 2.0704 2.9329 0 0 0 0.06 0.1189 2.0704 2.9329 0 0 0 0.062 0.1162 2.0704 2.9329 0 0 0 0.067 0.1066 2.0704 2.9329 0 0 0 0.075 0.1115 2.0704 2.9329 0 0 0 0.071 0.094 2.0704 2.9329 0 0 0 0.081 0.1005 2.0704 2.9329 0 0 0 0.081 0.088 2.0704 2.9329 0 0 0 0.085 0.084 2.0704 2.9329 0 0 0 0.088 0.077 2.0704 2.9329 0 0 0 0.091 0.072 2.0704 2.9329 0 0 0 0.092 0.062 2.0704 2.9329 0 0 0 0.096 0.06 2.0704 2.9329 0 0 0 0.098 0.05 2.0704 2.9329 0 0 0 0.095 0.047 2.0704 2.9329 0 0 0 0.1066 0.039 2.0704 2.9329 0 0 0 0.095 0.031 2.0704 2.9329 0 0 0 0.1053 0.024 2.0704 2.9329 0 0 0 0.098 0.016 2.0704 2.9329 0 0 0 0.1776 0.014 2.0704 2.9329 0 0 0 0.1747-0.014 2.0704 2.9329 0 0 0 0.1102-0.02 2.0704 2.9329 0 0 0 0.093-0.02 2.0704 2.9329 0 0 0 0.1078-0.035 2.0704 2.9329 0 0 0 0.094-0.033 2.0704 2.9329 0 0 0 0.1029-0.049 2.0704 2.9329 0 0 0 0.092-0.048 2.0704 2.9329 0 0 0 0.098-0.062 2.0704 2.9329 0 0 0 0.089-0.059 2.0704 2.9329 0 0 0 0.095-0.077 2.0704 2.9329 0 0 0 0.081-0.071 2.0704 2.9329 0 0 0 0.092-0.093 2.0704 2.9329 0 0 0 0.076-0.081 2.0704 2.9329 0 0 0 0.083-0.1029 2.0704 2.9329 0 0 0 0.072-0.097 2.0704 2.9329 0 0 0 0.072-0.109 2.0704 2.9329 0 0 0 0.065-0.1066 2.0704 2.9329 0 0 0 0.067-0.1237 2.0704 2.9329 0 0 0 0.056-0.1115 2.0704 2.9329 0 0 0 0.059-0.1344 2.0704 2.9329 0 0 0 0.046-0.1176 2.0704 2.9329 0 0 0 0.046-0.1358 2.0704 2.9329 0 0 0 0.042-0.1338 2.0704 2.9329 0 0 0 0.037-0.138 2.0704 2.9329 0 0 0 0.032-0.1347 2.0704 2.9329 0 0 0 0.027-0.1517 2.0704 2.9329 0 0 0 0.021-0.135 2.0704 2.9329 0 0 0 0.015-0.1504 2.0704 2.9329 0 0 0 0.015-0.1402 2.0704 2.9329 0 0 0 0.014-0.2516 2.0704 2.9329 0 0 0-0.014-0.2511 2.0704 2.9329 0 0 0-0.015-0.1423 2.0704 2.9329 0 0 0-0.015-0.1466 2.0704 2.9329 0 0 0-0.023-0.1468 2.0704 2.9329 0 0 0-0.023-0.1367 2.0704 2.9329 0 0 0-0.033-0.1452 2.0704 2.9329 0 0 0-0.034-0.1338 2.0704 2.9329 0 0 0-0.043-0.1372 2.0704 2.9329 0 0 0-0.043-0.1274 2.0704 2.9329 0 0 0-0.055-0.1359 2.0704 2.9329 0 0 0-0.05-0.1162 2.0704 2.9329 0 0 0-0.064-0.1266 2.0704 2.9329 0 0 0-0.058-0.109 2.0704 2.9329 0 0 0-0.026-0.039v2.1824h-3.076zm-13.143 0.156v2.1515h-3.0764v-2.0717a2.0704 2.9329 0 0 0-0.037 0.058 2.0704 2.9329 0 0 0-0.064 0.12 2.0704 2.9329 0 0 0-0.059 0.1163 2.0704 2.9329 0 0 0-0.058 0.1308 2.0704 2.9329 0 0 0-0.048 0.1201 2.0704 2.9329 0 0 0-0.047 0.1366 2.0704 2.9329 0 0 0-0.042 0.1338 2.0704 2.9329 0 0 0-0.035 0.1337 2.0704 2.9329 0 0 0-0.033 0.1424 2.0704 2.9329 0 0 0-0.026 0.1402 2.0704 2.9329 0 0 0-0.022 0.1424 2.0704 2.9329 0 0 0-0.016 0.1495 2.0704 2.9329 0 0 0-0.013 0.1402 2.0704 2.9329 0 0 0-0.015 0.2525 2.0704 2.9329 0 0 0 0.015 0.2502 2.0704 2.9329 0 0 0 0.013 0.1431 2.0704 2.9329 0 0 0 0.016 0.1474 2.0704 2.9329 0 0 0 0.022 0.1388 2.0704 2.9329 0 0 0 0.027 0.1467 2.0704 2.9329 0 0 0 0.032 0.138 2.0704 2.9329 0 0 0 0.035 0.1359 2.0704 2.9329 0 0 0 0.043 0.1353 2.0704 2.9329 0 0 0 0.047 0.1337 2.0704 2.9329 0 0 0 0.051 0.128 2.0704 2.9329 0 0 0 0.053 0.1224 2.0704 2.9329 0 0 0 0.06 0.1213 2.0704 2.9329 0 0 0 0.062 0.1175 2.0704 2.9329 0 0 0 0.067 0.109 2.0704 2.9329 0 0 0 0.07 0.1054 2.0704 2.9329 0 0 0 0.077 0.104 2.0704 2.9329 0 0 0 0.076 0.094 2.0704 2.9329 0 0 0 0.086 0.093 2.0704 2.9329 0 0 0 0.077 0.08 2.0704 2.9329 0 0 0 0.092 0.081 2.0704 2.9329 0 0 0 0.089 0.075 2.0704 2.9329 0 0 0 0.088 0.061 2.0704 2.9329 0 0 0 0.097 0.06 2.0704 2.9329 0 0 0 0.1004 0.053 2.0704 2.9329 0 0 0 0.094 0.044 2.0704 2.9329 0 0 0 0.099 0.037 2.0704 2.9329 0 0 0 0.1053 0.033 2.0704 2.9329 0 0 0 0.093 0.019 2.0704 2.9329 0 0 0 0.1114 0.02 2.0704 2.9329 0 0 0 0.1738 0.015 2.0704 2.9329 0 0 0 0.1778-0.015 2.0704 2.9329 0 0 0 0.1017-0.016 2.0704 2.9329 0 0 0 0.1041-0.022 2.0704 2.9329 0 0 0 0.099-0.031 2.0704 2.9329 0 0 0 0.1028-0.038 2.0704 2.9329 0 0 0 0.096-0.046 2.0704 2.9329 0 0 0 0.1004-0.052 2.0704 2.9329 0 0 0 0.097-0.06 2.0704 2.9329 0 0 0 0.089-0.061 2.0704 2.9329 0 0 0 0.091-0.075 2.0704 2.9329 0 0 0 0.088-0.076 2.0704 2.9329 0 0 0 0.081-0.083 2.0704 2.9329 0 0 0 0.084-0.089 2.0704 2.9329 0 0 0 0.077-0.098 2.0704 2.9329 0 0 0 0.076-0.098 2.0704 2.9329 0 0 0 0.071-0.109 2.0704 2.9329 0 0 0 0.069-0.1102 2.0704 2.9329 0 0 0 0.064-0.1176 2.0704 2.9329 0 0 0 0.058-0.1163 2.0704 2.9329 0 0 0 0.055-0.1293 2.0704 2.9329 0 0 0 0.05-0.1225 2.0704 2.9329 0 0 0 0.047-0.1365 2.0704 2.9329 0 0 0 0.04-0.1295 2.0704 2.9329 0 0 0 0.037-0.143 2.0704 2.9329 0 0 0 0.031-0.1338 2.0704 2.9329 0 0 0 0.027-0.1439 2.0704 2.9329 0 0 0 0.022-0.1409 2.0704 2.9329 0 0 0 0.016-0.1518 2.0704 2.9329 0 0 0 0.015-0.138 2.0704 2.9329 0 0 0 0.014-0.2509 2.0704 2.9329 0 0 0-0.014-0.2474 2.0704 2.9329 0 0 0-0.015-0.1575 2.0704 2.9329 0 0 0-0.013-0.1322 2.0704 2.9329 0 0 0-0.023-0.1525 2.0704 2.9329 0 0 0-0.023-0.1352 2.0704 2.9329 0 0 0-0.033-0.1438 2.0704 2.9329 0 0 0-0.034-0.1309 2.0704 2.9329 0 0 0-0.047-0.1453 2.0704 2.9329 0 0 0-0.04-0.1212 2.0704 2.9329 0 0 0-0.053-0.1309 2.0704 2.9329 0 0 0-0.053-0.1237 2.0704 2.9329 0 0 0-0.06-0.1176 2.0704 2.9329 0 0 0-0.062-0.1175 2.0704 2.9329 0 0 0-0.069-0.1103 2.0704 2.9329 0 0 0-0.026-0.038zm5.3891 0.012v2.1465h-3.076v-2.0566a2.0704 2.9329 0 0 0-0.035 0.058 2.0704 2.9329 0 0 0-0.062 0.1175 2.0704 2.9329 0 0 0-0.057 0.1176 2.0704 2.9329 0 0 0-0.055 0.1295 2.0704 2.9329 0 0 0-0.05 0.1224 2.0704 2.9329 0 0 0-0.046 0.1366 2.0704 2.9329 0 0 0-0.04 0.1295 2.0704 2.9329 0 0 0-0.035 0.1423 2.0704 2.9329 0 0 0-0.032 0.1338 2.0704 2.9329 0 0 0-0.026 0.141 2.0704 2.9329 0 0 0-0.024 0.1495 2.0704 2.9329 0 0 0-0.013 0.1324 2.0704 2.9329 0 0 0-0.014 0.1574 2.0704 2.9329 0 0 0-0.015 0.2474 2.0704 2.9329 0 0 0 0.015 0.2473 2.0704 2.9329 0 0 0 0.014 0.1504 2.0704 2.9329 0 0 0 0.015 0.1423 2.0704 2.9329 0 0 0 0.022 0.1423 2.0704 2.9329 0 0 0 0.027 0.1439 2.0704 2.9329 0 0 0 0.031 0.1323 2.0704 2.9329 0 0 0 0.037 0.1468 2.0704 2.9329 0 0 0 0.039 0.1236 2.0704 2.9329 0 0 0 0.048 0.1394 2.0704 2.9329 0 0 0 0.049 0.1245 2.0704 2.9329 0 0 0 0.056 0.1279 2.0704 2.9329 0 0 0 0.056 0.1127 2.0704 2.9329 0 0 0 0.065 0.1244 2.0704 2.9329 0 0 0 0.065 0.1054 2.0704 2.9329 0 0 0 0.073 0.109 2.0704 2.9329 0 0 0 0.076 0.1004 2.0704 2.9329 0 0 0 0.078 0.095 2.0704 2.9329 0 0 0 0.082 0.089 2.0704 2.9329 0 0 0 0.083 0.083 2.0704 2.9329 0 0 0 0.089 0.078 2.0704 2.9329 0 0 0 0.089 0.073 2.0704 2.9329 0 0 0 0.091 0.061 2.0704 2.9329 0 0 0 0.097 0.06 2.0704 2.9329 0 0 0 0.1004 0.053 2.0704 2.9329 0 0 0 0.094 0.044 2.0704 2.9329 0 0 0 0.097 0.035 2.0704 2.9329 0 0 0 0.1077 0.034 2.0704 2.9329 0 0 0 0.092 0.02 2.0704 2.9329 0 0 0 0.1127 0.02 2.0704 2.9329 0 0 0 0.1737 0.013 2.0704 2.9329 0 0 0 0.1771-0.013 2.0704 2.9329 0 0 0 0.1005-0.016 2.0704 2.9329 0 0 0 0.104-0.022 2.0704 2.9329 0 0 0 0.097-0.031 2.0704 2.9329 0 0 0 0.1053-0.039 2.0704 2.9329 0 0 0 0.091-0.043 2.0704 2.9329 0 0 0 0.1041-0.054 2.0704 2.9329 0 0 0 0.093-0.06 2.0704 2.9329 0 0 0 0.092-0.062 2.0704 2.9329 0 0 0 0.089-0.072 2.0704 2.9329 0 0 0 0.092-0.081 2.0704 2.9329 0 0 0 0.077-0.077 2.0704 2.9329 0 0 0 0.087-0.095 2.0704 2.9329 0 0 0 0.073-0.092 2.0704 2.9329 0 0 0 0.078-0.1029 2.0704 2.9329 0 0 0 0.071-0.109 2.0704 2.9329 0 0 0 0.069-0.1102 2.0704 2.9329 0 0 0 0.061-0.1126 2.0704 2.9329 0 0 0 0.062-0.1237 2.0704 2.9329 0 0 0 0.051-0.1214 2.0704 2.9329 0 0 0 0.053-0.1315 2.0704 2.9329 0 0 0 0.04-0.1212 2.0704 2.9329 0 0 0 0.046-0.1453 2.0704 2.9329 0 0 0 0.033-0.128 2.0704 2.9329 0 0 0 0.036-0.1482 2.0704 2.9329 0 0 0 0.023-0.1331 2.0704 2.9329 0 0 0 0.023-0.1538 2.0704 2.9329 0 0 0 0.014-0.1315 2.0704 2.9329 0 0 0 0.015-0.1581 2.0704 2.9329 0 0 0 0.014-0.2468 2.0704 2.9329 0 0 0-0.014-0.2559 2.0704 2.9329 0 0 0-0.015-0.1295 2.0704 2.9329 0 0 0-0.016-0.1553 2.0704 2.9329 0 0 0-0.022-0.1403 2.0704 2.9329 0 0 0-0.027-0.1466 2.0704 2.9329 0 0 0-0.031-0.1308 2.0704 2.9329 0 0 0-0.038-0.1453 2.0704 2.9329 0 0 0-0.04-0.1281 2.0704 2.9329 0 0 0-0.046-0.1365 2.0704 2.9329 0 0 0-0.048-0.1213 2.0704 2.9329 0 0 0-0.059-0.1337 2.0704 2.9329 0 0 0-0.055-0.1114 2.0704 2.9329 0 0 0-0.065-0.1225 2.0704 2.9329 0 0 0-0.067-0.1078 2.0704 2.9329 0 0 0-0.023-0.035z"
             color="#000000"
             color-rendering="auto"
             dominant-baseline="auto"
             image-rendering="auto"
             opacity=".229"
             shape-rendering="auto"
             solid-color="#000000"
             style="font-feature-settings:normal;font-variant-alternates:normal;font-variant-caps:normal;font-variant-ligatures:normal;font-variant-numeric:normal;font-variant-position:normal;isolation:auto;mix-blend-mode:normal;shape-padding:0;text-decoration-color:#000000;text-decoration-line:none;text-decoration-style:solid;text-indent:0;text-orientation:mixed;text-transform:none;white-space:normal;fill:#ffffff"
             id="path3145" />
          <path
             transform="scale(.26458)"
             d="m-11976 4938v634.53h10.248v1291h9.133v-1291h11.625v1291h17.693s2.429 23.905-1.301 43.625c-2.62 13.848-39.126 67.405-21.394 161.15h-26.004v172.39h3.574v-57.869l4.717-0.09c77.481-1.5285 156.13 3.7273 235.3-3.9043h0.238c88.879-10.384 169.99-87.284 201.76-198.81 39.16-133.33 39.83-280.62 21.726-417.41v-0.174c-10.142-73.26-39.32-148.68-95.24-183.32l-0.599-0.3731-0.614-0.3027c-19.656-9.5584-32.813-27.694-41.912-50.742-9.094-23.046-13.573-51.005-14.146-76.562-0.421-18.792 6.385-45.02 16.101-72.518 9.716-27.5 21.814-55.964 29.366-83.99 22.026-81.747 16.462-184.81-7.866-267.56-16.881-57.424-51.412-100.35-85.465-133.01-54.18-51.968-100.48-56.233-176.75-96.049-6.874-3.5875-25.621-20.434-39.453-36.707-6.916-8.1362-13.562-16.087-19.742-22.562-3.089-3.239-6.041-138.96-9.244-285.77-3.203-146.81-4.094-281.19-10.297-297.44zm78.291 1357.1v0.02c0.291 0 0.578-9e-4 0.867 0.053v-0.053c4.047 0.1852 8.064 2.1639 11.551 5.7949 28.486 38.225 53.822 92.866 55.809 158.11 2.321 40.732-7.108 80.398-4.868 121.19 3.377 40.818 22.758 69.535 40.368 93.119 8.363 9.814 18.758 21.211 19.127 41.074 1.63 31.221-20.315 52.696-35.125 37.301-29.177-34.358-58.574-78.482-68.276-140.24-7.388-43.773-0.09-88.39 2.006-132.36 1.937-33.024-7.102-64.852-20.193-87.686-6.932-15.388-18.429-24.072-22.791-42.777-6.013-24.472 5.844-53.323 20.658-53.48 0.287-0.057 0.578-0.053 0.867-0.053zm-68.043 595.26v8.9043h-10.248v7.7285a7.825 11.085 0 0 0 0.06 0.064 7.825 11.085 0 0 0 0.312 0.3223 7.825 11.085 0 0 0 0.332 0.2871 7.825 11.085 0 0 0 0.35 0.2754 7.825 11.085 0 0 0 0.347 0.2344 7.825 11.085 0 0 0 0.366 0.2265 7.825 11.085 0 0 0 0.367 0.1895 7.825 11.085 0 0 0 0.367 0.1777 7.825 11.085 0 0 0 0.406 0.1484 7.825 11.085 0 0 0 0.356 0.1172 7.825 11.085 0 0 0 0.398 0.086 7.825 11.085 0 0 0 0.371 0.06 7.825 11.085 0 0 0 0.67 0.053 7.825 11.085 0 0 0 0.67-0.053 7.825 11.085 0 0 0 0.379-0.06 7.825 11.085 0 0 0 0.394-0.084 7.825 11.085 0 0 0 0.366-0.1172 7.825 11.085 0 0 0 0.394-0.1387 7.825 11.085 0 0 0 0.373-0.1777 7.825 11.085 0 0 0 0.352-0.1856 7.825 11.085 0 0 0 0.381-0.2421 7.825 11.085 0 0 0 0.324-0.2227 7.825 11.085 0 0 0 0.359-0.291 7.825 11.085 0 0 0 0.315-0.2676 7.825 11.085 0 0 0 0.332-0.3437 7.825 11.085 0 0 0 0.291-0.3145 7.825 11.085 0 0 0 0.316-0.3984 7.825 11.085 0 0 0 0.262-0.3438 7.825 11.085 0 0 0 0.275-0.4258 7.825 11.085 0 0 0 0.254-0.4023 7.825 11.085 0 0 0 0.246-0.4649 7.825 11.085 0 0 0 0.207-0.416 7.825 11.085 0 0 0 0.223-0.5058 7.825 11.085 0 0 0 0.182-0.459 7.825 11.085 0 0 0 0.181-0.5137 7.825 11.085 0 0 0 0.151-0.4883 7.825 11.085 0 0 0 0.14-0.541 7.825 11.085 0 0 0 0.118-0.5058 7.825 11.085 0 0 0 0.101-0.543 7.825 11.085 0 0 0 0.08-0.5391 7.825 11.085 0 0 0 0.06-0.541 7.825 11.085 0 0 0 0.06-0.5644 7.825 11.085 0 0 0 0.05-0.9375 7.825 11.085 0 0 0-0.05-0.9336 7.825 11.085 0 0 0-0.06-0.5977 7.825 11.085 0 0 0-0.05-0.4941 7.825 11.085 0 0 0-0.09-0.5684 7.825 11.085 0 0 0-0.1-0.5273 7.825 11.085 0 0 0-0.117-0.4942 7.825 11.085 0 0 0-0.148-0.5508 7.825 11.085 0 0 0-0.151-0.496 7.825 11.085 0 0 0-0.166-0.4942 7.825 11.085 0 0 0-0.201-0.4883 7.825 11.085 0 0 0-0.203-0.4687 7.825 11.085 0 0 0-0.23-0.4531 7.825 11.085 0 0 0-0.227-0.4297 7.825 11.085 0 0 0-0.269-0.4356 7.825 11.085 0 0 0-0.231-0.3554zm9.133 0.1816a7.825 11.085 0 0 0-0.141 0.2109 7.825 11.085 0 0 0-0.252 0.416 7.825 11.085 0 0 0-0.234 0.4415 7.825 11.085 0 0 0-0.223 0.4433 7.825 11.085 0 0 0-0.213 0.4902 7.825 11.085 0 0 0-0.189 0.4629 7.825 11.085 0 0 0-0.178 0.5157 7.825 11.085 0 0 0-0.15 0.4902 7.825 11.085 0 0 0-0.133 0.5371 7.825 11.085 0 0 0-0.117 0.5059 7.825 11.085 0 0 0-0.1 0.5332 7.825 11.085 0 0 0-0.09 0.5644 7.825 11.085 0 0 0-0.06 0.5 7.825 11.085 0 0 0-0.05 0.5957 7.825 11.085 0 0 0-0.05 0.9317 7.825 11.085 0 0 0 0.05 0.9355 7.825 11.085 0 0 0 0.05 0.5957 7.825 11.085 0 0 0 0.06 0.4981 7.825 11.085 0 0 0 0.09 0.5742 7.825 11.085 0 0 0 0.09 0.5117 7.825 11.085 0 0 0 0.127 0.5273 7.825 11.085 0 0 0 0.141 0.5293 7.825 11.085 0 0 0 0.158 0.4981 7.825 11.085 0 0 0 0.166 0.4941 7.825 11.085 0 0 0 0.205 0.4903 7.825 11.085 0 0 0 0.199 0.4687 7.825 11.085 0 0 0 0.227 0.4492 7.825 11.085 0 0 0 0.234 0.4395 7.825 11.085 0 0 0 0.254 0.4023 7.825 11.085 0 0 0 0.283 0.4219 7.825 11.085 0 0 0 0.27 0.3555 7.825 11.085 0 0 0 0.304 0.3808 7.825 11.085 0 0 0 0.307 0.3321 7.825 11.085 0 0 0 0.322 0.3164 7.825 11.085 0 0 0 0.332 0.291 7.825 11.085 0 0 0 0.344 0.2734 7.825 11.085 0 0 0 0.348 0.2344 7.825 11.085 0 0 0 0.363 0.2266 7.825 11.085 0 0 0 0.369 0.1894 7.825 11.085 0 0 0 0.36 0.1758 7.825 11.085 0 0 0 0.404 0.1484 7.825 11.085 0 0 0 0.357 0.1172 7.825 11.085 0 0 0 0.399 0.09 7.825 11.085 0 0 0 0.371 0.06 7.825 11.085 0 0 0 0.67 0.053 7.825 11.085 0 0 0 0.662-0.053 7.825 11.085 0 0 0 0.416-0.074 7.825 11.085 0 0 0 0.351-0.076 7.825 11.085 0 0 0 0.407-0.1328 7.825 11.085 0 0 0 0.355-0.125 7.825 11.085 0 0 0 0.389-0.1836 7.825 11.085 0 0 0 0.347-0.1816 7.825 11.085 0 0 0 0.372-0.2344 7.825 11.085 0 0 0 0.335-0.2227 7.825 11.085 0 0 0 0.36-0.2929 7.825 11.085 0 0 0 0.306-0.2676 7.825 11.085 0 0 0 0.348-0.3516 7.825 11.085 0 0 0 0.287-0.3066 7.825 11.085 0 0 0 0.315-0.3887 7.825 11.085 0 0 0 0.271-0.3652 7.825 11.085 0 0 0 0.272-0.4121 7.825 11.085 0 0 0 0.246-0.4043 7.825 11.085 0 0 0 0.254-0.4668 7.825 11.085 0 0 0 0.211-0.4219 7.825 11.085 0 0 0 0.222-0.5078 7.825 11.085 0 0 0 0.174-0.4434 7.825 11.085 0 0 0 0.174-0.5136 7.825 11.085 0 0 0 0.16-0.5059 7.825 11.085 0 0 0 0.139-0.5215 7.825 11.085 0 0 0 0.121-0.5097 7.825 11.085 0 0 0 0.101-0.5723 7.825 11.085 0 0 0 0.08-0.5117 7.825 11.085 0 0 0 0.06-0.5684 7.825 11.085 0 0 0 0.06-0.5293 7.825 11.085 0 0 0 0.05-0.9512 7.825 11.085 0 0 0-0.05-0.9492 7.825 11.085 0 0 0-0.06-0.5371 7.825 11.085 0 0 0-0.06-0.5547 7.825 11.085 0 0 0-0.09-0.5547 7.825 11.085 0 0 0-0.09-0.5156 7.825 11.085 0 0 0-0.125-0.5488 7.825 11.085 0 0 0-0.129-0.5059 7.825 11.085 0 0 0-0.162-0.5195 7.825 11.085 0 0 0-0.162-0.4805 7.825 11.085 0 0 0-0.209-0.5136 7.825 11.085 0 0 0-0.188-0.4395 7.825 11.085 0 0 0-0.242-0.4785 7.825 11.085 0 0 0-0.219-0.4121 7.825 11.085 0 0 0-0.1-0.1485v8.25h-11.625z"
             opacity=".621"
             stroke="#000"
             stroke-linecap="square"
             stroke-linejoin="bevel"
             id="path3147"
             style="fill:#ffffff" />
        </g>
        <g
           transform="translate(50.496 -.066034)"
           id="g3159"
           style="fill:#ffffff">
          <path
             d="m-2573.9 1306.5v167.89h2.7114v341.58h2.4165v-341.58h3.0757v341.58h4.6813s0.6427 6.3248-0.3442 11.542c-0.6932 3.6639-10.352 17.834-5.6605 42.638h-6.8802v45.611h0.9456v-15.311l1.248-0.024c20.5-0.4044 41.309 0.9862 62.257-1.033h0.063c23.516-2.7473 44.977-23.094 53.382-52.602 10.361-35.278 10.538-74.249 5.7484-110.44v-0.046c-2.6834-19.383-10.404-39.337-25.199-48.504l-0.1584-0.099-0.1625-0.08c-5.2006-2.529-8.6818-7.3275-11.089-13.426-2.4061-6.0976-3.5912-13.495-3.7428-20.257-0.1114-4.972 1.6894-11.912 4.2601-19.187 2.5706-7.276 5.7716-14.807 7.7697-22.222 5.8277-21.629 4.3556-48.898-2.0812-70.792-4.4664-15.193-13.603-26.55-22.613-35.192-14.335-13.75-26.585-14.878-46.764-25.413-1.8187-0.9492-6.7789-5.4064-10.439-9.712-1.8298-2.1527-3.5882-4.2564-5.2234-5.9697-0.8173-0.857-1.5983-36.768-2.4458-75.61-0.8474-38.842-1.0832-74.398-2.7244-78.698zm20.714 359.08v0.01c0.077 0 0.1529-2e-4 0.2294 0.014v-0.014c1.0707 0.049 2.1336 0.5726 3.0562 1.5333 7.5369 10.114 14.24 24.571 14.766 41.833 0.6141 10.777-1.8807 21.272-1.288 32.064 0.8935 10.8 6.0214 18.398 10.681 24.638 2.2127 2.5966 4.9631 5.6121 5.0607 10.868 0.4313 8.2605-5.375 13.942-9.2935 9.8691-7.7198-9.0905-15.498-20.765-18.065-37.106-1.9547-11.582-0.023-23.387 0.5308-35.021 0.5125-8.7377-1.8791-17.159-5.3428-23.2-1.8341-4.0713-4.876-6.3691-6.0301-11.318-1.5909-6.4749 1.5462-14.108 5.4658-14.15 0.076-0.015 0.1529-0.014 0.2294-0.014zm-18.003 157.5v2.356h-2.7114v2.0448a2.0704 2.9329 0 0 0 0.016 0.017 2.0704 2.9329 0 0 0 0.083 0.085 2.0704 2.9329 0 0 0 0.088 0.076 2.0704 2.9329 0 0 0 0.093 0.073 2.0704 2.9329 0 0 0 0.092 0.062 2.0704 2.9329 0 0 0 0.097 0.06 2.0704 2.9329 0 0 0 0.097 0.05 2.0704 2.9329 0 0 0 0.097 0.047 2.0704 2.9329 0 0 0 0.1074 0.039 2.0704 2.9329 0 0 0 0.094 0.031 2.0704 2.9329 0 0 0 0.1053 0.023 2.0704 2.9329 0 0 0 0.098 0.016 2.0704 2.9329 0 0 0 0.1773 0.014 2.0704 2.9329 0 0 0 0.1773-0.014 2.0704 2.9329 0 0 0 0.1003-0.016 2.0704 2.9329 0 0 0 0.1042-0.022 2.0704 2.9329 0 0 0 0.097-0.031 2.0704 2.9329 0 0 0 0.1043-0.037 2.0704 2.9329 0 0 0 0.099-0.047 2.0704 2.9329 0 0 0 0.093-0.049 2.0704 2.9329 0 0 0 0.1008-0.064 2.0704 2.9329 0 0 0 0.086-0.059 2.0704 2.9329 0 0 0 0.095-0.077 2.0704 2.9329 0 0 0 0.083-0.071 2.0704 2.9329 0 0 0 0.088-0.091 2.0704 2.9329 0 0 0 0.077-0.083 2.0704 2.9329 0 0 0 0.084-0.1054 2.0704 2.9329 0 0 0 0.069-0.091 2.0704 2.9329 0 0 0 0.073-0.1127 2.0704 2.9329 0 0 0 0.067-0.1064 2.0704 2.9329 0 0 0 0.065-0.123 2.0704 2.9329 0 0 0 0.055-0.1101 2.0704 2.9329 0 0 0 0.059-0.1338 2.0704 2.9329 0 0 0 0.048-0.1214 2.0704 2.9329 0 0 0 0.048-0.136 2.0704 2.9329 0 0 0 0.04-0.1291 2.0704 2.9329 0 0 0 0.037-0.1432 2.0704 2.9329 0 0 0 0.031-0.1338 2.0704 2.9329 0 0 0 0.027-0.1437 2.0704 2.9329 0 0 0 0.022-0.1426 2.0704 2.9329 0 0 0 0.015-0.1432 2.0704 2.9329 0 0 0 0.015-0.1493 2.0704 2.9329 0 0 0 0.013-0.248 2.0704 2.9329 0 0 0-0.013-0.2471 2.0704 2.9329 0 0 0-0.015-0.1581 2.0704 2.9329 0 0 0-0.014-0.1307 2.0704 2.9329 0 0 0-0.023-0.1504 2.0704 2.9329 0 0 0-0.026-0.1395 2.0704 2.9329 0 0 0-0.031-0.1308 2.0704 2.9329 0 0 0-0.039-0.1457 2.0704 2.9329 0 0 0-0.04-0.1312 2.0704 2.9329 0 0 0-0.044-0.1308 2.0704 2.9329 0 0 0-0.053-0.1292 2.0704 2.9329 0 0 0-0.054-0.124 2.0704 2.9329 0 0 0-0.061-0.1199 2.0704 2.9329 0 0 0-0.06-0.1137 2.0704 2.9329 0 0 0-0.071-0.1152 2.0704 2.9329 0 0 0-0.061-0.094zm2.4165 0.048a2.0704 2.9329 0 0 0-0.037 0.056 2.0704 2.9329 0 0 0-0.067 0.11 2.0704 2.9329 0 0 0-0.062 0.1169 2.0704 2.9329 0 0 0-0.059 0.1172 2.0704 2.9329 0 0 0-0.056 0.1297 2.0704 2.9329 0 0 0-0.05 0.1225 2.0704 2.9329 0 0 0-0.047 0.1365 2.0704 2.9329 0 0 0-0.04 0.1297 2.0704 2.9329 0 0 0-0.035 0.1421 2.0704 2.9329 0 0 0-0.031 0.1338 2.0704 2.9329 0 0 0-0.026 0.1411 2.0704 2.9329 0 0 0-0.023 0.1493 2.0704 2.9329 0 0 0-0.015 0.1323 2.0704 2.9329 0 0 0-0.014 0.1576 2.0704 2.9329 0 0 0-0.013 0.2465 2.0704 2.9329 0 0 0 0.013 0.2476 2.0704 2.9329 0 0 0 0.014 0.1576 2.0704 2.9329 0 0 0 0.015 0.1318 2.0704 2.9329 0 0 0 0.023 0.1519 2.0704 2.9329 0 0 0 0.023 0.1354 2.0704 2.9329 0 0 0 0.034 0.1395 2.0704 2.9329 0 0 0 0.037 0.14 2.0704 2.9329 0 0 0 0.042 0.1318 2.0704 2.9329 0 0 0 0.044 0.1308 2.0704 2.9329 0 0 0 0.054 0.1297 2.0704 2.9329 0 0 0 0.053 0.124 2.0704 2.9329 0 0 0 0.06 0.1188 2.0704 2.9329 0 0 0 0.062 0.1163 2.0704 2.9329 0 0 0 0.067 0.1065 2.0704 2.9329 0 0 0 0.075 0.1116 2.0704 2.9329 0 0 0 0.071 0.094 2.0704 2.9329 0 0 0 0.081 0.1007 2.0704 2.9329 0 0 0 0.081 0.088 2.0704 2.9329 0 0 0 0.085 0.084 2.0704 2.9329 0 0 0 0.088 0.077 2.0704 2.9329 0 0 0 0.091 0.072 2.0704 2.9329 0 0 0 0.092 0.062 2.0704 2.9329 0 0 0 0.096 0.06 2.0704 2.9329 0 0 0 0.098 0.05 2.0704 2.9329 0 0 0 0.095 0.046 2.0704 2.9329 0 0 0 0.1069 0.039 2.0704 2.9329 0 0 0 0.094 0.031 2.0704 2.9329 0 0 0 0.1056 0.024 2.0704 2.9329 0 0 0 0.098 0.016 2.0704 2.9329 0 0 0 0.1773 0.014 2.0704 2.9329 0 0 0 0.1752-0.014 2.0704 2.9329 0 0 0 0.11-0.02 2.0704 2.9329 0 0 0 0.093-0.02 2.0704 2.9329 0 0 0 0.1077-0.035 2.0704 2.9329 0 0 0 0.094-0.033 2.0704 2.9329 0 0 0 0.1029-0.049 2.0704 2.9329 0 0 0 0.092-0.048 2.0704 2.9329 0 0 0 0.099-0.062 2.0704 2.9329 0 0 0 0.089-0.059 2.0704 2.9329 0 0 0 0.095-0.077 2.0704 2.9329 0 0 0 0.081-0.071 2.0704 2.9329 0 0 0 0.092-0.093 2.0704 2.9329 0 0 0 0.076-0.081 2.0704 2.9329 0 0 0 0.083-0.1029 2.0704 2.9329 0 0 0 0.072-0.097 2.0704 2.9329 0 0 0 0.072-0.109 2.0704 2.9329 0 0 0 0.065-0.107 2.0704 2.9329 0 0 0 0.067-0.1235 2.0704 2.9329 0 0 0 0.056-0.1116 2.0704 2.9329 0 0 0 0.059-0.1344 2.0704 2.9329 0 0 0 0.046-0.1173 2.0704 2.9329 0 0 0 0.046-0.1359 2.0704 2.9329 0 0 0 0.042-0.1339 2.0704 2.9329 0 0 0 0.037-0.1379 2.0704 2.9329 0 0 0 0.032-0.1349 2.0704 2.9329 0 0 0 0.027-0.1514 2.0704 2.9329 0 0 0 0.021-0.1354 2.0704 2.9329 0 0 0 0.015-0.1504 2.0704 2.9329 0 0 0 0.015-0.14 2.0704 2.9329 0 0 0 0.014-0.2517 2.0704 2.9329 0 0 0-0.014-0.2511 2.0704 2.9329 0 0 0-0.015-0.1422 2.0704 2.9329 0 0 0-0.015-0.1467 2.0704 2.9329 0 0 0-0.023-0.1468 2.0704 2.9329 0 0 0-0.023-0.1364 2.0704 2.9329 0 0 0-0.033-0.1452 2.0704 2.9329 0 0 0-0.034-0.1339 2.0704 2.9329 0 0 0-0.043-0.1374 2.0704 2.9329 0 0 0-0.043-0.1271 2.0704 2.9329 0 0 0-0.055-0.1359 2.0704 2.9329 0 0 0-0.05-0.1163 2.0704 2.9329 0 0 0-0.064-0.1266 2.0704 2.9329 0 0 0-0.058-0.1091 2.0704 2.9329 0 0 0-0.026-0.039v2.1828h-3.0758z"
             opacity=".174"
             stroke="#000"
             stroke-linecap="square"
             stroke-linejoin="bevel"
             stroke-width=".26458"
             id="path3151"
             style="fill:#ffffff" />
          <g
             transform="matrix(1.5399 0 0 1.8966 902.59 -124.52)"
             shape-rendering="auto"
             id="g3157"
             style="fill:#ffffff">
            <path
               d="m-2259.2 757.42c-0.8742-1.6698-0.186 68.815-0.186 83.057 0 15.882-0.2331 141.67-0.2331 226.16l3.0369-0.043c14.732-0.2097 29.686 0.5119 44.74-0.5354h0.045c16.9-1.4249 32.323-11.978 38.363-27.282 7.4459-18.296 7.5732-38.507 4.1309-57.277v-0.0238c-1.9285-10.053-7.4766-20.401-18.109-25.156l-0.1132-0.0506-0.1172-0.0408c-3.7375-1.3116-6.2384-3.8003-7.9685-6.9629-1.7301-3.1625-2.581-6.9994-2.6897-10.506-0.08-2.5787 1.2131-6.1774 3.0607-9.9508 1.8473-3.7735 4.1484-7.6796 5.5843-11.525 4.1878-11.218 3.1295-25.36-1.4962-36.715-3.21-7.8797-9.7753-13.77-16.25-18.252-10.302-7.1312-19.105-7.7164-33.607-13.18-1.3068-0.49234-4.8715-2.8039-7.5015-5.0369-1.315-1.1165-2.5786-2.2072-3.7536-3.0959-0.5877-0.44434-1.1491-19.069-1.7582-39.214-0.6091-20.145-0.7781-38.585-1.9577-40.815zm5.5692 89.791c0.594 0.49516 1.0888 0.88365 1.7595 1.4531 2.6625 2.2606 5.5076 4.8538 8.7464 6.074 15.085 5.6832 23.223 6.2117 32.311 12.502 5.9862 4.1439 11.606 9.4319 14.113 15.588 4.0691 9.988 4.8993 23.073 1.4317 32.361-1.1491 3.077-3.3742 6.9474-5.3517 10.986s-3.8068 8.2898-3.6679 12.77c0.1333 4.3116 1.1244 8.9991 3.42 13.195 2.2722 4.1536 5.9295 7.8227 11.083 9.679-0.024-0.0111-0.048-0.0236-0.073-0.0346l0.2305 0.092c-0.053-0.0185-0.1045-0.0384-0.1572-0.0574 8.3236 3.759 12.926 12.079 14.597 20.778v6e-3c3.2964 17.992 3.0776 37.055-3.8008 53.939l-0.022 0.032c-5.0922 12.908-18.579 22.273-33.295 23.516 0 2e-4 0 0-0.011 0-13.582 0.9417-27.4 0.4314-41.33 0.5251z"
               color="#000000"
               color-rendering="auto"
               dominant-baseline="auto"
               image-rendering="auto"
               opacity=".894"
               solid-color="#000000"
               style="font-feature-settings:normal;font-variant-alternates:normal;font-variant-caps:normal;font-variant-ligatures:normal;font-variant-numeric:normal;font-variant-position:normal;isolation:auto;mix-blend-mode:normal;shape-padding:0;text-decoration-color:#000000;text-decoration-line:none;text-decoration-style:solid;text-indent:0;text-orientation:mixed;text-transform:none;white-space:normal;fill:#ffffff"
               id="path3153" />
            <path
               d="m-2243.5 944.81c-2.8166 0.0216-5.0712 3.9805-3.928 7.3386 0.8294 2.5668 3.0159 3.7586 4.3338 5.8701 2.4893 3.1332 4.2077 7.5007 3.8394 12.032-0.3984 6.0339-1.786 12.156-0.381 18.163 1.8446 8.475 7.4343 14.53 12.982 19.245 2.816 2.1125 6.9884-0.8343 6.6783-5.1185-0.07-2.7256-2.0465-4.2898-3.6367-5.6365-3.348-3.2362-7.0335-7.1767-7.6756-12.778-0.4259-5.597 1.3672-11.04 0.9258-16.629-0.3777-8.9526-5.1955-16.451-10.612-21.696-0.7573-0.56931-1.6473-0.84431-2.5262-0.79066z"
               color="#000000"
               color-rendering="auto"
               dominant-baseline="auto"
               image-rendering="auto"
               opacity=".894"
               solid-color="#000000"
               style="font-feature-settings:normal;font-variant-alternates:normal;font-variant-caps:normal;font-variant-ligatures:normal;font-variant-numeric:normal;font-variant-position:normal;isolation:auto;mix-blend-mode:normal;shape-padding:0;text-decoration-color:#000000;text-decoration-line:none;text-decoration-style:solid;text-indent:0;text-orientation:mixed;text-transform:none;white-space:normal;fill:#ffffff"
               id="path3155" />
          </g>
        </g>
        <g
           transform="matrix(1.8966 0 0 1.8966 2361.5 -107.17)"
           shape-rendering="auto"
           id="g3165"
           style="fill:#ffffff">
          <path
             d="m-2259.2 757.42c-0.8742-1.6698-0.186 68.815-0.186 83.057 0 15.882-0.2331 141.67-0.2331 226.16l3.0369-0.043c14.732-0.2097 29.686 0.5119 44.74-0.5354h0.045c16.9-1.4249 32.323-11.978 38.363-27.282 7.4459-18.296 7.5732-38.507 4.1309-57.277v-0.0238c-1.9285-10.053-7.4766-20.401-18.109-25.156l-0.1132-0.0506-0.1172-0.0408c-3.7375-1.3116-6.2384-3.8003-7.9685-6.9629-1.7301-3.1625-2.581-6.9994-2.6897-10.506-0.08-2.5787 1.2131-6.1774 3.0607-9.9508 1.8473-3.7735 4.1484-7.6796 5.5843-11.525 4.1878-11.218 3.1295-25.36-1.4962-36.715-3.21-7.8797-9.7753-13.77-16.25-18.252-10.302-7.1312-19.105-7.7164-33.607-13.18-1.3068-0.49234-4.8715-2.8039-7.5015-5.0369-1.315-1.1165-2.5786-2.2072-3.7536-3.0959-0.5877-0.44434-1.1491-19.069-1.7582-39.214-0.6091-20.145-0.7781-38.585-1.9577-40.815zm5.5692 89.791c0.594 0.49516 1.0888 0.88365 1.7595 1.4531 2.6625 2.2606 5.5076 4.8538 8.7464 6.074 15.085 5.6832 23.223 6.2117 32.311 12.502 5.9862 4.1439 11.606 9.4319 14.113 15.588 4.0691 9.988 4.8993 23.073 1.4317 32.361-1.1491 3.077-3.3742 6.9474-5.3517 10.986s-3.8068 8.2898-3.6679 12.77c0.1333 4.3116 1.1244 8.9991 3.42 13.195 2.2722 4.1536 5.9295 7.8227 11.083 9.679-0.024-0.0111-0.048-0.0236-0.073-0.0346l0.2305 0.092c-0.053-0.0185-0.1045-0.0384-0.1572-0.0574 8.3236 3.759 12.926 12.079 14.597 20.778v6e-3c3.2964 17.992 3.0776 37.055-3.8008 53.939l-0.022 0.032c-5.0922 12.908-18.579 22.273-33.295 23.516 0 2e-4 0 0-0.011 0-13.582 0.9417-27.4 0.4314-41.33 0.5251z"
             color="#000000"
             color-rendering="auto"
             dominant-baseline="auto"
             image-rendering="auto"
             opacity=".894"
             solid-color="#000000"
             style="font-feature-settings:normal;font-variant-alternates:normal;font-variant-caps:normal;font-variant-ligatures:normal;font-variant-numeric:normal;font-variant-position:normal;isolation:auto;mix-blend-mode:normal;shape-padding:0;text-decoration-color:#000000;text-decoration-line:none;text-decoration-style:solid;text-indent:0;text-orientation:mixed;text-transform:none;white-space:normal;fill:#ffffff"
             id="path3161" />
          <path
             d="m-2243.5 944.81c-2.8166 0.0216-5.0712 3.9805-3.928 7.3386 0.8294 2.5668 3.0159 3.7586 4.3338 5.8701 2.4893 3.1332 4.2077 7.5007 3.8394 12.032-0.3984 6.0339-1.786 12.156-0.381 18.163 1.8446 8.475 7.4343 14.53 12.982 19.245 2.816 2.1125 6.9884-0.8343 6.6783-5.1185-0.07-2.7256-2.0465-4.2898-3.6367-5.6365-3.348-3.2362-7.0335-7.1767-7.6756-12.778-0.4259-5.597 1.3672-11.04 0.9258-16.629-0.3777-8.9526-5.1955-16.451-10.612-21.696-0.7573-0.56931-1.6473-0.84431-2.5262-0.79066z"
             color="#000000"
             color-rendering="auto"
             dominant-baseline="auto"
             image-rendering="auto"
             opacity=".894"
             solid-color="#000000"
             style="font-feature-settings:normal;font-variant-alternates:normal;font-variant-caps:normal;font-variant-ligatures:normal;font-variant-numeric:normal;font-variant-position:normal;isolation:auto;mix-blend-mode:normal;shape-padding:0;text-decoration-color:#000000;text-decoration-line:none;text-decoration-style:solid;text-indent:0;text-orientation:mixed;text-transform:none;white-space:normal;fill:#ffffff"
             id="path3163" />
        </g>
        <path
           d="m-2131.1 1529.8-18.709 18.709 47.573 50.494-155.63-1.1694v27.942l156.21-0.2925-48.157 46.111 18.709 18.707 80.041-80.041h0.4202l-0.2104-0.2098 0.2104-0.2103h-0.4202z"
           color="#000000"
           color-rendering="auto"
           dominant-baseline="auto"
           image-rendering="auto"
           opacity=".582"
           shape-rendering="auto"
           solid-color="#000000"
           style="font-feature-settings:normal;font-variant-alternates:normal;font-variant-caps:normal;font-variant-ligatures:normal;font-variant-numeric:normal;font-variant-position:normal;isolation:auto;mix-blend-mode:normal;shape-padding:0;text-decoration-color:#000000;text-decoration-line:none;text-decoration-style:solid;text-indent:0;text-orientation:mixed;text-transform:none;white-space:normal;fill:#ffffff"
           id="path3167" />
      </g>
      <g
         transform="matrix(.069256 0 0 .069256 59.633 36.97)"
         id="g3181"
         style="fill:#ffffff">
        <g
           transform="translate(1.3479e-5 8.0482e-5)"
           shape-rendering="auto"
           id="g3175"
           style="fill:#ffffff">
          <path
             d="m-2259.2 757.42c-0.8742-1.6698-0.186 68.815-0.186 83.057 0 15.882-0.2331 141.67-0.2331 226.16l3.0369-0.043c14.732-0.2097 29.686 0.5119 44.74-0.5354h0.045c16.9-1.4249 32.323-11.978 38.363-27.282 7.4459-18.296 7.5732-38.507 4.1309-57.277v-0.0238c-1.9285-10.053-7.4766-20.401-18.109-25.156l-0.1132-0.0506-0.1172-0.0408c-3.7375-1.3116-6.2384-3.8003-7.9685-6.9629-1.7301-3.1625-2.581-6.9994-2.6897-10.506-0.08-2.5787 1.2131-6.1774 3.0607-9.9508 1.8473-3.7735 4.1484-7.6796 5.5843-11.525 4.1878-11.218 3.1295-25.36-1.4962-36.715-3.21-7.8797-9.7753-13.77-16.25-18.252-10.302-7.1312-19.105-7.7164-33.607-13.18-1.3068-0.49234-4.8715-2.8039-7.5015-5.0369-1.315-1.1165-2.5786-2.2072-3.7536-3.0959-0.5877-0.44434-1.1491-19.069-1.7582-39.214-0.6091-20.145-0.7781-38.585-1.9577-40.815zm5.5692 89.791c0.594 0.49516 1.0888 0.88365 1.7595 1.4531 2.6625 2.2606 5.5076 4.8538 8.7464 6.074 15.085 5.6832 23.223 6.2117 32.311 12.502 5.9862 4.1439 11.606 9.4319 14.113 15.588 4.0691 9.988 4.8993 23.073 1.4317 32.361-1.1491 3.077-3.3742 6.9474-5.3517 10.986s-3.8068 8.2898-3.6679 12.77c0.1333 4.3116 1.1244 8.9991 3.42 13.195 2.2722 4.1536 5.9295 7.8227 11.083 9.679-0.024-0.0111-0.048-0.0236-0.073-0.0346l0.2305 0.092c-0.053-0.0185-0.1045-0.0384-0.1572-0.0574 8.3236 3.759 12.926 12.079 14.597 20.778v6e-3c3.2964 17.992 3.0776 37.055-3.8008 53.939l-0.022 0.032c-5.0922 12.908-18.579 22.273-33.295 23.516 0 2e-4 0 0-0.011 0-13.582 0.9417-27.4 0.4314-41.33 0.5251z"
             color="#000000"
             color-rendering="auto"
             dominant-baseline="auto"
             image-rendering="auto"
             opacity=".894"
             solid-color="#000000"
             style="font-feature-settings:normal;font-variant-alternates:normal;font-variant-caps:normal;font-variant-ligatures:normal;font-variant-numeric:normal;font-variant-position:normal;isolation:auto;mix-blend-mode:normal;shape-padding:0;text-decoration-color:#000000;text-decoration-line:none;text-decoration-style:solid;text-indent:0;text-orientation:mixed;text-transform:none;white-space:normal;fill:#ffffff"
             id="path3171" />
          <path
             d="m-2243.5 944.81c-2.8166 0.0216-5.0712 3.9805-3.928 7.3386 0.8294 2.5668 3.0159 3.7586 4.3338 5.8701 2.4893 3.1332 4.2077 7.5007 3.8394 12.032-0.3984 6.0339-1.786 12.156-0.381 18.163 1.8446 8.475 7.4343 14.53 12.982 19.245 2.816 2.1125 6.9884-0.8343 6.6783-5.1185-0.07-2.7256-2.0465-4.2898-3.6367-5.6365-3.348-3.2362-7.0335-7.1767-7.6756-12.778-0.4259-5.597 1.3672-11.04 0.9258-16.629-0.3777-8.9526-5.1955-16.451-10.612-21.696-0.7573-0.56931-1.6473-0.84431-2.5262-0.79066z"
             color="#000000"
             color-rendering="auto"
             dominant-baseline="auto"
             image-rendering="auto"
             opacity=".894"
             solid-color="#000000"
             style="font-feature-settings:normal;font-variant-alternates:normal;font-variant-caps:normal;font-variant-ligatures:normal;font-variant-numeric:normal;font-variant-position:normal;isolation:auto;mix-blend-mode:normal;shape-padding:0;text-decoration-color:#000000;text-decoration-line:none;text-decoration-style:solid;text-indent:0;text-orientation:mixed;text-transform:none;white-space:normal;fill:#ffffff"
             id="path3173" />
        </g>
        <path
           d="m-2301.3 991.16h-72.861l-15.455 47.102h-11.776l56.67-167.8h14.719l56.67 167.8h-12.512zm-3.1892-10.304-32.873-100.83-33.364 100.83z"
           id="path3177"
           style="fill:#ffffff" />
        <path
           d="m-2141.9 1038.3h-11.53v-167.8h11.53zm15.21-90.524 75.805 90.524h-14.474l-75.56-90.034 72.37-77.767h13.493z"
           id="path3179"
           style="fill:#ffffff" />
      </g>
    </g>
  </g>
</svg>
