<?xml version="1.0" encoding="UTF-8"?>
<!-- Created with Inkscape (http://www.inkscape.org/) -->
<svg width="226.99mm" height="56.838mm" version="1.1" viewBox="0 0 226.99 56.838" xmlns="http://www.w3.org/2000/svg" xmlns:cc="http://creativecommons.org/ns#" xmlns:dc="http://purl.org/dc/elements/1.1/" xmlns:rdf="http://www.w3.org/1999/02/22-rdf-syntax-ns#">
 <metadata>
  <rdf:RDF>
   <cc:Work rdf:about="">
    <dc:format>image/svg+xml</dc:format>
    <dc:type rdf:resource="http://purl.org/dc/dcmitype/StillImage"/>
    <dc:title/>
   </cc:Work>
  </rdf:RDF>
 </metadata>
 <g transform="translate(281.67 -61.801)">
  <g transform="translate(0 .83899)">
   <g transform="translate(-266.46 -43.064)" fill="#fff">
    <path d="m44.346 145.82h-2.816l-3.0125 10.937-3.1653-10.937h-2.7942l-1.2443 15.04h1.9646l0.50208-6.6361c0.17463-2.2048 0.28378-4.5405 0.28378-6.3087l3.4272 11.242h1.9428l3.2526-11.22c0.02183 1.2443 0.17464 3.7765 0.3711 6.134l0.5239 6.7889h2.0083z"/>
    <path d="m46.438 145.82-0.6444 1.7234 0.40514 4.9046 1.7151-4.9036 2.7228 7.8584h-4.1941l0.13901 1.681h4.6405l1.3229 3.7765h2.5451l-5.5986-15.04z"/>
    <path d="m51.826 145.82v2.5905l2.2614 6.0756h2.1482l3.6018 6.3743h2.467l-4.0602-6.7453c2.1611-0.65488 3.2525-1.9211 3.2525-4.0385 0-2.816-1.9649-4.2566-5.7195-4.2566zm2.0738 1.6154h1.8557c2.4667 0 3.5362 0.76386 3.5362 2.6412 0 2.0301-1.2003 2.8158-3.2959 2.8158h-2.096z"/>
    <path d="m65.451 145.82c-2.2758 0-4.2884 1.2417-5.3139 3.6329l1.4139 3.7987c0.02249-4.3248 1.8464-5.7862 4.0266-5.7862 1.0125 0 1.8984 0.3376 2.8055 1.0759l1.0971-1.2873c-1.1602-0.92816-2.194-1.434-4.0292-1.434zm3.2065 12.15c-0.82269 0.61174-1.73 1.2025-3.1011 1.2025-0.74085 0-1.425-0.18132-2.0128-0.56793l0.80202 2.1544c0.36915 0.0661 0.75183 0.10129 1.1477 0.10129 1.9618 0 3.3542-0.80202 4.1558-1.6247z"/>
    <path d="m69.462 145.82 1.264 3.3957v-1.7368h5.8281l0.24029-1.6588zm2.4458 6.5707 0.61753 1.6588h3.2649v-1.6588zm2.5352 6.8104 0.61753 1.6593h1.9084v-1.6593zm-5.7909 1.0868v0.57258h0.17157z"/>
   </g>
  </g>
  <g transform="translate(-5.8208 .68452)">
   <g transform="translate(-218.2 -82.108)" fill="#fff">
    <g transform="translate(46.869 -72.571)" fill="#fff">
     <path d="m74.711 233.93h-2.0219l-4.2707-12.606v12.606h-1.8156v-15.04h2.6615l4.4564 13.101 4.3739-13.101h2.6615v15.04h-1.8156v-12.606z"/>
     <path d="m89.895 230.08 1.2006 3.842h1.9646l-4.8898-15.04h-2.4012l-4.9116 15.04h1.8773l1.2006-3.842zm-5.4573-1.5717 2.4885-8.0114 2.4667 8.0114z"/>
     <path d="m93.163 218.89v15.04h1.8774v-2.3068l-5.16e-4 -5.1e-4v-1.1353l0.0072-0.39945h1.7921l0.23099 0.39945 1.6356 3.4427h2.1477l-1.8624-3.7367c2.0738-0.70648 3.6675-2.5609 3.6675-5.5929 0-3.7679-1.9429-5.7108-5.6539-5.7108zm1.8774 2.0603h2.1828c2.3139 0 3.4272 1.0305 3.4272 3.6504 0 2.7965-1.2444 3.8856-3.4055 3.8856h-2.2045z"/>
     <path d="m109 218.89c-3.3635 0-6.2404 2.6019-6.2404 7.5096 0 4.9077 2.7712 7.5308 6.325 7.5308 2.0731 0 3.4692-0.71923 4.3577-1.5865l-0.95192-1.1846c-0.78269 0.61346-1.7558 1.2058-3.3846 1.2058-2.4962 0-4.4212-1.6288-4.4212-5.9654 0-4.4423 2.0731-5.9654 4.4423-5.9654 1.1212 0 2.1365 0.29615 3.0673 1.0788l1.0365-1.2058c-1.1635-0.90961-2.3269-1.4173-4.2308-1.4173z"/>
     <path d="m113.55 218.89v15.04h8.7318v-1.5281h-6.8544v-2.3141h5.5883v-1.5715h-5.5883v-8.0553h6.4399l0.21807-1.5715z"/>
     <path d="m122.48 225.52v-0.40051"/>
     <path d="m122.38 227.38v-0.30438"/>
    </g>
   </g>
  </g>
  <g transform="translate(1.4791 .68438)">
   <g transform="translate(-404.75 -81.841)" fill="#fff">
    <path d="m268.49 152.68v-0.40051"/>
    <path d="m268.39 154.54v-0.30438"/>
    <g transform="translate(41.524 -72.571)">
     <path d="m165.74 218.62v8.1985c0.605 0.0575 1.21 0.11396 1.8154 0.1664v-5.9304l2.0655 6.0973c0.5754 0.0445 1.1508 0.0889 1.7265 0.12919l-2.9461-8.661zm11.492 0-2.9538 8.848c0.5392 0.0313 1.0786 0.0605 1.618 0.0884l2.1818-6.5019v6.6048c0.60502 0.0263 1.2102 0.0531 1.8154 0.0755v-9.1147zm7.675 0-2.9983 9.1819c0.59665 0.018 1.1933 0.0325 1.7901 0.047l2.3652-7.6135 2.3699 7.6967c0.63544 6e-3 1.2708 0.0103 1.9064 0.0134l-3.0319-9.3255zm7.3934 0v9.3297c0.62585-1e-5 1.2516 2.4e-4 1.8774-3e-3l-5.2e-4 -7.2667h2.1833c2.3139 0 3.4272 1.0305 3.4272 3.6504 0 1.9699-0.61958 3.0896-1.7399 3.5812 0.92532-0.0119 1.8504-0.026 2.7755-0.0429 0.60564-0.91407 0.97203-2.0903 0.97203-3.5383 0-3.7679-1.9429-5.7108-5.6539-5.7108zm15.838 0c-3.3635 0-6.2404 2.6019-6.2404 7.5096 0 0.60752 0.0429 1.1798 0.12402 1.7167 0.63896-0.013 1.2774-0.03 1.9162-0.045-0.0729-0.50726-0.11524-1.0596-0.11524-1.6717 0-4.4423 2.0734-5.9655 4.4426-5.9655 1.1212 0 2.1362 0.29631 3.067 1.079l1.0366-1.2061c-1.1635-0.90961-2.3269-1.417-4.2307-1.417zm4.5444 0v8.8517c0.62571-0.0302 1.2511-0.0627 1.8774-0.0951v-7.1851h6.4399l0.21808-1.5715zm-46.942 10.293v4.7475h1.8154v-4.6023c-0.60493-0.0463-1.2099-0.0954-1.8154-0.14521zm54.408 0.12299c-2.4866 0.19509-4.9751 0.36123-7.4657 0.49661v4.1279h8.7318v-1.5281h-6.8544v-2.3141h5.5883zm-49.804 0.25012 1.4821 4.3744h2.0221l1.3761-4.101c-0.53938-0.0259-1.0788-0.0512-1.618-0.0791l-0.74827 2.2407-0.79065-2.3244c-0.40098-0.0222-0.80215-0.0424-1.203-0.0656-0.17286-0.0164-0.34715-0.0294-0.52038-0.045zm7.7339 0.40101v3.9734h1.8154v-3.9016c-0.60523-0.0223-1.2103-0.0469-1.8154-0.0718zm3.1765 0.11834-1.2588 3.8551h1.8769l1.187-3.7972c-0.60178-0.0174-1.2034-0.0377-1.8051-0.0579zm23.285 0.0672c-0.64726 0.0191-1.2946 0.0393-1.942 0.0548 1.0399 2.449 3.1407 3.7331 5.6255 3.7331 2.0731 0 3.4689-0.71968 4.3574-1.587l-0.95188-1.1844c-0.78269 0.61346-1.7554 1.2056-3.3843 1.2056-1.5766 0-2.9248-0.65072-3.7047-2.2221zm-15.453 0.11834 1.1467 3.6696h1.9647l-1.1865-3.6494c-0.64168-5e-3 -1.2833-0.0115-1.9249-0.0202zm9.0801 0.0108c-0.69109 8e-3 -1.3821 0.0159-2.0733 0.0196l0.11369 0.19637 1.6356 3.4427h2.1477zm-5.8663 0.0186v3.6401h1.8769v-3.4427l3e-3 -0.19378c-0.62668 7e-5 -1.2533-5e-4 -1.88-4e-3z"/>
     <path d="m221.98 222.62v1.0051c2.9258 0.29078 5.3436 0.6238 7.0311 0.98651 0.95477 0.20521 1.6879 0.4233 2.1425 0.62528 0.2148 0.0954 0.35345 0.18562 0.42788 0.24805-0.0746 0.0624-0.21349 0.1528-0.42788 0.24805-0.45464 0.20198-1.1877 0.41748-2.1425 0.6227-1.9096 0.41042-4.713 0.7885-8.1814 1.1038-6.9369 0.63063-16.542 1.0211-27.15 1.0211s-20.212-0.39049-27.149-1.0211c-3.4684-0.31531-6.2739-0.69339-8.1835-1.1038-0.95478-0.20522-1.6879-0.42072-2.1425-0.6227-0.21435-0.0952-0.35123-0.18561-0.42582-0.24805 0.0744-0.0624 0.21106-0.15265 0.42582-0.24805 0.45464-0.20198 1.1877-0.42007 2.1425-0.62528 1.5958-0.34301 3.8469-0.65941 6.5583-0.93896v-1.0051c-2.7773 0.28398-5.0895 0.60682-6.767 0.96738-0.99136 0.21308-1.7699 0.4346-2.3399 0.68782-0.28499 0.12661-0.51984 0.25847-0.71314 0.43149-0.1933 0.17305-0.36535 0.42425-0.36535 0.73071s0.17205 0.55715 0.36535 0.73019 0.42815 0.30334 0.71314 0.42994c0.56998 0.25323 1.3486 0.4763 2.3399 0.68937 1.9827 0.42616 4.8095 0.80192 8.3008 1.1193 6.9826 0.63478 16.608 1.0273 27.24 1.0273 10.632 0 20.258-0.39255 27.24-1.0273 3.4913-0.31739 6.3196-0.69315 8.3023-1.1193 0.99136-0.21307 1.7684-0.43614 2.3384-0.68937 0.28499-0.1266 0.51932-0.2569 0.71262-0.42994s0.36535-0.42373 0.36535-0.73019-0.17205-0.55766-0.36535-0.73071c-0.1933-0.17302-0.42763-0.30488-0.71262-0.43149-0.56998-0.25322-1.347-0.47474-2.3384-0.68782-1.7717-0.3808-4.25-0.71998-7.2419-1.0149z" color="#000000" color-rendering="auto" dominant-baseline="auto" image-rendering="auto" shape-rendering="auto" solid-color="#000000" style="font-feature-settings:normal;font-variant-alternates:normal;font-variant-caps:normal;font-variant-ligatures:normal;font-variant-numeric:normal;font-variant-position:normal;isolation:auto;mix-blend-mode:normal;shape-padding:0;text-decoration-color:#000000;text-decoration-line:none;text-decoration-style:solid;text-indent:0;text-orientation:mixed;text-transform:none;white-space:normal"/>
    </g>
   </g>
  </g>
  <g transform="translate(-457.05 -43.284)" fill="#fff">
   <g transform="translate(46.869 -72.571)" fill="#fff">
    <g transform="matrix(2.4863 0 0 2.4863 -152.09 -233.81)" stroke-width=".26458" aria-label="MARCE">
     <path d="m170.97 180.93h-0.56092l-1.9368 5.8843-1.9791-5.8843h-0.55033l-0.74084 7.2178h0.35984l0.35983-3.683c0.11642-1.143 0.27517-2.5718 0.3175-3.1962l2.0532 6.0008h0.34925l2.0108-6.0008c0.0529 0.6985 0.20108 2.0955 0.32808 3.2808l0.39159 3.5983h0.35983z"/>
     <path d="m177.79 188.14h0.39158l-2.4765-7.2178h-0.45508l-2.4765 7.2178h0.37042l0.6985-2.0849h3.2491zm-3.8312-2.4236 1.5134-4.4979 1.5028 4.4979z"/>
     <path d="m183.7 188.14h0.4445l-2.0108-3.429c0.99484-0.22225 1.6404-0.762 1.6404-1.8838 0-1.2277-0.75142-1.905-2.4448-1.905h-1.6404v7.2178h0.37042v-3.3655h1.6828zm-3.6407-3.7042v-3.1856h1.2382c1.524 0 2.0849 0.56092 2.0849 1.5769 0 1.1112-0.73025 1.6087-1.9791 1.6087z"/>
     <path d="m188.14 180.81c-1.5875 0-2.8681 1.2277-2.8681 3.7253 0 2.4236 1.2171 3.7148 2.8363 3.7148 0.83609 0 1.4076-0.29634 1.8627-0.6985l-0.21167-0.26459c-0.43391 0.35984-0.84666 0.61384-1.6404 0.61384-1.3652 0-2.4659-1.1007-2.4659-3.3655 0-2.3918 1.1324-3.3761 2.5082-3.3761 0.64558 0 1.0266 0.16934 1.524 0.55034l0.20108-0.26459c-0.46566-0.39158-0.94191-0.635-1.7462-0.635z"/>
     <path d="m194.99 180.93h-3.4925v7.2178h3.556v-0.33866h-3.1856v-3.2914h2.6564v-0.32808h-2.6564v-2.921h3.0692z"/>
    </g>
    <path transform="scale(.26458)" d="m953.84 814.52v71.76h16.156v-3.9355h-12.223v-63.889h12.223v-3.9355zm311.87 0v3.9355h12.225v63.889h-12.225v3.9355h16.16v-71.76z" color="#000000" color-rendering="auto" dominant-baseline="auto" image-rendering="auto" shape-rendering="auto" solid-color="#000000" style="font-feature-settings:normal;font-variant-alternates:normal;font-variant-caps:normal;font-variant-ligatures:normal;font-variant-numeric:normal;font-variant-position:normal;isolation:auto;mix-blend-mode:normal;shape-padding:0;text-decoration-color:#000000;text-decoration-line:none;text-decoration-style:solid;text-indent:0;text-orientation:mixed;text-transform:none;white-space:normal"/>
   </g>
  </g>
  <g transform="translate(-1.2459e-5)" fill="#fff">
   <path d="m-276.35 65.789v14.142h1.8567v-12.418l3.3042 8.7902h5.9118v3.6277h1.866v-14.142h-2.9606l-3.5931 9.4242-3.5342-9.4242zm11.056 1.8852 0.0165 0.04496v6.9929h-2.6081zm3.3672 0.21032v12.046h2.1105v-3.6561h2.2019l1.973 3.6561h2.2722l-2.2707-4.0168c1.9293-0.61602 2.9507-1.9758 2.9507-3.9088 0-2.6552-1.7705-4.1207-5.5836-4.1207zm16.206 0c-3.0445 0-5.4844 1.9572-5.4844 6.0064 0 4.0492 2.3148 6.0399 5.4844 6.0399 1.689 0 2.9192-0.60741 3.7533-1.2991l-0.97979-0.92811c-0.72984 0.48928-1.4596 0.92811-2.6691 0.92811-2.0227 0-3.545-1.3327-3.545-4.7408 0-3.543 1.564-4.7408 3.545-4.7408 0.98007 0 1.7098 0.26955 2.5022 0.82631l1.001-0.94464c-1.0218-0.72548-2.0227-1.1472-3.6075-1.1472zm5.5929 0v12.046h9.2377v-1.278h-6.7474v-2.4123h5.5382v-1.449h-5.5382v-5.6462h6.3727l0.29456-1.2609zm-19.689 1.5079h1.4981c2.474 0 3.4272 0.84971 3.4272 2.6128 0 1.933-1.0668 2.7616-3.2231 2.7616h-1.7022z"/>
   <path d="m-281.67 61.801v22.117h56.094v-22.117zm1 1h54.094v20.117h-54.094z" color="#000000" color-rendering="auto" dominant-baseline="auto" image-rendering="auto" shape-rendering="auto" solid-color="#000000" style="font-feature-settings:normal;font-variant-alternates:normal;font-variant-caps:normal;font-variant-ligatures:normal;font-variant-numeric:normal;font-variant-position:normal;isolation:auto;mix-blend-mode:normal;shape-padding:0;text-decoration-color:#000000;text-decoration-line:none;text-decoration-style:solid;text-indent:0;text-orientation:mixed;text-transform:none;white-space:normal"/>
  </g>
 </g>
</svg>
