<?xml version="1.0" encoding="UTF-8" standalone="no"?>
<!-- Created with Inkscape (http://www.inkscape.org/) -->

<svg
   xmlns:dc="http://purl.org/dc/elements/1.1/"
   xmlns:cc="http://creativecommons.org/ns#"
   xmlns:rdf="http://www.w3.org/1999/02/22-rdf-syntax-ns#"
   xmlns:svg="http://www.w3.org/2000/svg"
   xmlns="http://www.w3.org/2000/svg"
   xmlns:sodipodi="http://sodipodi.sourceforge.net/DTD/sodipodi-0.dtd"
   xmlns:inkscape="http://www.inkscape.org/namespaces/inkscape"
   width="84.574mm"
   height="43.884mm"
   version="1.1"
   viewBox="0 0 84.574 43.884"
   id="svg2382"
   sodipodi:docname="logo-process.svg"
   inkscape:version="0.92.4 5da689c313, 2019-01-14">
  <defs
     id="defs2386" />
  <sodipodi:namedview
     pagecolor="#ffffff"
     bordercolor="#666666"
     borderopacity="1"
     objecttolerance="10"
     gridtolerance="10"
     guidetolerance="10"
     inkscape:pageopacity="0"
     inkscape:pageshadow="2"
     inkscape:window-width="1920"
     inkscape:window-height="1023"
     id="namedview2384"
     showgrid="false"
     inkscape:pagecheckerboard="true"
     inkscape:zoom="3.9042733"
     inkscape:cx="161.1983"
     inkscape:cy="82.41545"
     inkscape:window-x="0"
     inkscape:window-y="36"
     inkscape:window-maximized="1"
     inkscape:current-layer="svg2382" />
  <metadata
     id="metadata2282">
    <rdf:RDF>
      <cc:Work
         rdf:about="">
        <dc:format>image/svg+xml</dc:format>
        <dc:type
           rdf:resource="http://purl.org/dc/dcmitype/StillImage" />
        <dc:title></dc:title>
      </cc:Work>
    </rdf:RDF>
  </metadata>
  <g
     id="g2306"
     transform="matrix(0.03456019,0,0,0.03456019,10.808011,-35.087166)"
     style="fill:#ffffff">
    <path
       style="opacity:0.19299999;fill:#ffffff"
       inkscape:connector-curvature="0"
       id="path2284"
       d="m -137.98,1121.9 c 40.611,8.4589 81.78,10.215 123.95,0 v 18.709 c -42.874,7.7954 -84.19,7.7954 -123.95,0 z" />
    <path
       style="opacity:0.197;fill:#ffffff"
       inkscape:connector-curvature="0"
       id="path2286"
       d="m -76.29,1450.4 a 9.5607,9.5607 0 0 1 -9.5607,9.5607 9.5607,9.5607 0 0 1 -9.5607,-9.5607 9.5607,9.5607 0 0 1 9.5607,-9.5608 9.5607,9.5607 0 0 1 9.5607,9.5608 z" />
    <path
       style="opacity:0.197;fill:#ffffff"
       inkscape:connector-curvature="0"
       id="path2288"
       d="m -26.574,1449.9 a 9.5607,9.5607 0 0 1 -9.5607,9.5607 9.5607,9.5607 0 0 1 -9.5607,-9.5607 9.5607,9.5607 0 0 1 9.5607,-9.5607 9.5607,9.5607 0 0 1 9.5607,9.5607 z" />
    <path
       style="opacity:0.197;fill:#ffffff"
       inkscape:connector-curvature="0"
       id="path2290"
       d="m -101.15,1450.4 a 9.5607,9.5607 0 0 1 -9.5607,9.5607 9.5607,9.5607 0 0 1 -9.5607,-9.5607 9.5607,9.5607 0 0 1 9.5607,-9.5608 9.5607,9.5607 0 0 1 9.5607,9.5608 z" />
    <path
       style="opacity:0.197;fill:#ffffff"
       inkscape:connector-curvature="0"
       id="path2292"
       d="m -51.432,1449.9 a 9.5607,9.5607 0 0 1 -9.5607,9.5607 9.5607,9.5607 0 0 1 -9.5607,-9.5607 9.5607,9.5607 0 0 1 9.5607,-9.5607 9.5607,9.5607 0 0 1 9.5607,9.5607 z" />
    <path
       style="opacity:0.08800001;fill:#ffffff"
       inkscape:connector-curvature="0"
       id="path2294"
       d="m -139.19,1420 c 0,0 -2.9675,20.62 1.5899,37.628 3.2002,11.943 47.45,59.464 26.141,138.99 h 76.5 c -21.665,-80.855 22.941,-127.05 26.141,-138.99 C -4.2607,1440.62 -7.2282,1420 -7.2282,1420 Z m 78.199,20.325 a 9.5607,9.5607 0 0 1 9.5607,9.5607 9.5607,9.5607 0 0 1 -9.5607,9.5608 9.5607,9.5607 0 0 1 -9.5607,-9.5608 9.5607,9.5607 0 0 1 9.5607,-9.5607 z m 24.858,0 a 9.5607,9.5607 0 0 1 9.5607,9.5607 9.5607,9.5607 0 0 1 -9.5607,9.5608 9.5607,9.5607 0 0 1 -9.5607,-9.5608 9.5607,9.5607 0 0 1 9.5607,-9.5607 z m -74.574,0.4684 a 9.5607,9.5607 0 0 1 9.5607,9.5607 9.5607,9.5607 0 0 1 -9.5607,9.5609 9.5607,9.5607 0 0 1 -9.5607,-9.5609 9.5607,9.5607 0 0 1 9.5607,-9.5607 z m 24.858,0 a 9.5607,9.5607 0 0 1 9.5607,9.5607 9.5607,9.5607 0 0 1 -9.5607,9.5609 9.5607,9.5607 0 0 1 -9.5607,-9.5609 9.5607,9.5607 0 0 1 9.5607,-9.5607 z" />
    <g
       style="shape-rendering:auto;fill:#ffffff"
       id="g2304">
      <path
         inkscape:connector-curvature="0"
         id="path2296"
         style="color:#000000;font-variant-ligatures:normal;font-variant-position:normal;font-variant-caps:normal;font-variant-numeric:normal;font-variant-alternates:normal;font-feature-settings:normal;text-indent:0;text-decoration:none;text-decoration-line:none;text-decoration-style:solid;text-decoration-color:#000000;text-transform:none;text-orientation:mixed;dominant-baseline:auto;white-space:normal;shape-padding:0;opacity:0.08800001;isolation:auto;mix-blend-mode:normal;solid-color:#000000;color-rendering:auto;image-rendering:auto;fill:#ffffff"
         dominant-baseline="auto"
         d="m -113.03,1108.6 v 341.84 h 4.637 V 1108.6 Z" />
      <path
         inkscape:connector-curvature="0"
         id="path2298"
         style="color:#000000;font-variant-ligatures:normal;font-variant-position:normal;font-variant-caps:normal;font-variant-numeric:normal;font-variant-alternates:normal;font-feature-settings:normal;text-indent:0;text-decoration:none;text-decoration-line:none;text-decoration-style:solid;text-decoration-color:#000000;text-transform:none;text-orientation:mixed;dominant-baseline:auto;white-space:normal;shape-padding:0;opacity:0.08800001;isolation:auto;mix-blend-mode:normal;solid-color:#000000;color-rendering:auto;image-rendering:auto;fill:#ffffff"
         dominant-baseline="auto"
         d="m -88.17,1108.6 v 341.84 h 4.6376 V 1108.6 Z" />
      <path
         inkscape:connector-curvature="0"
         id="path2300"
         style="color:#000000;font-variant-ligatures:normal;font-variant-position:normal;font-variant-caps:normal;font-variant-numeric:normal;font-variant-alternates:normal;font-feature-settings:normal;text-indent:0;text-decoration:none;text-decoration-line:none;text-decoration-style:solid;text-decoration-color:#000000;text-transform:none;text-orientation:mixed;dominant-baseline:auto;white-space:normal;shape-padding:0;opacity:0.08800001;isolation:auto;mix-blend-mode:normal;solid-color:#000000;color-rendering:auto;image-rendering:auto;fill:#ffffff"
         dominant-baseline="auto"
         d="m -63.311,1108.6 v 339.89 h 4.637 V 1108.6 Z" />
      <path
         inkscape:connector-curvature="0"
         id="path2302"
         style="color:#000000;font-variant-ligatures:normal;font-variant-position:normal;font-variant-caps:normal;font-variant-numeric:normal;font-variant-alternates:normal;font-feature-settings:normal;text-indent:0;text-decoration:none;text-decoration-line:none;text-decoration-style:solid;text-decoration-color:#000000;text-transform:none;text-orientation:mixed;dominant-baseline:auto;white-space:normal;shape-padding:0;opacity:0.08800001;isolation:auto;mix-blend-mode:normal;solid-color:#000000;color-rendering:auto;image-rendering:auto;fill:#ffffff"
         dominant-baseline="auto"
         d="m -38.453,1108.6 v 339.89 h 4.6369 V 1108.6 Z" />
    </g>
  </g>
  <path
     style="color:#000000;font-style:normal;font-variant:normal;font-weight:normal;font-stretch:normal;font-size:medium;line-height:normal;font-family:sans-serif;font-variant-ligatures:normal;font-variant-position:normal;font-variant-caps:normal;font-variant-numeric:normal;font-variant-alternates:normal;font-feature-settings:normal;text-indent:0;text-align:start;text-decoration:none;text-decoration-line:none;text-decoration-style:solid;text-decoration-color:#000000;letter-spacing:normal;word-spacing:normal;text-transform:none;writing-mode:lr-tb;direction:ltr;text-orientation:mixed;dominant-baseline:auto;baseline-shift:baseline;text-anchor:start;white-space:normal;shape-padding:0;clip-rule:nonzero;display:inline;overflow:visible;visibility:visible;opacity:0.32646999;isolation:auto;mix-blend-mode:normal;color-interpolation:sRGB;color-interpolation-filters:linearRGB;solid-color:#000000;solid-opacity:1;vector-effect:none;fill:#ffffff;fill-opacity:1;fill-rule:nonzero;stroke:none;stroke-width:0.36575049;stroke-linecap:butt;stroke-linejoin:miter;stroke-miterlimit:4;stroke-dasharray:none;stroke-dashoffset:0;stroke-opacity:1;color-rendering:auto;image-rendering:auto;shape-rendering:auto;text-rendering:auto;enable-background:accumulate"
     d="M 12.513672,0.85742188 C 12.265743,0.85374717 12.046302,0.92668682 11.875,1.0292969 11.532396,1.234517 11.345703,1.5410156 11.345703,1.5410156 l 0.310547,0.1914063 c 0,0 0.151844,-0.2362822 0.40625,-0.3886719 0.254406,-0.1523897 0.575843,-0.2373379 1.046875,0.099609 0.187904,0.1344197 0.297931,0.3131315 0.357422,0.5527344 0.05949,0.2396028 0.06076,0.5376974 0.01953,0.875 -0.08245,0.674605 -0.338361,1.4970237 -0.582031,2.3242187 -0.24367,0.827195 -0.475437,1.6598883 -0.498047,2.3886719 -0.02261,0.7287835 0.191096,1.3884323 0.837891,1.7304687 0.57364,0.3033658 1.153167,0.1302981 1.55664,-0.1035156 C 15.204255,8.9771238 15.46875,8.671875 15.46875,8.671875 L 15.193359,8.4316406 c 0,0 -0.231728,0.263285 -0.576171,0.4628906 -0.344444,0.1996057 -0.765931,0.3258776 -1.201172,0.095703 C 12.904906,8.7199507 12.751069,8.2517859 12.771484,7.59375 12.7919,6.9357141 13.013377,6.1219902 13.255859,5.2988281 c 0.242483,-0.823162 0.50473,-1.6544844 0.59375,-2.3828125 0.04451,-0.364164 0.04623,-0.7036101 -0.0293,-1.0078125 C 13.744783,1.6040007 13.584865,1.3323853 13.322266,1.1445312 13.037305,0.94068794 12.7616,0.86109658 12.513672,0.85742188 Z"
     id="path2308"
     inkscape:connector-curvature="0" />
  <path
     style="color:#000000;font-style:normal;font-variant:normal;font-weight:normal;font-stretch:normal;font-size:medium;line-height:normal;font-family:sans-serif;font-variant-ligatures:normal;font-variant-position:normal;font-variant-caps:normal;font-variant-numeric:normal;font-variant-alternates:normal;font-feature-settings:normal;text-indent:0;text-align:start;text-decoration:none;text-decoration-line:none;text-decoration-style:solid;text-decoration-color:#000000;letter-spacing:normal;word-spacing:normal;text-transform:none;writing-mode:lr-tb;direction:ltr;text-orientation:mixed;dominant-baseline:auto;baseline-shift:baseline;text-anchor:start;white-space:normal;shape-padding:0;clip-rule:nonzero;display:inline;overflow:visible;visibility:visible;opacity:0.32646999;isolation:auto;mix-blend-mode:normal;color-interpolation:sRGB;color-interpolation-filters:linearRGB;solid-color:#000000;solid-opacity:1;vector-effect:none;fill:#ffffff;fill-opacity:1;fill-rule:nonzero;stroke:none;stroke-width:0.36575049;stroke-linecap:butt;stroke-linejoin:miter;stroke-miterlimit:4;stroke-dasharray:none;stroke-dashoffset:0;stroke-opacity:1;color-rendering:auto;image-rendering:auto;shape-rendering:auto;text-rendering:auto;enable-background:accumulate"
     d="M 4.0429688,0.85742188 C 3.7950402,0.86109658 3.5193356,0.94068794 3.234375,1.1445312 2.9717757,1.3323853 2.8099047,1.6040007 2.734375,1.9082031 2.6588453,2.2124055 2.6605678,2.5518516 2.7050781,2.9160156 2.7940988,3.6443437 3.058299,4.4756661 3.3007812,5.2988281 3.5432635,6.1219902 3.7647407,6.9357141 3.7851562,7.59375 3.8055718,8.2517859 3.6517347,8.7199507 3.140625,8.9902344 2.7053839,9.2204088 2.2838967,9.0941369 1.9394531,8.8945312 1.5950095,8.6949256 1.3632812,8.4316406 1.3632812,8.4316406 L 1.0878906,8.671875 c 0,0 0.2644953,0.3052488 0.6679688,0.5390625 C 2.1593329,9.4447512 2.7369069,9.6178189 3.3105469,9.3144531 3.9573418,8.9724167 4.1730011,8.3127679 4.1503906,7.5839844 4.1277801,6.8552008 3.8940609,6.0225075 3.6503906,5.1953125 3.4067203,4.3681175 3.1508137,3.5456988 3.0683594,2.8710938 3.0271322,2.5337912 3.0303533,2.2356966 3.0898438,1.9960938 3.1493342,1.7564909 3.2574085,1.5777791 3.4453125,1.4433594 3.9163443,1.1064121 4.2397344,1.1913603 4.4941406,1.34375 4.7485469,1.4961397 4.8984375,1.7324219 4.8984375,1.7324219 L 5.2089844,1.5410156 c 0,0 -0.18474,-0.3064986 -0.5273438,-0.5117187 C 4.5103387,0.92668682 4.2908973,0.85374717 4.0429688,0.85742188 Z"
     id="path2310"
     inkscape:connector-curvature="0" />
  <path
     inkscape:connector-curvature="0"
     id="path2318"
     style="color:#000000;font-variant-ligatures:normal;font-variant-position:normal;font-variant-caps:normal;font-variant-numeric:normal;font-variant-alternates:normal;font-feature-settings:normal;text-indent:0;text-decoration:none;text-decoration-line:none;text-decoration-style:solid;text-decoration-color:#000000;text-transform:none;text-orientation:mixed;dominant-baseline:auto;white-space:normal;shape-padding:0;opacity:0.58200001;isolation:auto;mix-blend-mode:normal;solid-color:#000000;stroke-width:0.02452121;color-rendering:auto;image-rendering:auto;shape-rendering:auto;fill:#ffffff"
     dominant-baseline="auto"
     d="M 21.960903,8.1022867 21.502135,8.561054 22.668683,9.799228 18.852447,9.770553 v 0.685171 l 3.830458,-0.0072 -1.180868,1.130698 0.458768,0.458718 1.962702,-1.962702 h 0.0103 l -0.0052,-0.0051 0.0052,-0.0052 h -0.0103 z" />
  <g
     id="g2332"
     transform="matrix(0.02452121,0,0,0.02452121,3.8020394,-32.893498)"
     style="fill:#ffffff">
    <path
       style="opacity:0.197;fill:#ffffff"
       inkscape:connector-curvature="0"
       id="path2320"
       d="m 1090.6,1672.2 a 26.346,26.346 0 0 1 -26.346,26.346 26.346,26.346 0 0 1 -26.346,-26.346 26.346,26.346 0 0 1 26.346,-26.347 26.346,26.346 0 0 1 26.346,26.347 z" />
    <path
       style="opacity:0.197;fill:#ffffff"
       inkscape:connector-curvature="0"
       id="path2322"
       d="m 1227.6,1670.9 a 26.346,26.346 0 0 1 -26.346,26.346 26.346,26.346 0 0 1 -26.346,-26.346 26.346,26.346 0 0 1 26.346,-26.346 26.346,26.346 0 0 1 26.346,26.346 z" />
    <path
       style="opacity:0.197;fill:#ffffff"
       inkscape:connector-curvature="0"
       id="path2324"
       d="m 1022.1,1672.2 a 26.346,26.346 0 0 1 -26.346,26.346 26.346,26.346 0 0 1 -26.346,-26.346 26.346,26.346 0 0 1 26.346,-26.347 26.346,26.346 0 0 1 26.346,26.347 z" />
    <path
       style="opacity:0.197;fill:#ffffff"
       inkscape:connector-curvature="0"
       id="path2326"
       d="m 1159.1,1670.9 a 26.346,26.346 0 0 1 -26.346,26.346 26.346,26.346 0 0 1 -26.346,-26.346 26.346,26.346 0 0 1 26.346,-26.346 26.346,26.346 0 0 1 26.346,26.346 z" />
    <path
       style="opacity:0.08800001;fill:#ffffff"
       inkscape:connector-curvature="0"
       id="path2328"
       d="m 917.31,1588.5 c 0,0 -8.1774,56.821 4.3812,103.69 8.8188,32.912 130.76,163.87 72.037,383.01 h 210.81 c -59.702,-222.81 63.219,-350.1 72.037,-383.01 12.559,-46.87 4.3813,-103.69 4.3813,-103.69 z m 215.49,56.01 a 26.346,26.346 0 0 1 26.346,26.346 26.346,26.346 0 0 1 -26.346,26.347 26.346,26.346 0 0 1 -26.346,-26.347 26.346,26.346 0 0 1 26.346,-26.346 z m 68.501,0 a 26.346,26.346 0 0 1 26.346,26.346 26.346,26.346 0 0 1 -26.346,26.347 26.346,26.346 0 0 1 -26.346,-26.347 26.346,26.346 0 0 1 26.346,-26.346 z m -205.5,1.2907 a 26.346,26.346 0 0 1 26.346,26.346 26.346,26.346 0 0 1 -26.346,26.347 26.346,26.346 0 0 1 -26.346,-26.347 26.346,26.346 0 0 1 26.346,-26.346 z m 68.501,0 a 26.346,26.346 0 0 1 26.346,26.346 26.346,26.346 0 0 1 -26.346,26.347 26.346,26.346 0 0 1 -26.346,-26.347 26.346,26.346 0 0 1 26.346,-26.346 z" />
    <path
       inkscape:connector-curvature="0"
       id="path2330"
       style="color:#000000;font-variant-ligatures:normal;font-variant-position:normal;font-variant-caps:normal;font-variant-numeric:normal;font-variant-alternates:normal;font-feature-settings:normal;text-indent:0;text-decoration:none;text-decoration-line:none;text-decoration-style:solid;text-decoration-color:#000000;text-transform:none;text-orientation:mixed;dominant-baseline:auto;white-space:normal;shape-padding:0;opacity:0.08800001;isolation:auto;mix-blend-mode:normal;solid-color:#000000;color-rendering:auto;image-rendering:auto;shape-rendering:auto;fill:#ffffff"
       dominant-baseline="auto"
       d="m 989.41,1428.9 v 243.3 h 12.779 v -243.3 z m 68.5,0 v 243.3 h 12.78 v -243.3 z m 68.502,0 v 237.94 h 12.778 V 1428.9 Z m 68.502,0 v 237.94 h 12.778 V 1428.9 Z" />
  </g>
  <path
     inkscape:connector-curvature="0"
     id="path2334"
     style="color:#000000;font-variant-ligatures:normal;font-variant-position:normal;font-variant-caps:normal;font-variant-numeric:normal;font-variant-alternates:normal;font-feature-settings:normal;text-indent:0;text-decoration:none;text-decoration-line:none;text-decoration-style:solid;text-decoration-color:#000000;text-transform:none;text-orientation:mixed;dominant-baseline:auto;white-space:normal;shape-padding:0;opacity:0.58200001;isolation:auto;mix-blend-mode:normal;solid-color:#000000;stroke-width:0.02452121;color-rendering:auto;image-rendering:auto;shape-rendering:auto;fill:#ffffff"
     dominant-baseline="auto"
     d="M 40.682111,8.1022867 40.223344,8.561054 41.389891,9.799228 37.573655,9.770553 v 0.685171 l 3.830458,-0.0072 -1.180867,1.130698 0.458767,0.458718 1.962702,-1.962702 h 0.0103 l -0.0052,-0.0051 0.0052,-0.0052 h -0.0103 z" />
  <path
     d="m 51.985163,10.83444 a 1.0527691,1.0527691 0 0 1 -1.052769,1.052769 1.0527691,1.0527691 0 0 1 -1.05277,-1.052769 1.0527691,1.0527691 0 0 1 1.05277,-1.0527688 1.0527691,1.0527691 0 0 1 1.052769,1.0527688 z"
     id="path2336"
     inkscape:connector-curvature="0"
     style="opacity:0.197;stroke-width:0.02452121;fill:#ffffff" />
  <path
     d="m 57.458297,10.782946 a 1.0527691,1.0527691 0 0 1 -1.052769,1.052769 1.0527691,1.0527691 0 0 1 -1.052769,-1.052769 1.0527691,1.0527691 0 0 1 1.052769,-1.0527694 1.0527691,1.0527691 0 0 1 1.052769,1.0527694 z"
     id="path2338"
     inkscape:connector-curvature="0"
     style="opacity:0.197;stroke-width:0.02452121;fill:#ffffff" />
  <path
     d="m 49.246144,10.83444 a 1.0527691,1.0527691 0 0 1 -1.05277,1.052769 1.0527691,1.0527691 0 0 1 -1.052769,-1.052769 1.0527691,1.0527691 0 0 1 1.052769,-1.0527688 1.0527691,1.0527691 0 0 1 1.05277,1.0527688 z"
     id="path2340"
     inkscape:connector-curvature="0"
     style="opacity:0.197;stroke-width:0.02452121;fill:#ffffff" />
  <path
     d="m 54.72173,10.782946 a 1.0527691,1.0527691 0 0 1 -1.052769,1.052769 1.0527691,1.0527691 0 0 1 -1.052769,-1.052769 1.0527691,1.0527691 0 0 1 1.052769,-1.0527694 1.0527691,1.0527691 0 0 1 1.052769,1.0527694 z"
     id="path2342"
     inkscape:connector-curvature="0"
     style="opacity:0.197;stroke-width:0.02452121;fill:#ffffff" />
  <path
     d="m 45.057046,7.4914652 c 0,0 -0.326752,2.2704775 0.175068,4.1433168 0.232685,0.868394 2.436241,3.444967 3.230804,7.6167 h 7.689365 c 0.784053,-4.209168 3.026632,-6.74344 3.260518,-7.6167 0.50182,-1.8728393 0.175068,-4.1433168 0.175068,-4.1433168 z m 8.610635,2.2380384 a 1.0527786,1.0527786 0 0 1 1.052779,1.0527784 1.0527786,1.0527786 0 0 1 -1.052779,1.052779 1.0527786,1.0527786 0 0 1 -1.052779,-1.052779 1.0527786,1.0527786 0 0 1 1.052779,-1.0527784 z m 2.737211,0 a 1.0527786,1.0527786 0 0 1 1.052779,1.0527784 1.0527786,1.0527786 0 0 1 -1.052779,1.052779 1.0527786,1.0527786 0 0 1 -1.052778,-1.052779 1.0527786,1.0527786 0 0 1 1.052778,-1.0527784 z m -8.211633,0.051573 a 1.0527786,1.0527786 0 0 1 1.052778,1.0527784 1.0527786,1.0527786 0 0 1 -1.052778,1.052779 1.0527786,1.0527786 0 0 1 -1.052714,-1.052779 1.0527786,1.0527786 0 0 1 1.052714,-1.0527784 z m 2.737211,0 a 1.0527786,1.0527786 0 0 1 1.052713,1.0527784 1.0527786,1.0527786 0 0 1 -1.052713,1.052779 1.0527786,1.0527786 0 0 1 -1.052779,-1.052779 1.0527786,1.0527786 0 0 1 1.052779,-1.0527784 z"
     id="path2344"
     inkscape:connector-curvature="0"
     style="opacity:0.08800001;stroke-width:0.00648782;fill:#ffffff" />
  <path
     d="M 47.939163,1.1117805 V 10.83395 h 0.510605 V 1.1117805 Z m 2.737058,0 V 10.83395 h 0.510654 V 1.1117805 Z m 2.737302,0 v 9.5078535 h 0.510605 V 1.1117805 Z m 2.737303,0 v 9.5078535 h 0.51058 V 1.1117805 Z"
     dominant-baseline="auto"
     style="color:#000000;font-variant-ligatures:normal;font-variant-position:normal;font-variant-caps:normal;font-variant-numeric:normal;font-variant-alternates:normal;font-feature-settings:normal;text-indent:0;text-decoration:none;text-decoration-line:none;text-decoration-style:solid;text-decoration-color:#000000;text-transform:none;text-orientation:mixed;dominant-baseline:auto;white-space:normal;shape-padding:0;opacity:0.08800001;isolation:auto;mix-blend-mode:normal;solid-color:#000000;stroke-width:0.02452121;color-rendering:auto;image-rendering:auto;shape-rendering:auto;fill:#ffffff"
     id="path2346"
     inkscape:connector-curvature="0" />
  <path
     style="color:#000000;font-style:normal;font-variant:normal;font-weight:normal;font-stretch:normal;font-size:medium;line-height:normal;font-family:sans-serif;font-variant-ligatures:normal;font-variant-position:normal;font-variant-caps:normal;font-variant-numeric:normal;font-variant-alternates:normal;font-feature-settings:normal;text-indent:0;text-align:start;text-decoration:none;text-decoration-line:none;text-decoration-style:solid;text-decoration-color:#000000;letter-spacing:normal;word-spacing:normal;text-transform:none;writing-mode:lr-tb;direction:ltr;text-orientation:mixed;dominant-baseline:auto;baseline-shift:baseline;text-anchor:start;white-space:normal;shape-padding:0;clip-rule:nonzero;display:inline;overflow:visible;visibility:visible;opacity:0.58200001;isolation:auto;mix-blend-mode:normal;color-interpolation:sRGB;color-interpolation-filters:linearRGB;solid-color:#000000;solid-opacity:1;vector-effect:none;fill:#ffffff;fill-opacity:1;fill-rule:nonzero;stroke:none;stroke-width:2.45209002;stroke-linecap:round;stroke-linejoin:round;stroke-miterlimit:4;stroke-dasharray:none;stroke-dashoffset:0;stroke-opacity:1;color-rendering:auto;image-rendering:auto;shape-rendering:auto;text-rendering:auto;enable-background:accumulate"
     d="M 213.18945 27.453125 C 205.85745 27.453125 199.88672 33.423854 199.88672 40.755859 C 199.88672 48.087867 205.85745 54.056641 213.18945 54.056641 C 220.52146 54.056641 226.49023 48.087867 226.49023 40.755859 C 226.49023 33.423854 220.52146 27.453125 213.18945 27.453125 z "
     transform="scale(0.26458335)"
     id="path3115" />
  <path
     inkscape:connector-curvature="0"
     id="path2352"
     style="color:#000000;font-variant-ligatures:normal;font-variant-position:normal;font-variant-caps:normal;font-variant-numeric:normal;font-variant-alternates:normal;font-feature-settings:normal;text-indent:0;text-decoration:none;text-decoration-line:none;text-decoration-style:solid;text-decoration-color:#000000;text-transform:none;text-orientation:mixed;dominant-baseline:auto;white-space:normal;shape-padding:0;opacity:0.58200001;isolation:auto;mix-blend-mode:normal;solid-color:#000000;stroke-width:0.02452121;color-rendering:auto;image-rendering:auto;shape-rendering:auto;fill:#ffffff"
     dominant-baseline="auto"
     d="M 65.330831,8.1022867 64.872064,8.561054 66.038611,9.799228 62.222376,9.770553 v 0.685171 l 3.830458,-0.0072 -1.180868,1.130698 0.458767,0.458718 1.962702,-1.962702 h 0.0103 l -0.0052,-0.0051 0.0052,-0.0052 h -0.0103 z" />
  <path
     d="m 76.633393,10.83444 a 1.0527691,1.0527691 0 0 1 -1.05277,1.052769 1.0527691,1.0527691 0 0 1 -1.052769,-1.052769 1.0527691,1.0527691 0 0 1 1.052769,-1.0527688 1.0527691,1.0527691 0 0 1 1.05277,1.0527688 z"
     id="path2354"
     inkscape:connector-curvature="0"
     style="opacity:0.197;fill:#ffffff;stroke-width:0.02452121" />
  <path
     d="m 82.106527,10.782946 a 1.0527691,1.0527691 0 0 1 -1.052769,1.052769 1.0527691,1.0527691 0 0 1 -1.05277,-1.052769 1.0527691,1.0527691 0 0 1 1.05277,-1.0527694 1.0527691,1.0527691 0 0 1 1.052769,1.0527694 z"
     id="path2356"
     inkscape:connector-curvature="0"
     style="opacity:0.197;fill:#ffffff;stroke-width:0.02452121" />
  <path
     d="M 73.894373,10.83444 A 1.0527691,1.0527691 0 0 1 72.841604,11.887209 1.0527691,1.0527691 0 0 1 71.788835,10.83444 1.0527691,1.0527691 0 0 1 72.841604,9.7816712 1.0527691,1.0527691 0 0 1 73.894373,10.83444 Z"
     id="path2358"
     inkscape:connector-curvature="0"
     style="opacity:0.197;fill:#ffffff;stroke-width:0.02452121" />
  <path
     d="m 79.36996,10.782946 a 1.0527691,1.0527691 0 0 1 -1.05277,1.052769 1.0527691,1.0527691 0 0 1 -1.052769,-1.052769 1.0527691,1.0527691 0 0 1 1.052769,-1.0527694 1.0527691,1.0527691 0 0 1 1.05277,1.0527694 z"
     id="path2360"
     inkscape:connector-curvature="0"
     style="opacity:0.197;fill:#ffffff;stroke-width:0.02452121" />
  <path
     d="m 69.706151,7.4921994 c 0,0 -0.32677,2.2704923 0.175074,4.1433486 0.232689,0.868419 2.43628,3.444985 3.230914,7.616533 H 80.8015 c 0.784066,-4.209311 3.026653,-6.743578 3.260586,-7.616533 0.501826,-1.8728563 0.175071,-4.1433486 0.175071,-4.1433486 z m 8.610868,2.2380753 a 1.0527691,1.0527691 0 0 1 1.052769,1.0527693 1.0527691,1.0527691 0 0 1 -1.052769,1.052769 1.0527691,1.0527691 0 0 1 -1.052769,-1.052769 1.0527691,1.0527691 0 0 1 1.052769,-1.0527693 z m 2.737302,0 a 1.0527691,1.0527691 0 0 1 1.05277,1.0527693 1.0527691,1.0527691 0 0 1 -1.05277,1.052769 1.0527691,1.0527691 0 0 1 -1.052769,-1.052769 1.0527691,1.0527691 0 0 1 1.052769,-1.0527693 z m -8.211662,0.051573 a 1.0527691,1.0527691 0 0 1 1.052769,1.0527693 1.0527691,1.0527691 0 0 1 -1.052769,1.052769 1.0527691,1.0527691 0 0 1 -1.052745,-1.052769 1.0527691,1.0527691 0 0 1 1.052745,-1.0527693 z m 2.737302,0 a 1.0527691,1.0527691 0 0 1 1.052745,1.0527693 1.0527691,1.0527691 0 0 1 -1.052745,1.052769 1.0527691,1.0527691 0 0 1 -1.052769,-1.052769 1.0527691,1.0527691 0 0 1 1.052769,-1.0527693 z"
     id="path2362"
     inkscape:connector-curvature="0"
     style="opacity:0.08800001;fill:#ffffff;stroke-width:0.02452121" />
  <path
     d="M 72.587393,1.1117805 V 10.83395 h 0.510605 V 1.1117805 Z m 2.737057,0 V 10.83395 h 0.510655 V 1.1117805 Z m 2.737303,0 v 9.5078535 h 0.510605 V 1.1117805 Z m 2.737303,0 v 9.5078535 h 0.51058 V 1.1117805 Z"
     dominant-baseline="auto"
     style="color:#000000;font-variant-ligatures:normal;font-variant-position:normal;font-variant-caps:normal;font-variant-numeric:normal;font-variant-alternates:normal;font-feature-settings:normal;text-indent:0;text-decoration:none;text-decoration-line:none;text-decoration-style:solid;text-decoration-color:#000000;text-transform:none;text-orientation:mixed;dominant-baseline:auto;white-space:normal;shape-padding:0;opacity:0.08800001;isolation:auto;mix-blend-mode:normal;solid-color:#000000;fill:#ffffff;stroke-width:0.02452121;color-rendering:auto;image-rendering:auto;shape-rendering:auto"
     id="path2364"
     inkscape:connector-curvature="0" />
  <path
     style="color:#000000;font-style:normal;font-variant:normal;font-weight:normal;font-stretch:normal;font-size:medium;line-height:normal;font-family:sans-serif;font-variant-ligatures:normal;font-variant-position:normal;font-variant-caps:normal;font-variant-numeric:normal;font-variant-alternates:normal;font-feature-settings:normal;text-indent:0;text-align:start;text-decoration:none;text-decoration-line:none;text-decoration-style:solid;text-decoration-color:#000000;letter-spacing:normal;word-spacing:normal;text-transform:none;writing-mode:lr-tb;direction:ltr;text-orientation:mixed;dominant-baseline:auto;baseline-shift:baseline;text-anchor:start;white-space:normal;shape-padding:0;clip-rule:nonzero;display:inline;overflow:visible;visibility:visible;opacity:0.58200001;isolation:auto;mix-blend-mode:normal;color-interpolation:sRGB;color-interpolation-filters:linearRGB;solid-color:#000000;solid-opacity:1;vector-effect:none;fill:#ffffff;fill-opacity:1;fill-rule:nonzero;stroke:none;stroke-width:2.45209002;stroke-linecap:round;stroke-linejoin:round;stroke-miterlimit:4;stroke-dasharray:none;stroke-dashoffset:0;stroke-opacity:1;color-rendering:auto;image-rendering:auto;shape-rendering:auto;text-rendering:auto;enable-background:accumulate"
     d="M 306.34766 27.453125 C 299.01565 27.453125 293.04688 33.423854 293.04688 40.755859 C 293.04688 48.087867 299.01565 54.056641 306.34766 54.056641 C 313.67966 54.056641 319.65039 48.087867 319.65039 40.755859 C 319.65039 33.423854 313.67966 27.453125 306.34766 27.453125 z "
     transform="scale(0.26458335)"
     id="path3130" />
  <path
     d="m 81.054567,7.2788648 c -0.450381,0.012214 -0.04087,0.011214 0.21765,0.011214 -0.07242,-0.00613 -0.145006,-0.00986 -0.21765,-0.011214 z m -0.272137,0.01268 c -0.949216,0.079549 -1.82271,0.5646745 -2.408718,1.3377301 V 9.665762 c 0.512027,0.1147249 0.877418,0.581054 0.878055,1.120668 5e-6,0.634217 -0.499276,1.148353 -1.115175,1.148353 -0.105383,-4.41e-4 -0.210198,-0.01592 -0.311322,-0.04648 0.460926,1.434417 1.762046,2.403692 3.229199,2.405702 1.881193,0 3.406241,-1.570387 3.406241,-3.507513 -0.0014,-1.827419 -1.365096,-3.3476359 -3.134056,-3.4935371 v 2.390818 c 0.490081,0.128089 0.833476,0.5820351 0.834138,1.1027191 -5e-6,0.629165 -0.495304,1.139206 -1.106299,1.139206 -0.61097,0 -1.106274,-0.510041 -1.106274,-1.139206 4.66e-4,-0.520855 0.343885,-0.9750617 0.834162,-1.103185 z m -2.957258,4.5967462 c -0.04024,-0.124745 -0.07364,-0.251735 -0.100041,-0.380324 0.0264,0.128606 0.0598,0.255584 0.100041,0.380324 z m 0.548417,-3.2591142 c -0.06931,0.091334 -0.134187,0.1861504 -0.194384,0.2841028 0.0602,-0.097948 0.125073,-0.1927637 0.194384,-0.2841028 z m -0.1987,0.2913611 c -0.05838,0.095446 -0.112253,0.1937347 -0.161433,0.2945242 0.04918,-0.1007895 0.103053,-0.1990779 0.161433,-0.2945242 z m -0.169535,0.3117626 c -0.04709,0.097793 -0.08973,0.1977906 -0.127768,0.2996737 0.03804,-0.1018782 0.08067,-0.2018757 0.127768,-0.2996737 z m -0.176057,0.4358891 c -0.002,0.00556 -0.004,0.01112 -0.0059,0.016687 0.002,-4.904e-4 0.004,-0.00101 0.0059,-0.00152 z m -0.0059,0.016687 c -0.03148,0.09896 -0.05867,0.1993133 -0.08148,0.3007772 0.02281,-0.1014516 0.05,-0.2018047 0.08148,-0.3007772 z M 77.730104,10.0332 c -0.01767,0.0856 -0.03223,0.171849 -0.04363,0.258576 0.01141,-0.08672 0.02596,-0.172968 0.04363,-0.258576 z m -0.05807,0.356882 c -0.0069,0.06983 -0.01185,0.139856 -0.01471,0.209982 0.0029,-0.07013 0.0078,-0.140156 0.01471,-0.209982 z m -0.02373,0.397415 c 9.08e-4,0.105326 0.0064,0.210554 0.01655,0.315367 -0.01011,-0.104816 -0.01563,-0.210044 -0.01655,-0.315367 z m 0.02839,0.41588 c 0.01007,0.0894 0.02349,0.178377 0.04021,0.266717 -0.01672,-0.08834 -0.03014,-0.177313 -0.04021,-0.266717 z"
     id="path2368"
     inkscape:connector-curvature="0"
     style="opacity:0.78800001;fill:#ffffff;stroke-width:0.02452121" />
  <path
     d="m 44.259848,25.612963 -0.458771,-0.45877 -1.238219,1.166564 0.02869,-3.816231 H 41.90635 l 0.0072,3.830508 -1.130702,-1.180909 -0.458722,0.45877 1.962694,1.962694 v 0.01031 l 0.0048,-0.0055 0.0048,0.0055 v -0.01031 z"
     dominant-baseline="auto"
     style="color:#000000;font-variant-ligatures:normal;font-variant-position:normal;font-variant-caps:normal;font-variant-numeric:normal;font-variant-alternates:normal;font-feature-settings:normal;text-indent:0;text-decoration:none;text-decoration-line:none;text-decoration-style:solid;text-decoration-color:#000000;text-transform:none;text-orientation:mixed;dominant-baseline:auto;white-space:normal;shape-padding:0;opacity:0.58200001;isolation:auto;mix-blend-mode:normal;solid-color:#000000;stroke-width:0.68308002;color-rendering:auto;image-rendering:auto;shape-rendering:auto;fill:#ffffff"
     id="path2374"
     inkscape:connector-curvature="0" />
  <path
     d="m 42.292577,31.364497 c -0.803848,0.02179 -0.07295,0.02001 0.388454,0.02001 -0.129245,-0.01093 -0.258798,-0.01762 -0.388454,-0.02001 z m -0.48569,0.02261 c -1.694107,0.141978 -3.253169,1.007816 -4.299032,2.387569 v 1.849918 c 0.913824,0.204753 1.56596,1.037052 1.567122,2.000126 7e-6,1.131932 -0.891078,2.049582 -1.990359,2.049582 -0.188079,-6.83e-4 -0.375154,-0.02842 -0.555624,-0.08297 0.822633,2.560115 3.144832,4.290084 5.763488,4.293636 3.357474,0 6.079275,-2.802814 6.079275,-6.260223 -0.0027,-3.261503 -2.43641,-5.97456 -5.593537,-6.235223 v 4.267064 c 0.874684,0.228613 1.487543,1.038828 1.488704,1.96809 -1.3e-5,1.122915 -0.884042,2.033256 -1.974511,2.033256 -1.090469,0 -1.974442,-0.910341 -1.974442,-2.033256 6.83e-4,-0.929603 0.613774,-1.740283 1.488772,-1.96891 z m -5.277818,8.204474 c -0.07183,-0.222636 -0.131438,-0.449276 -0.178557,-0.678811 0.04713,0.229535 0.106731,0.456175 0.178557,0.678811 z m 0.978786,-5.816631 c -0.123699,0.16301 -0.239495,0.332236 -0.34693,0.50705 0.107435,-0.174814 0.223231,-0.34404 0.34693,-0.50705 z m -0.354635,0.520028 c -0.10419,0.170354 -0.200341,0.345776 -0.288116,0.525665 0.08778,-0.179889 0.183926,-0.355311 0.288116,-0.525665 z m -0.302577,0.556451 c -0.08405,0.174541 -0.160155,0.353009 -0.22804,0.534838 0.0679,-0.181829 0.143987,-0.360297 0.22804,-0.534838 z m -0.314224,0.77796 c -0.0034,0.0099 -0.007,0.01988 -0.01052,0.02978 0.0034,-6.83e-4 0.007,-0.002 0.01052,-0.0027 z m -0.01052,0.02978 c -0.05622,0.176617 -0.104703,0.355728 -0.145421,0.536792 0.04071,-0.181064 0.08924,-0.360175 0.145421,-0.536792 z m -0.166481,0.621678 c -0.03156,0.152771 -0.05752,0.30671 -0.07788,0.461482 0.02035,-0.154772 0.04631,-0.308711 0.07788,-0.461482 z m -0.103643,0.636952 c -0.01236,0.124621 -0.02118,0.249611 -0.02623,0.374772 0.0048,-0.125161 0.01387,-0.250151 0.02623,-0.374772 z m -0.04235,0.70931 c 0.0014,0.187977 0.01148,0.37579 0.02951,0.562858 -0.01803,-0.187068 -0.02787,-0.374881 -0.02951,-0.562858 z m 0.05068,0.742235 c 0.01797,0.159567 0.04194,0.318363 0.07176,0.476031 -0.02985,-0.157668 -0.05376,-0.316464 -0.07176,-0.476031 z"
     id="path2376"
     inkscape:connector-curvature="0"
     style="opacity:0.78800001;stroke-width:0.68308002;fill:#ffffff" />
</svg>
