<?xml version="1.0" encoding="UTF-8"?>
<!-- Created with Inkscape (http://www.inkscape.org/) -->
<svg width="95.191mm" height="80mm" version="1.1" viewBox="0 0 95.191 80" xmlns="http://www.w3.org/2000/svg" xmlns:cc="http://creativecommons.org/ns#" xmlns:dc="http://purl.org/dc/elements/1.1/" xmlns:rdf="http://www.w3.org/1999/02/22-rdf-syntax-ns#">
 <metadata>
  <rdf:RDF>
   <cc:Work rdf:about="">
    <dc:format>image/svg+xml</dc:format>
    <dc:type rdf:resource="http://purl.org/dc/dcmitype/StillImage"/>
    <dc:title/>
   </cc:Work>
  </rdf:RDF>
 </metadata>
 <g transform="translate(-70.333 -12.184)">
  <rect x="70.843" y="54.803" width="94.17" height="36.871" fill="none" opacity=".868" stroke="#fff" stroke-linecap="round" stroke-width="1.0207"/>
  <g transform="matrix(2.4863 0 0 2.4863 -329.93 -385.56)" fill="#fff" stroke-width=".26458" aria-label="MARCE">
   <path d="m170.97 180.93h-0.56092l-1.9368 5.8843-1.9791-5.8843h-0.55033l-0.74084 7.2178h0.35984l0.35983-3.683c0.11642-1.143 0.27517-2.5718 0.3175-3.1962l2.0532 6.0008h0.34925l2.0108-6.0008c0.0529 0.6985 0.20108 2.0955 0.32808 3.2808l0.39159 3.5983h0.35983z"/>
   <path d="m177.79 188.14h0.39158l-2.4765-7.2178h-0.45508l-2.4765 7.2178h0.37042l0.6985-2.0849h3.2491zm-3.8312-2.4236 1.5134-4.4979 1.5028 4.4979z"/>
   <path d="m183.7 188.14h0.4445l-2.0108-3.429c0.99484-0.22225 1.6404-0.762 1.6404-1.8838 0-1.2277-0.75142-1.905-2.4448-1.905h-1.6404v7.2178h0.37042v-3.3655h1.6828zm-3.6407-3.7042v-3.1856h1.2382c1.524 0 2.0849 0.56092 2.0849 1.5769 0 1.1112-0.73025 1.6087-1.9791 1.6087z"/>
   <path d="m188.14 180.81c-1.5875 0-2.8681 1.2277-2.8681 3.7253 0 2.4236 1.2171 3.7148 2.8363 3.7148 0.83609 0 1.4076-0.29634 1.8627-0.6985l-0.21167-0.26459c-0.43391 0.35984-0.84666 0.61384-1.6404 0.61384-1.3652 0-2.4659-1.1007-2.4659-3.3655 0-2.3918 1.1324-3.3761 2.5082-3.3761 0.64558 0 1.0266 0.16934 1.524 0.55034l0.20108-0.26459c-0.46566-0.39158-0.94191-0.635-1.7462-0.635z"/>
   <path d="m194.99 180.93h-3.4925v7.2178h3.556v-0.33866h-3.1856v-3.2914h2.6564v-0.32808h-2.6564v-2.921h3.0692z"/>
  </g>
 </g>
</svg>
