<?xml version="1.0" encoding="UTF-8"?>
<!-- Created with Inkscape (http://www.inkscape.org/) -->
<svg width="579.38mm" height="235.21mm" version="1.1" viewBox="0 0 579.38 235.21" xmlns="http://www.w3.org/2000/svg" xmlns:cc="http://creativecommons.org/ns#" xmlns:dc="http://purl.org/dc/elements/1.1/" xmlns:rdf="http://www.w3.org/1999/02/22-rdf-syntax-ns#">
 <metadata>
  <rdf:RDF>
   <cc:Work rdf:about="">
    <dc:format>image/svg+xml</dc:format>
    <dc:type rdf:resource="http://purl.org/dc/dcmitype/StillImage"/>
    <dc:title/>
   </cc:Work>
  </rdf:RDF>
 </metadata>
 <g transform="translate(443.27 14.504)">
  <g transform="translate(24.389 93.142)" stroke-width=".26458">
   <path d="m71.094-107.65c10.545 0.0106 40.625 0 40.625 0 0.01 61.007 0 235.2 0 235.2-10.528 0.01-40.625 0-40.625 0 2.0654-8.159 4.7843-16.117 8.6699-27.014 3.6386-10.204 7.8364-21.741 10.891-33.687 3.1358-12.261 4.9689-24.477 4.8375-37.625-0.13163-13.175-2.2156-25.788-5.6019-38.902-3.3013-12.785-7.7025-25.454-11.379-37.007-3.8376-12.058-6.5363-21.833-8.0046-31.325-1.4323-9.259-1.3386-16.255-0.77438-21.613 0.54272-5.1546 1.3616-8.0239 1.3616-8.0239z" fill="#ef4c33"/>
   <path d="m44.154-107.65c10.543 0.0113 40.625 0 40.625 0 0.0089 0.01-3e-6 3e-5 -3e-6 3e-5 -1.2147 8.0967-1.3488 17.249-0.04746 28.429 1.3106 11.26 3.8247 22.721 6.8455 35.801 3.0125 13.044 6.04 25.744 8.1934 39.325 2.1496 13.557 3.1272 26.229 2.7929 39.156-0.66062 25.548-6.6098 48.022-11.067 65.072-4.399 16.829-6.7178 27.413-6.7178 27.413-10.529 0.01-40.625 0-40.625 0 0.0074 0.0105 8e-6 -3e-5 8e-6 -3e-5 2.1122-8.512 5.5905-17.131 10.749-28.069 4.8187-10.217 10.92-22.024 15.289-33.545 4.5566-12.013 7.3186-23.764 7.1802-36.443-0.13864-12.706-3.1672-24.809-8.1436-37.587-4.8246-12.388-11.337-24.957-16.625-36.473-5.5301-12.043-9.3231-22.067-11.128-31.854-1.7658-9.5775-1.2005-16.967 0.01961-22.655 1.1786-5.4946 2.6584-8.5708 2.6584-8.5708z" fill="#e74838"/>
   <path d="m13.348-107.65c10.541 0.0125 40.625 0 40.625 0 0.0078 0.0101-1.5e-5 7e-5 -1.5e-5 7e-5 -3.0239 8.6864-3.8916 18.403-1.8984 30.023 2.0025 11.674 6.516 23.44 12.049 36.544 5.5511 13.148 11.168 25.561 15.187 38.876 3.9994 13.249 5.7761 25.445 5.1051 37.949-1.3092 24.399-12.455 46.738-19.931 63.689-3.9803 9.0247-6.3166 14.882-8.1789 20.392-1.6634 4.9218-2.3324 7.7239-2.3324 7.7239-10.528 0.0102-40.625 0-40.625 0 0.0084 0.0117 1.1e-5 -8e-5 1.1e-5 -8e-5 1.301-9.3409 4.739-18.864 10.481-30.192 5.527-10.904 12.673-22.316 18.25-33.827 5.7014-11.768 9.3264-22.898 9.2674-34.87-0.059178-11.994-3.8065-23.277-10.076-35.423-6.124-11.864-14.239-23.768-20.841-35.25-6.8332-11.883-11.367-22.116-13.136-32.26-1.7369-9.9567-0.39342-17.874 1.7245-24.025 2.0565-5.9731 4.3303-9.3497 4.3303-9.3497z" fill="#de443f"/>
   <path d="m-19.11-107.65c10.538 0.0138 40.625 0 40.625 0 0.0034 0.0122-7.2e-5 1.3e-4 -7.2e-5 1.3e-4 -5.1861 9.5706-7.2546 20.059-5.1927 32.182 2.0669 12.153 7.8948 24.113 15.21 37.011 7.3967 13.041 14.893 24.776 20.305 37.494 5.3546 12.582 7.6485 23.975 6.6394 35.83-0.9969 11.711-5.1313 22.571-10.381 33.291-5.1709 10.56-11.065 20.521-15.521 29.279-4.6765 9.1908-7.3135 15.853-9.0423 21.643-1.5977 5.3509-2.0181 8.4674-2.0181 8.4674-10.527 0.0113-40.625 0-40.625 0 0.0103 0.0131-3e-6 -1.4e-4 -3e-6 -1.4e-4 -0.23873-10.462 2.3937-21.067 8.0287-33.023 5.4426-11.548 13.274-23.185 19.623-34.474 6.5025-11.562 10.877-22.006 11.006-33.145 0.12937-11.15-4.0235-21.434-11.159-32.754-6.9585-11.039-16.254-22.312-23.658-33.536-7.6566-11.606-12.545-21.983-13.975-32.493-1.4074-10.343 0.88321-18.844 4.0023-25.525 3.042-6.5162 6.1316-10.247 6.1316-10.247z" fill="#d44046"/>
   <path d="m-52.688-107.65c10.535 0.0151 40.625 0 40.625 0 4.95e-4 0.0135-1.42e-4 2e-4 -1.42e-4 2e-4 -7.4711 10.626-10.998 21.992-9.3175 34.632 1.6814 12.647 8.2448 24.697 16.7 37.22 8.639 12.795 17.321 23.549 23.68 35.474 6.2305 11.683 8.7588 22.077 7.3852 33.155-1.3548 10.927-6.3795 21.263-12.444 31.85-6.7762 11.829-11.787 19.211-17.018 29.907-4.7148 9.6405-6.9752 17.135-8.0816 23.468-1.0406 5.9565-0.90433 9.4903-0.90433 9.4903-10.524 0.0128-40.625 0-40.625 0 0.01284 0.0147-4.3e-5 -2.2e-4 -4.3e-5 -2.2e-4 -2.2596-11.687-0.97181-23.434 4.0508-36.131 5.0587-12.788 12.66-23.782 19.797-35.351 7.0403-11.413 12.082-21.184 12.518-31.476 0.43569-10.285-3.8276-19.522-11.437-29.939-7.4078-10.142-17.428-20.697-25.256-31.589-8.0922-11.259-13.056-21.714-13.984-32.564-0.91503-10.7 2.3462-19.773 6.448-26.99 4.0121-7.0592 7.8632-11.156 7.8632-11.156z" fill="#ca3c4e"/>
   <path d="m-87.124-107.65c10.533 0.0163 40.625 0 40.625 0-0.0023 0.0149-2.33e-4 2.8e-4 -2.33e-4 2.8e-4 -9.6542 11.723-14.677 23.97-13.623 37.09 1.0523 13.107 7.9326 25.161 17.022 37.211 8.8883 11.784 19.094 22.744 25.604 33.15 6.6864 10.687 9.1905 20.028 7.4031 30.309-1.7603 10.125-7.5051 19.964-14.053 30.479-6.9136 11.102-12.781 20.129-17.245 30.783-4.283 10.221-5.6976 18.57-5.8513 25.551-0.14628 6.6408 0.74416 10.623 0.74416 10.623-10.522 0.0144-40.625 0-40.625 0 0.01566 0.0162-1.08e-4 -3.1e-4 -1.08e-4 -3.1e-4 -4.4892-12.837-4.8249-25.655-0.70272-39.088 4.1218-13.432 11.805-24.946 19.242-36.316 7.4142-11.335 13.073-20.513 13.934-30.05 0.85772-9.5036-3.2636-17.774-11.02-27.329-7.5392-9.2875-17.923-19.132-25.912-29.67-8.2584-10.893-13.146-21.365-13.555-32.495-0.40341-10.994 3.7146-20.569 8.668-28.27 4.8528-7.544 9.345-11.98 9.345-11.98z" fill="#c03756"/>
   <path d="m-122.26-107.65c10.53 0.0173 40.625 0 40.625 0-0.0047 0.0162-3.37e-4 3.7e-4 -3.37e-4 3.7e-4 -11.53 12.737-17.882 25.774-17.503 39.296 0.37822 13.491 7.3236 25.481 16.69 37.034 9.1614 11.3 19.799 21.386 26.408 30.848 6.7968 9.7302 9.0554 18.095 6.7901 27.654-2.2277 9.4009-8.5885 18.826-15.411 29.326-7.0894 10.911-13.029 20.659-16.697 31.75-3.5778 10.819-3.8922 19.968-2.9287 27.584 0.92393 7.3037 2.6525 11.704 2.6525 11.704-10.519 0.016-40.625 0-40.625 0 0.0184 0.0173-1.9e-4 -4e-4 -1.9e-4 -4e-4 -6.6618-13.76-8.6481-27.45-5.5046-41.512 3.134-14.019 10.716-25.935 18.403-37.231 7.715-11.337 13.966-20.061 15.359-29.026 1.3822-8.8986-2.3971-16.395-10.048-25.232-7.4272-8.5785-17.911-17.809-25.908-28.016-8.2693-10.554-13.048-20.989-13.048-32.314-2e-4 -11.198 4.7435-21.154 10.321-29.235 5.468-7.9216 10.425-12.63 10.425-12.63z" fill="#b6335d"/>
   <path d="m-157.99-107.65c10.529 0.0179 40.625 0 40.625 0-6e-3 0.0173-4.4e-4 4.6e-4 -4.4e-4 4.6e-4 -12.926 13.56-20.267 27.213-20.437 41.022-0.16909 13.763 6.7387 25.642 16.159 36.739 9.2151 10.855 19.962 20.184 26.411 28.858 6.6398 8.9297 8.4759 16.51 5.6661 25.509-2.76 8.8394-9.6847 17.977-16.68 28.514-7.217 10.871-12.99 21.122-15.824 32.667-2.7836 11.343-1.9426 21.153 0.14451 29.297 2.0128 7.8545 4.5604 12.591 4.5604 12.591-10.516 0.0172-40.625 0-40.625 0 0.0208 0.0181-2.9e-4 -4.9e-4 -2.9e-4 -4.9e-4 -8.5378-14.334-11.981-28.597-9.7123-43.097 2.2583-14.437 9.7086-26.663 17.645-37.979 8.0098-11.421 14.833-19.873 16.842-28.524 1.9839-8.543-1.3089-15.546-8.674-23.897-7.1423-8.0989-17.546-16.885-25.489-26.826-8.2183-10.285-12.946-20.637-12.749-32.051 0.19556-11.292 5.2462-21.467 11.148-29.785 5.7852-8.1535 10.989-13.038 10.989-13.038z" fill="#ab2e65"/>
   <path d="m-194.24-107.65c10.528 0.0181 40.625 0 40.625 0-7e-3 0.0179-5.4e-4 5.5e-4 -5.4e-4 5.5e-4 -13.708 14.105-21.571 28.137-22.031 42.091-0.45771 13.899 6.4267 25.638 15.789 36.376 9.1576 10.503 19.787 19.284 25.891 27.42 6.2894 8.3826 7.5758 15.459 4.1665 24.126-3.345 8.5037-10.814 17.517-17.96 28.133-7.3464 10.913-12.905 21.525-14.992 33.412-2.0577 11.718-0.17744 21.978 2.8992 30.469 2.9788 8.2215 6.2375 13.17 6.2375 13.17-10.514 0.0181-40.625 0-40.625 0 0.0225 0.0183-3.9e-4 -5.7e-4 -3.9e-4 -5.7e-4 -9.9186-14.479-14.446-28.941-12.812-43.631 1.6263-14.619 9.0053-27.05 17.22-38.469 8.3304-11.581 15.696-19.979 18.367-28.614 2.6248-8.4853-0.0917-15.334-7.0504-23.493-6.7442-7.908-16.95-16.472-24.839-26.243-8.1682-10.117-12.963-20.35-12.839-31.736 0.12275-11.266 5.109-21.471 10.988-29.855 5.76-8.2135 10.965-13.155 10.965-13.155z" fill="#a12a6d"/>
   <path d="m-230.94-107.65c10.529 0.0179 40.625 0 40.625 0-8e-3 0.0182-6.3e-4 6.5e-4 -6.3e-4 6.5e-4 -13.793 14.31-21.629 28.442-22.036 42.383-0.40535 13.882 6.544 25.47 15.812 35.99 9.0633 10.287 19.422 18.795 25.06 26.708 5.8116 8.1569 6.4731 15.07 2.4378 23.677-3.9539 8.4335-11.954 17.509-19.276 28.234-7.5157 11.008-12.92 21.845-14.459 33.891-1.5199 11.894 1.1484 22.34 4.9664 30.948 3.7064 8.3571 7.496 13.365 7.496 13.365-10.513 0.0183-40.625 0-40.625 0 0.0234 0.0178-4.9e-4 -6.4e-4 -4.9e-4 -6.4e-4 -10.657-14.159-15.773-28.414-14.449-43.013 1.318-14.532 8.7223-27.048 17.235-38.643 8.6623-11.797 16.515-20.388 19.836-29.314 3.2536-8.7445 1.1509-15.806-5.3259-24.098-6.2767-8.0361-16.2-16.631-24.058-26.349-8.1439-10.072-13.135-20.156-13.372-31.399-0.23427-11.116 4.3042-21.155 9.8017-29.421 5.3802-8.0894 10.332-12.961 10.332-12.961z" fill="#962575"/>
   <path d="m-268.05-107.65c10.53 0.0172 40.625 0 40.625 0-7e-3 0.018-6.7e-4 7.2e-4 -6.7e-4 7.2e-4 -13.152 14.145-20.392 28.079-20.379 41.846 0.0126 13.71 7.138 25.151 16.311 35.62 8.9664 10.234 18.945 18.779 24.048 26.82 5.2598 8.2876 5.2764 15.407 0.63497 24.242-4.4984 8.5637-13.136 18.12-20.563 28.825-7.7286 11.139-13.09 22.055-14.349 34.046-1.2428 11.843 1.8689 22.185 6.0989 30.658 4.1133 8.2392 8.1991 13.14 8.1991 13.14-10.512 0.018-40.625 0-40.625 0 0.0234 0.0169-5.4e-4 -6.8e-4 -5.4e-4 -6.8e-4 -10.667-13.39-15.816-27.043-14.459-41.271 1.3514-14.175 8.8552-26.653 17.635-38.478 8.9408-12.041 17.184-21.086 21.065-30.58 3.8052-9.3069 2.3061-16.94-3.6394-25.687-5.7645-8.4809-15.32-17.364-23.15-27.152-8.1258-10.159-13.407-20.071-14.258-31.065-0.8396-10.853 2.9003-20.533 7.6794-28.502 4.6688-7.785 9.1269-12.461 9.1269-12.461z" fill="#8b217e"/>
   <path d="m-305.54-107.65c10.532 0.016 40.625 0 40.625 0-5e-3 0.0173-6.7e-4 7.8e-4 -6.7e-4 7.8e-4 -11.817 13.614-17.933 27.059-17.175 40.502 0.75613 13.397 8.1335 24.702 17.198 35.299 9.2851 10.854 18.104 18.78 22.891 27.767 4.6725 8.7717 4.0807 16.456-1.081 25.797-5.0056 9.0577-14.016 19.005-21.657 29.866-7.9447 11.291-13.371 22.14-14.633 33.856-1.2452 11.564 1.9196 21.517 6.1887 29.606 4.1551 7.8732 8.2692 12.505 8.2692 12.505-10.513 0.017-40.625 0-40.625 0 0.0225 0.0154-5.7e-4 -7e-4 -5.7e-4 -7e-4 -9.9321-12.246-14.566-24.957-12.888-38.573 1.6742-13.583 9.2662-25.904 18.18-37.995 9.058-12.287 17.505-22.02 21.772-32.304 4.2-10.123 3.2522-18.639-2.1162-28.123-5.2454-9.2669-14.186-18.5-22.006-28.583-8.0453-10.374-13.618-20.095-15.244-30.758-1.6007-10.496 1.0711-19.652 4.8577-27.168 3.6883-7.321 7.4439-11.692 7.4439-11.692z" fill="#801c86"/>
   <path d="m-343.37-107.65c10.535 0.0146 40.625 0 40.625 0-3e-3 0.0162-6.1e-4 7.9e-4 -6.1e-4 7.9e-4 -9.8875 12.758-14.463 25.46-12.745 38.455 1.7149 12.966 9.3208 24.157 18.199 35.048 9.0099 11.053 17.392 19.768 21.518 29.464 4.0704 9.5657 2.9652 18.128-2.5447 28.202-5.3483 9.7786-14.518 20.249-22.287 31.266-8.0746 11.45-13.608 22.094-15.117 33.344-1.4863 11.083 1.3481 20.4 5.2828 27.896 3.8292 7.2945 7.6944 11.522 7.6944 11.522-10.514 0.0156-40.625 0-40.625 0 0.0207 0.0137-5.3e-4 -6.7e-4 -5.3e-4 -6.7e-4 -8.5086-10.862-12.168-22.402-10.01-35.235 2.1571-12.827 9.672-24.891 18.433-37.261 8.8653-12.518 17.182-23.083 21.572-34.304 4.3439-11.104 3.8589-20.724-0.86438-31.147-4.6344-10.227-12.846-20.098-20.399-30.486-7.7796-10.7-13.492-20.212-15.905-30.497-2.3642-10.08-0.8952-18.59 1.729-25.541 2.5438-6.738 5.4446-10.726 5.4446-10.726z" fill="#75178e"/>
   <path d="m-381.52-107.65c10.538 0.0131 40.625 0 40.625 0 4.2e-4 0.0148-5.1e-4 8e-4 -5.1e-4 8e-4 -7.534 11.658-10.337 23.431-7.6339 35.895 2.7027 12.464 10.345 23.555 18.837 34.881 8.556 11.411 16.264 21.068 19.742 31.726 3.4539 10.582 1.9913 20.243-3.5873 31.2-5.458 10.72-14.32 21.608-22.064 32.878-7.9743 11.604-13.531 21.929-15.425 32.577-1.8605 10.46 0.32509 18.97 3.5967 25.732 3.1787 6.57 6.5347 10.308 6.5347 10.308-10.517 0.0139-40.625 0-40.625 0 0.0182 0.0119-4.5e-4 -6.4e-4 -4.5e-4 -6.4e-4 -6.5345-9.4349-8.9316-19.743-6.3504-31.736 2.5869-12.02 9.6341-23.759 17.741-36.39 8.1623-12.717 15.815-24.133 19.967-36.326 4.128-12.122 3.9876-22.927 0.0272-34.369-3.8963-11.257-11.063-21.877-17.969-32.612-7.1476-11.111-12.634-20.377-15.627-30.297-2.912-9.6505-2.5889-17.46-1.1481-23.798 1.3866-6.0994 3.359-9.6695 3.359-9.6695z" fill="#6a1297"/>
   <path d="m-419.96-107.65c10.541 0.0116 40.625 0 40.625 0 4e-3 0.0132-3.7e-4 7.6e-4 -3.7e-4 7.6e-4 -5.0014 10.439-6.0639 21.196-2.6237 33.106 3.4526 11.953 10.697 22.948 18.422 34.799 7.7298 11.857 14.441 22.531 17.252 34.258 2.8014 11.689 1.2004 22.529-4.0377 34.403-5.1358 11.642-13.262 23.111-20.478 34.496-7.4413 11.74-12.746 21.669-14.988 31.673-2.1935 9.7847-0.84723 17.431 1.5264 23.425 2.2972 5.8009 4.9266 9.0377 4.9266 9.0377-10.519 0.012-40.625 0-40.625 0 0.0153 0.0103-3.1e-4 -6e-4 -3.1e-4 -6e-4 -4.2327-8.2328-5.3439-17.475-2.6998-28.726 2.6597-11.317 8.5504-22.711 15.226-35.548 6.6843-12.854 12.911-24.991 16.348-38.033 3.4282-13.008 3.4915-24.888 0.49214-37.263-2.9568-12.199-8.5713-23.542-14.216-34.617-5.9023-11.58-10.519-20.512-13.6-30.168-2.9567-9.2684-3.4723-16.41-3.0395-22.175 0.41263-5.4968 1.4902-8.6662 1.4902-8.6662z" fill="#5e0d9f"/>
   <path d="m-458.68-107.65c10.544 0.0105 40.625 0 40.625 0 7e-3 0.0117-2.1e-4 7.4e-4 -2.1e-4 7.4e-4 -2.6135 9.2707-2.3173 19.059 1.2563 30.467 3.6113 11.529 9.7043 22.383 16.036 34.792 6.2785 12.305 11.533 23.932 13.602 36.65 2.0674 12.705 0.61236 24.615-3.7235 37.286-4.2599 12.449-10.885 24.399-16.887 35.853-6.2075 11.847-10.73 21.359-13.032 30.803-2.2384 9.181-1.7265 16.065-0.34024 21.399 1.3325 5.1276 3.0886 7.9458 3.0886 7.9458-10.522 0.0105-40.625 0-40.625 0 0.0115 9e-3 -9e-5 -5.6e-4 -9e-5 -5.6e-4 -1.9169-7.5952-2.0776-16.228-0.12738-27.034 1.9701-10.916 5.6522-22.01 9.7688-34.955 4.0982-12.887 7.873-25.449 9.979-39.008 2.1044-13.548 2.2162-26.15 0.48805-39.16-1.706-12.843-5.0281-24.721-8.4949-36.054-3.707-12.118-6.5156-20.464-8.8037-30.115-2.1356-9.0079-2.8762-15.63-3.0273-20.971-0.14274-5.0468 0.21742-7.9001 0.21742-7.9001z" fill="#5308a8"/>
   <path d="m-497.66-107.65c10.546 0.01 40.625 0 40.625 0 0.01 0.0101-1e-5 6.7e-4 -1e-5 6.7e-4 -0.77912 8.3685 0.0615 17.41 2.7149 28.463 2.7255 11.354 6.5358 21.871 10.519 34.835 3.885 12.644 7.0276 24.977 8.2086 38.372 1.1813 13.398 0.2234 26.027-2.4715 39.182-2.6521 12.946-6.736 25.163-10.515 36.619-3.9277 11.908-6.8368 21.064-8.568 30.192-1.6708 8.8091-1.7237 15.237-1.2136 20.201 0.48681 4.7372 1.3252 7.3328 1.3252 7.3328-10.525 0.01-40.625 0-40.625 0 0.01 0.01 0-6.7e-4 0-6.7e-4 0.01-61.192 0-235.2 0-235.2z" fill="#4804b1"/>
  </g>
 </g>
</svg>
