<?xml version="1.0" standalone="no"?>
<!DOCTYPE svg PUBLIC "-//W3C//DTD SVG 20010904//EN"
 "http://www.w3.org/TR/2001/REC-SVG-20010904/DTD/svg10.dtd">
<svg version="1.0" xmlns="http://www.w3.org/2000/svg"
 width="700.000000pt" height="700.000000pt" viewBox="0 0 700.000000 700.000000"
 preserveAspectRatio="xMidYMid meet">
<metadata>
Created by potrace 1.11, written by Peter Selinger 2001-2013
</metadata>
<g transform="translate(0.000000,700.000000) scale(0.100000,-0.100000)"
fill="#000000" stroke="none">
<path d="M3278 6996 c-1 -2 -39 -6 -83 -10 -89 -7 -144 -13 -225 -26 -30 -5
-75 -12 -100 -15 -24 -4 -47 -8 -51 -10 -3 -2 -20 -7 -37 -10 -331 -58 -792
-242 -1127 -450 -624 -386 -1134 -994 -1403 -1671 -69 -171 -143 -411 -167
-535 -3 -13 -14 -69 -25 -124 -42 -211 -55 -370 -55 -650 0 -195 6 -312 20
-409 3 -17 7 -49 9 -72 6 -58 27 -174 51 -284 70 -323 227 -718 399 -1004 36
-60 66 -113 66 -117 0 -4 3 -9 8 -11 4 -2 30 -37 57 -78 166 -248 385 -486
671 -730 95 -82 296 -221 449 -312 364 -216 864 -391 1270 -443 28 -4 61 -9
75 -11 153 -26 684 -25 842 1 13 2 59 9 103 15 509 71 1058 292 1491 600 225
160 484 394 629 570 21 25 40 47 44 50 12 9 137 174 193 255 222 319 410 729
504 1100 31 120 28 107 59 275 21 121 27 162 42 290 8 73 10 508 3 590 -11
120 -20 205 -25 232 -3 13 -8 43 -11 68 -3 25 -9 61 -14 80 -5 19 -12 51 -15
70 -27 159 -117 442 -207 654 -351 822 -1020 1495 -1833 1841 -266 113 -595
209 -825 240 -19 3 -46 7 -60 10 -13 2 -54 7 -90 11 -36 3 -78 8 -95 11 -33 5
-531 13 -537 9z m512 -80 c70 -7 266 -33 315 -42 66 -12 258 -54 264 -59 4 -2
18 -6 32 -8 51 -10 254 -78 380 -128 267 -105 584 -287 809 -463 165 -129 382
-334 505 -476 298 -344 547 -793 679 -1225 30 -100 53 -182 60 -215 3 -14 14
-72 26 -130 12 -58 23 -118 25 -135 2 -16 9 -61 14 -100 40 -281 34 -676 -15
-970 -8 -49 -17 -106 -20 -125 -9 -54 -86 -354 -94 -365 -4 -5 -10 -23 -14
-40 -9 -38 -62 -185 -89 -245 -11 -25 -21 -50 -22 -55 -8 -37 -163 -330 -238
-449 -143 -229 -271 -389 -477 -597 -239 -241 -450 -403 -755 -579 -77 -44
-116 -63 -270 -135 -119 -56 -343 -140 -351 -132 -3 2 -11 159 -19 342 -3 72
-7 175 -10 230 -3 55 -7 147 -10 205 -7 162 -16 356 -20 455 -3 50 -7 153 -10
230 -3 77 -8 176 -10 220 -2 44 -7 143 -10 220 -3 77 -8 190 -10 250 -3 61 -8
155 -10 210 -12 273 -16 347 -20 430 -2 50 -7 151 -10 225 -3 74 -8 180 -10
235 -3 55 -7 152 -10 215 -3 63 -7 169 -10 235 -4 66 -8 161 -10 210 -2 50 -7
151 -10 226 l-6 136 46 75 c55 89 73 165 70 293 -8 328 -99 558 -248 625 -95
43 -219 13 -291 -72 -98 -115 -156 -340 -151 -593 3 -150 10 -179 66 -265 l41
-64 -7 -140 c-4 -78 -8 -166 -10 -196 -1 -30 -6 -118 -10 -195 -4 -77 -8 -171
-10 -209 -2 -38 -7 -121 -10 -185 -6 -134 -14 -292 -20 -406 -3 -44 -7 -129
-10 -190 -3 -60 -7 -150 -10 -200 -3 -49 -7 -137 -10 -195 -3 -58 -7 -143 -10
-190 -2 -47 -7 -139 -10 -205 -3 -66 -8 -154 -10 -195 -3 -41 -7 -129 -10
-195 -3 -66 -8 -154 -10 -195 -2 -41 -7 -131 -10 -200 -3 -69 -8 -156 -10
-195 -2 -38 -7 -128 -10 -200 -4 -71 -8 -159 -10 -195 -4 -59 -11 -200 -20
-385 -2 -38 -7 -135 -10 -215 -4 -80 -9 -147 -12 -150 -3 -3 -78 -5 -168 -5
l-163 0 0 2560 c0 1408 -3 2576 -7 2595 -18 100 -94 198 -190 245 -85 42 -148
54 -259 51 -119 -3 -141 -8 -221 -45 -107 -49 -172 -124 -199 -228 -10 -38
-13 -570 -12 -2521 1 -1361 -1 -2478 -4 -2482 -7 -12 -112 24 -300 105 -811
346 -1480 1029 -1814 1853 -88 215 -170 499 -200 689 -18 112 -27 173 -31 208
-28 243 -26 603 6 830 6 39 12 88 15 110 5 33 24 132 49 249 80 374 295 847
545 1196 119 167 204 266 379 441 387 387 820 652 1351 828 207 69 370 105
660 146 14 2 70 7 125 10 55 4 101 8 102 9 6 5 401 -2 463 -8z"/>
</g>
</svg>
